<?xml version="1.0" encoding="UTF-8" standalone="no"?>
<svg
   xmlns:dc="http://purl.org/dc/elements/1.1/"
   xmlns:cc="http://creativecommons.org/ns#"
   xmlns:rdf="http://www.w3.org/1999/02/22-rdf-syntax-ns#"
   xmlns:svg="http://www.w3.org/2000/svg"
   xmlns="http://www.w3.org/2000/svg"
   xmlns:sodipodi="http://sodipodi.sourceforge.net/DTD/sodipodi-0.dtd"
   xmlns:inkscape="http://www.inkscape.org/namespaces/inkscape"
   id="svg8"
   version="1.1"
   viewBox="0 0 63.759823 63.759823"
   height="63.759823mm"
   width="63.759823mm"
   sodipodi:docname="sciplot-logo.svg"
   inkscape:version="0.92.3 (unknown)">
  <sodipodi:namedview
     pagecolor="#ffffff"
     bordercolor="#666666"
     borderopacity="1"
     objecttolerance="10"
     gridtolerance="10"
     guidetolerance="10"
     inkscape:pageopacity="0"
     inkscape:pageshadow="2"
     inkscape:window-width="3840"
     inkscape:window-height="2075"
     id="namedview95"
     showgrid="false"
     inkscape:zoom="0.97932623"
     inkscape:cx="120.491"
     inkscape:cy="120.491"
     inkscape:window-x="0"
     inkscape:window-y="0"
     inkscape:window-maximized="1"
     inkscape:current-layer="svg8" />
  <defs
     id="defs2">
    <filter
       height="1.12"
       y="-0.059999999"
       width="1.12"
       x="-0.059999999"
       id="filter1398"
       style="color-interpolation-filters:sRGB">
      <feGaussianBlur
         id="feGaussianBlur1400"
         stdDeviation="1.4232103" />
    </filter>
  </defs>
  <metadata
     id="metadata5">
    <rdf:RDF>
      <cc:Work
         rdf:about="">
        <dc:format>image/svg+xml</dc:format>
        <dc:type
           rdf:resource="http://purl.org/dc/dcmitype/StillImage" />
        <dc:title />
      </cc:Work>
    </rdf:RDF>
  </metadata>
  <circle
     r="28.464207"
     cy="31.879911"
     cx="31.879911"
     id="circle817"
     style="opacity:1;fill:#cccccc;fill-opacity:1;stroke:none;stroke-width:0.5;stroke-linecap:butt;stroke-miterlimit:4;stroke-dasharray:none;stroke-dashoffset:0;stroke-opacity:1;filter:url(#filter1398)" />
  <circle
     style="opacity:1;fill:#f9f9f9;fill-opacity:1;stroke:none;stroke-width:0.5;stroke-linecap:butt;stroke-miterlimit:4;stroke-dasharray:none;stroke-dashoffset:0;stroke-opacity:1"
     id="path815"
     cx="31.879911"
     cy="31.879911"
     r="28.464207" />
  <g
     aria-label="sciplot"
     style="font-style:normal;font-variant:normal;font-weight:normal;font-stretch:normal;font-size:5.60734892px;line-height:1.25;font-family:'Gentium Book Basic';-inkscape-font-specification:'Gentium Book Basic';letter-spacing:0px;word-spacing:0px;fill:#ff8080;fill-opacity:1;stroke:none;stroke-width:0.26458332"
     id="text1352"
     transform="translate(-34.791277,-35.545275)">
    <path
       inkscape:connector-curvature="0"
       d="m 50.020718,69.265095 q 0,0.518387 -0.160627,0.890751 -0.160628,0.365061 -0.416171,0.620605 -0.255543,0.255543 -0.584099,0.408869 -0.328555,0.153326 -0.664412,0.233639 -0.335857,0.08031 -0.64981,0.102218 -0.313954,0.02921 -0.547593,0.02921 -0.255543,0 -0.547593,-0.03651 -0.292049,-0.0292 -0.598701,-0.09492 -0.299351,-0.06571 -0.5914,-0.167928 -0.284749,-0.102217 -0.525689,-0.23364 -0.05111,-0.0219 -0.08031,-0.262844 -0.0219,-0.248242 -0.0219,-0.5914 0,-0.343158 0.03651,-0.722823 0.03651,-0.386965 0.11682,-0.686316 l 0.679015,0.08031 q 0.09492,0.41617 0.270146,0.744726 0.17523,0.328555 0.401568,0.554894 0.23364,0.226338 0.503785,0.350459 0.277447,0.11682 0.576798,0.11682 0.525689,0 0.752027,-0.146025 0.226339,-0.153326 0.226339,-0.562195 0,-0.292049 -0.146025,-0.525689 -0.146025,-0.240941 -0.386966,-0.438074 -0.24094,-0.204435 -0.554894,-0.379665 -0.313953,-0.175229 -0.64981,-0.350459 -0.306652,-0.153326 -0.613303,-0.343158 -0.306652,-0.189832 -0.562196,-0.41617 -0.248242,-0.23364 -0.408869,-0.511087 -0.153326,-0.284748 -0.153326,-0.635208 0,-0.452676 0.23364,-0.817738 0.233639,-0.365062 0.620605,-0.620605 0.386965,-0.255543 0.876148,-0.394267 0.496484,-0.138723 1.022173,-0.138723 0.335857,0 0.671714,0.04381 0.335857,0.03651 0.635208,0.109519 0.29935,0.07301 0.547592,0.175229 0.255544,0.102218 0.430773,0.23364 0.04381,0.03651 0.0219,0.262844 -0.0219,0.226339 -0.09492,0.511087 -0.06571,0.284748 -0.167929,0.562195 -0.09492,0.277447 -0.197133,0.416171 l -0.576798,-0.05841 q -0.124121,-0.686317 -0.459977,-1.065981 -0.328556,-0.386965 -0.854245,-0.386965 -0.430773,0 -0.657111,0.175229 -0.226339,0.17523 -0.226339,0.481882 0,0.233639 0.109519,0.41617 0.109518,0.17523 0.321254,0.335857 0.211736,0.160627 0.525689,0.328556 0.313953,0.167928 0.730124,0.386965 0.313953,0.160628 0.635207,0.343159 0.321255,0.18253 0.576798,0.423471 0.255543,0.23364 0.416171,0.540292 0.160627,0.29935 0.160627,0.70822 z"
       style="font-style:normal;font-variant:normal;font-weight:bold;font-stretch:normal;font-family:'Gentium Book Basic';-inkscape-font-specification:'Gentium Book Basic';fill:#71c837;stroke-width:0.26458332"
       id="path2300" />
    <path
       inkscape:connector-curvature="0"
       d="m 57.183231,69.94411 q -0.474581,0.53299 -0.890751,0.854244 -0.416171,0.313954 -0.795835,0.481882 -0.379664,0.167928 -0.730124,0.219037 -0.343158,0.05111 -0.686316,0.05111 -0.613304,0 -1.175499,-0.23364 -0.562195,-0.240941 -0.992968,-0.686316 -0.423472,-0.445376 -0.679015,-1.087884 -0.255543,-0.642509 -0.255543,-1.452946 0,-0.788534 0.292049,-1.47485 0.29205,-0.686316 0.817739,-1.190102 0.53299,-0.511086 1.270415,-0.803136 0.737425,-0.29935 1.635477,-0.29935 0.24094,0 0.562195,0.04381 0.321254,0.03651 0.627906,0.11682 0.313953,0.07301 0.576798,0.182531 0.262844,0.102217 0.386965,0.233639 0.0073,0.05841 -0.0219,0.226339 -0.0292,0.160627 -0.08761,0.379664 -0.05111,0.211736 -0.124121,0.459978 -0.07301,0.240941 -0.146025,0.459978 -0.07301,0.219037 -0.146025,0.386965 -0.06571,0.167929 -0.109518,0.23364 l -0.562195,-0.07301 q -0.138724,-0.438074 -0.284749,-0.752027 -0.146024,-0.321254 -0.321254,-0.53299 -0.17523,-0.211736 -0.386966,-0.313953 -0.211735,-0.102218 -0.47458,-0.102218 -0.299351,0 -0.576798,0.138724 -0.277447,0.138723 -0.489182,0.445375 -0.211736,0.306652 -0.343159,0.803136 -0.124121,0.489183 -0.124121,1.204704 0,0.569497 0.131423,1.014872 0.138723,0.438074 0.379664,0.744726 0.248242,0.299351 0.576798,0.459978 0.328555,0.153326 0.715521,0.153326 0.204434,0 0.401568,-0.0219 0.197133,-0.0292 0.423472,-0.116819 0.233639,-0.08761 0.511086,-0.248242 0.284748,-0.160628 0.664413,-0.423472 z"
       style="font-style:normal;font-variant:normal;font-weight:bold;font-stretch:normal;font-family:'Gentium Book Basic';-inkscape-font-specification:'Gentium Book Basic';fill:#71c837;stroke-width:0.26458332"
       id="path2302" />
    <path
       inkscape:connector-curvature="0"
       d="m 57.869547,71.331345 v -0.606003 q 0.496484,-0.102217 0.722822,-0.219037 0.226339,-0.124121 0.226339,-0.226338 v -3.621414 q 0,-0.372363 -0.0073,-0.598701 0,-0.23364 -0.08031,-0.357761 -0.08031,-0.131422 -0.277447,-0.189832 -0.197133,-0.05841 -0.584099,-0.09492 V 64.83324 q 0.686316,-0.08761 1.263114,-0.204435 0.576798,-0.124121 1.117089,-0.306651 h 0.540292 v 5.957809 q 0,0.08761 0.204434,0.219037 0.211736,0.124121 0.744726,0.226338 v 0.606003 z m 3.212544,-9.20686 q 0,0.262845 -0.102217,0.474581 -0.102218,0.211736 -0.284749,0.365062 -0.18253,0.146024 -0.430772,0.226338 -0.240941,0.08031 -0.532991,0.08031 -0.219037,0 -0.423471,-0.04381 -0.197134,-0.05111 -0.357761,-0.153326 -0.160627,-0.109518 -0.255543,-0.270146 -0.09492,-0.160627 -0.09492,-0.379664 0,-0.262844 0.102217,-0.47458 0.109518,-0.211736 0.292049,-0.357761 0.182531,-0.146025 0.423472,-0.226338 0.248242,-0.08031 0.53299,-0.08031 0.211736,0 0.416171,0.05111 0.204434,0.04381 0.35776,0.146025 0.160628,0.102217 0.255544,0.262844 0.102217,0.153326 0.102217,0.379664 z"
       style="font-style:normal;font-variant:normal;font-weight:bold;font-stretch:normal;font-family:'Gentium Book Basic';-inkscape-font-specification:'Gentium Book Basic';fill:#71c837;stroke-width:0.26458332"
       id="path2304" />
    <path
       inkscape:connector-curvature="0"
       d="m 68.281111,68.221018 q 0,-0.722823 -0.146025,-1.204704 -0.146025,-0.489183 -0.386965,-0.788534 -0.23364,-0.29935 -0.532991,-0.423471 -0.292049,-0.131423 -0.5914,-0.131423 -0.131422,0 -0.233639,0.0146 -0.09492,0.0073 -0.226339,0.06571 -0.131422,0.05111 -0.328555,0.160627 -0.189832,0.109519 -0.511087,0.306652 v 3.409677 q 0.408869,0.219038 0.686316,0.343159 0.277447,0.124121 0.481882,0.182531 0.211736,0.05841 0.372363,0.07301 0.160627,0.0073 0.328556,0.0073 0.496484,-0.0073 0.795834,-0.525689 0.299351,-0.518388 0.29205,-1.489452 z m 1.861815,-0.554894 q 0,0.496484 -0.138723,0.978366 -0.131423,0.481881 -0.357761,0.912654 -0.219037,0.430773 -0.511086,0.795835 -0.29205,0.365062 -0.613304,0.635207 -0.313953,0.262845 -0.635208,0.40887 -0.321254,0.153326 -0.606002,0.153326 -0.211736,0 -0.416171,-0.04381 -0.204435,-0.03651 -0.438074,-0.131422 -0.226338,-0.08761 -0.496484,-0.23364 -0.270146,-0.153326 -0.606003,-0.379664 v 3.015411 q 0,0.11682 0.270146,0.233639 0.277447,0.11682 0.963763,0.219037 v 0.606003 h -4.154403 v -0.606003 q 0.481881,-0.116819 0.715521,-0.226338 0.233639,-0.102217 0.233639,-0.226338 v -7.418056 q 0,-0.270146 -0.0219,-0.445376 -0.0146,-0.17523 -0.109519,-0.277447 -0.08761,-0.109518 -0.277447,-0.153326 -0.189832,-0.05111 -0.540291,-0.06571 v -0.584099 q 0.467279,-0.05111 0.803136,-0.102217 0.335856,-0.05111 0.606002,-0.102218 0.277447,-0.05841 0.525689,-0.131422 0.248242,-0.07301 0.547593,-0.175229 l 0.328556,0.328555 0.06571,0.715521 q 0.41617,-0.328555 0.759328,-0.53299 0.343158,-0.204435 0.620605,-0.313953 0.284749,-0.11682 0.518388,-0.153326 0.23364,-0.04381 0.445376,-0.04381 0.496484,0 0.94916,0.197133 0.459978,0.189832 0.803136,0.598701 0.35046,0.401568 0.554894,1.036776 0.211736,0.627906 0.211736,1.511356 z"
       style="font-style:normal;font-variant:normal;font-weight:bold;font-stretch:normal;font-family:'Gentium Book Basic';-inkscape-font-specification:'Gentium Book Basic';fill:#333333;stroke-width:0.26458332"
       id="path2306" />
    <path
       inkscape:connector-curvature="0"
       d="m 70.93876,71.331345 v -0.606003 q 0.313953,-0.05111 0.511086,-0.102217 0.204435,-0.05841 0.313954,-0.109519 0.116819,-0.05841 0.153326,-0.11682 0.04381,-0.05841 0.04381,-0.116819 v -8.118975 q 0,-0.328556 -0.03651,-0.511087 -0.0292,-0.182531 -0.131422,-0.270146 -0.102218,-0.09492 -0.29205,-0.124121 -0.182531,-0.03651 -0.489183,-0.07301 v -0.584099 q 0.401568,-0.05111 0.737425,-0.102217 0.343158,-0.05841 0.64981,-0.124121 0.306652,-0.06571 0.598702,-0.153326 0.292049,-0.08761 0.598701,-0.204435 l 0.335857,0.321254 v 9.944285 q 0,0.05841 0.04381,0.116819 0.05111,0.05111 0.167929,0.109519 0.116819,0.05841 0.313953,0.11682 0.197133,0.05111 0.496484,0.102217 v 0.606003 z"
       style="font-style:normal;font-variant:normal;font-weight:bold;font-stretch:normal;font-family:'Gentium Book Basic';-inkscape-font-specification:'Gentium Book Basic';fill:#333333;stroke-width:0.26458332"
       id="path2308" />
    <path
       inkscape:connector-curvature="0"
       d="m 80.656706,68.155307 q 0,-0.576798 -0.102217,-1.095186 -0.09492,-0.525689 -0.284748,-0.919956 -0.189832,-0.401568 -0.481882,-0.635207 -0.284748,-0.23364 -0.657111,-0.23364 -0.416171,0 -0.686316,0.197134 -0.270146,0.197133 -0.430773,0.547592 -0.153326,0.35046 -0.219037,0.832341 -0.05841,0.474581 -0.05841,1.029475 0,0.576797 0.109518,1.073282 0.11682,0.496484 0.313953,0.868847 0.204435,0.365061 0.481882,0.576797 0.284748,0.204435 0.620605,0.204435 0.408869,0 0.679015,-0.153326 0.270146,-0.160627 0.423472,-0.467279 0.160627,-0.313953 0.226338,-0.76663 0.06571,-0.459978 0.06571,-1.058679 z m 2.080853,-0.365062 q 0,0.489183 -0.138724,0.956462 -0.131422,0.467279 -0.372363,0.883449 -0.240941,0.416171 -0.584099,0.773932 -0.335857,0.350459 -0.744726,0.606002 -0.408869,0.255543 -0.876148,0.394267 -0.467279,0.146025 -0.963763,0.146025 -0.773932,0 -1.401838,-0.262845 -0.627906,-0.262844 -1.073282,-0.722822 -0.445375,-0.459978 -0.686316,-1.095186 -0.240941,-0.635207 -0.240941,-1.379933 0,-0.481882 0.11682,-0.949161 0.124121,-0.467279 0.350459,-0.88345 0.226339,-0.423471 0.554894,-0.773931 0.328556,-0.35776 0.737425,-0.613304 0.40887,-0.255543 0.890751,-0.401568 0.489183,-0.146024 1.036776,-0.146024 0.76663,0 1.394536,0.262844 0.627906,0.262845 1.073282,0.730124 0.445375,0.459978 0.686316,1.095185 0.240941,0.635208 0.240941,1.379934 z"
       style="font-style:normal;font-variant:normal;font-weight:bold;font-stretch:normal;font-family:'Gentium Book Basic';-inkscape-font-specification:'Gentium Book Basic';fill:#333333;stroke-width:0.26458332"
       id="path2310" />
    <path
       inkscape:connector-curvature="0"
       d="m 88.70997,70.112038 q -1.051378,0.752027 -1.730393,1.095186 -0.679015,0.343158 -1.065981,0.343158 -0.335857,0 -0.635207,-0.131423 -0.29205,-0.124121 -0.518388,-0.379664 -0.219037,-0.262844 -0.350459,-0.642509 -0.124121,-0.386965 -0.124121,-0.898052 v -3.971872 h -0.868848 l -0.226338,-0.277447 0.569497,-0.70822 h 0.525689 v -1.431043 l 1.671983,-1.197402 0.29935,0.255543 v 2.372902 h 2.168468 l 0.284748,0.284748 q -0.06571,0.131422 -0.167929,0.277447 -0.09492,0.138723 -0.197133,0.270146 -0.102217,0.131422 -0.204435,0.24094 -0.09492,0.109519 -0.167928,0.167929 -0.08761,-0.04381 -0.226338,-0.08761 -0.131423,-0.04381 -0.29205,-0.08031 -0.160627,-0.04381 -0.335857,-0.06571 -0.175229,-0.0219 -0.335857,-0.0219 h -0.525689 v 3.270954 q 0,0.35776 0.04381,0.606002 0.05111,0.240941 0.124121,0.394267 0.08031,0.153326 0.182531,0.226338 0.102217,0.06571 0.211736,0.06571 0.131422,0 0.270145,-0.0219 0.138724,-0.0292 0.313954,-0.08761 0.175229,-0.06571 0.401568,-0.17523 0.233639,-0.109518 0.547592,-0.284748 z"
       style="font-style:normal;font-variant:normal;font-weight:bold;font-stretch:normal;font-family:'Gentium Book Basic';-inkscape-font-specification:'Gentium Book Basic';fill:#333333;stroke-width:0.26458332"
       id="path2312" />
  </g>
  <g
     aria-label="a scientific plotting  library powered by gnuplot"
     style="font-style:normal;font-variant:normal;font-weight:normal;font-stretch:normal;font-size:1.42833495px;line-height:0.89999998;font-family:Purisa;-inkscape-font-specification:Purisa;letter-spacing:0px;word-spacing:0px;fill:#666666;fill-opacity:1;stroke:none;stroke-width:0.26458332"
     id="text1428"
     transform="translate(-34.791277,-35.545275)">
    <path
       inkscape:connector-curvature="0"
       d="m 71.484135,73.452347 q -0.0657,0 -0.139977,0.02714 -0.07284,0.02714 -0.129978,0.05571 -0.05713,0.02714 -0.08284,0.02714 -0.01714,0 -0.01714,-0.01428 0,-0.02 0.0086,-0.03428 0.0086,-0.01428 0.03142,-0.02714 0.02285,-0.01286 0.04285,-0.02142 0.02142,-0.0086 0.06713,-0.02428 0.04571,-0.01714 0.07856,-0.03142 0.07713,-0.02999 0.129978,-0.02999 0.09427,0 0.147119,0.10284 0.02571,0.04999 0.02999,0.09284 0.0043,0.04142 0.0071,0.235675 0.0014,0.108554 0.0043,0.182827 0.0029,0.07285 0.0057,0.09284 l 0.0029,0.01857 q 0,0.02 -0.01857,0.04285 -0.01714,0.02285 -0.02571,0.02285 -0.02857,0 -0.04428,-0.08998 -0.01571,-0.09141 -0.01714,-0.09141 -0.0043,0 -0.01286,0.01571 -0.02857,0.04714 -0.115695,0.104268 -0.0857,0.05571 -0.144262,0.05571 -0.03571,0 -0.08427,-0.01286 -0.04713,-0.01428 -0.06856,-0.02999 -0.01571,-0.01286 -0.02714,-0.05142 -0.01,-0.03856 -0.01,-0.07856 0,-0.05999 0.03142,-0.10284 0.03285,-0.04428 0.115695,-0.08999 0.08998,-0.05285 0.174257,-0.05285 0.03428,0 0.05713,0.01143 0.02285,0.01143 0.03428,0.02428 0.01143,0.01143 0.01857,0.01143 0.0057,0 0.02714,0.01571 0.02142,0.01428 0.02285,0.01428 0.0057,0 0.0057,-0.03142 0,-0.191397 -0.02714,-0.26567 -0.02571,-0.07427 -0.07713,-0.07427 z m 0.06428,0.442784 q 0,-0.0057 -0.0043,-0.01286 -0.0029,-0.0086 -0.01428,-0.01857 -0.01,-0.01143 -0.02714,-0.02 -0.01571,-0.01 -0.04428,-0.01571 -0.02857,-0.0071 -0.06428,-0.0071 -0.06142,0 -0.108554,0.02142 -0.04571,0.02143 -0.06856,0.05428 -0.02285,0.03285 -0.03428,0.06142 -0.01,0.02714 -0.01,0.04856 0,0.03571 0.0057,0.04856 0.0071,0.01286 0.03285,0.02714 0.03142,0.01571 0.05713,0.01571 0.04856,0 0.119981,-0.03428 0.07285,-0.03571 0.07285,-0.05142 0,-0.01143 0.04285,-0.05428 0.04428,-0.04428 0.04428,-0.06285 z"
       style="font-style:normal;font-variant:normal;font-weight:normal;font-stretch:normal;font-size:1.42833495px;line-height:1;font-family:Purisa;-inkscape-font-specification:Purisa;text-align:center;text-anchor:middle;fill:#666666;stroke-width:0.26458332"
       id="path2217" />
    <path
       inkscape:connector-curvature="0"
       d="m 72.944072,73.827999 q -0.02143,0 -0.09141,-0.05142 -0.06999,-0.05285 -0.06999,-0.107125 0,-0.05142 0.07285,-0.141405 0.07285,-0.09141 0.175685,-0.117123 0.04713,-0.01286 0.124265,-0.01286 0.03285,0 0.04856,0.0086 0.01571,0.0086 0.04285,0.03857 0.04428,0.04999 0.04428,0.06856 0,0.01714 -0.01857,0.01714 -0.02285,0 -0.03856,-0.01571 -0.01571,-0.01714 -0.03857,-0.03428 -0.02285,-0.01714 -0.06142,-0.01714 -0.04999,0 -0.107125,0.02714 -0.05713,0.02714 -0.101411,0.0757 -0.06285,0.06713 -0.06285,0.09141 0,0.02428 0.03714,0.05856 0.03714,0.03285 0.124265,0.06285 0.13712,0.04713 0.185683,0.08856 0.04856,0.04142 0.04856,0.11141 0,0.0657 -0.02285,0.11998 -0.01571,0.04142 -0.06713,0.09284 -0.05142,0.05142 -0.101411,0.05142 -0.03856,0 -0.09998,-0.01286 -0.06142,-0.01143 -0.09284,-0.02714 -0.02571,-0.01286 -0.04713,-0.04999 -0.02143,-0.03857 -0.02143,-0.06856 0,-0.01571 0.0071,-0.02714 0.0086,-0.01286 0.02,-0.01286 0.02143,0 0.03999,0.03999 0.01714,0.03571 0.06856,0.06428 0.05285,0.02857 0.09856,0.02857 0.06142,0 0.108554,-0.07285 0.04713,-0.07427 0.04713,-0.115695 0,-0.01 -0.0057,-0.02428 -0.0043,-0.01571 -0.02428,-0.03714 -0.02,-0.02142 -0.05142,-0.03285 -0.03,-0.01 -0.06999,-0.02714 -0.03999,-0.01714 -0.06713,-0.02857 -0.02571,-0.01143 -0.03285,-0.01143 z"
       style="font-style:normal;font-variant:normal;font-weight:normal;font-stretch:normal;font-size:1.42833495px;line-height:1;font-family:Purisa;-inkscape-font-specification:Purisa;text-align:center;text-anchor:middle;fill:#666666;stroke-width:0.26458332"
       id="path2219" />
    <path
       inkscape:connector-curvature="0"
       d="m 74.109861,73.589467 q 0,0.02428 -0.01143,0.03999 -0.01,0.01571 -0.02428,0.01571 -0.02714,0 -0.03428,-0.04142 -0.0029,-0.03285 -0.04713,-0.08284 -0.01857,-0.02 -0.02999,-0.02857 -0.01143,-0.0086 -0.05428,-0.01857 -0.04142,-0.01 -0.109982,-0.01 -0.05571,0 -0.0857,0.02 -0.02857,0.02 -0.07142,0.08141 -0.10284,0.14569 -0.10284,0.262813 0,0.05999 0.01286,0.101412 0.01286,0.03999 0.02428,0.05428 0.01286,0.01286 0.04142,0.04142 0.04142,0.03999 0.06285,0.05142 0.02285,0.01 0.06285,0.01 0.124265,0 0.271383,-0.168543 0.07713,-0.0857 0.111411,-0.0857 0.01857,0 0.01857,0.02714 0,0.02571 -0.06856,0.109982 -0.06713,0.08427 -0.115695,0.118551 -0.112839,0.08141 -0.201396,0.08141 -0.06427,0 -0.141405,-0.03856 -0.07856,-0.03857 -0.114267,-0.104268 -0.03428,-0.0657 -0.04142,-0.191397 -0.0043,-0.04856 -0.0043,-0.07713 0,-0.05571 0.03857,-0.127122 0.03999,-0.07713 0.115695,-0.148547 0.07713,-0.07142 0.132835,-0.08713 0.04285,-0.01 0.09284,-0.01 0.108553,0 0.189968,0.06999 0.08284,0.06856 0.08284,0.134263 z"
       style="font-style:normal;font-variant:normal;font-weight:normal;font-stretch:normal;font-size:1.42833495px;line-height:1;font-family:Purisa;-inkscape-font-specification:Purisa;text-align:center;text-anchor:middle;fill:#666666;stroke-width:0.26458332"
       id="path2221" />
    <path
       inkscape:connector-curvature="0"
       d="m 74.36319,73.349507 q 0.02,-0.01714 0.03428,-0.01714 0.02999,0 0.04285,0.0957 0.01428,0.09427 0.02571,0.364225 0.0057,0.125694 0.0057,0.227105 0,0.101412 -0.0086,0.11141 -0.01714,0.02142 -0.04285,0.02142 -0.03571,0 -0.04428,-0.02999 -0.0071,-0.01857 -0.02143,-0.288523 -0.01428,-0.271384 -0.01428,-0.377081 0,-0.08856 0.02285,-0.107125 z m -0.0086,-0.335658 q 0,-0.02 0.01571,-0.03999 0.01714,-0.02 0.03,-0.02 0.01428,0 0.03856,0.02 0.02571,0.01857 0.02571,0.04856 0,0.02143 -0.01286,0.03714 -0.01143,0.01428 -0.03142,0.01428 -0.02285,0 -0.04428,-0.01714 -0.02143,-0.01714 -0.02143,-0.04285 z"
       style="font-style:normal;font-variant:normal;font-weight:normal;font-stretch:normal;font-size:1.42833495px;line-height:1;font-family:Purisa;-inkscape-font-specification:Purisa;text-align:center;text-anchor:middle;fill:#666666;stroke-width:0.26458332"
       id="path2223" />
    <path
       inkscape:connector-curvature="0"
       d="m 75.407793,73.856566 q 0.0071,0 0.0071,0.01143 0,0.02571 -0.03857,0.08284 -0.03714,0.05713 -0.07999,0.09427 -0.149975,0.132835 -0.29995,0.132835 -0.05713,0 -0.114267,-0.02571 -0.05571,-0.02714 -0.104268,-0.0757 -0.04856,-0.04856 -0.07856,-0.129979 -0.02999,-0.08141 -0.02999,-0.181398 0,-0.06142 0.01428,-0.104269 0.02857,-0.08713 0.121408,-0.184255 0.09427,-0.09713 0.177114,-0.09713 0.02285,0 0.06856,0.0043 0.06856,0.0057 0.0957,0.01428 0.02857,0.0086 0.06428,0.03571 0.04571,0.03428 0.07856,0.08856 0.03428,0.05285 0.03428,0.08856 0,0.04571 -0.03571,0.06999 -0.03571,0.02285 -0.138548,0.04571 -0.134264,0.02999 -0.262814,0.03714 l -0.132835,0.0071 v 0.05713 q 0,0.105697 0.09856,0.199967 0.07427,0.07142 0.15426,0.07142 0.06142,0 0.129979,-0.03714 0.06999,-0.03857 0.118552,-0.08427 0.04856,-0.04571 0.09284,-0.08284 0.04428,-0.03857 0.05999,-0.03857 z m -0.229961,-0.348514 q -0.04428,-0.03999 -0.06713,-0.04999 -0.02142,-0.01143 -0.05713,-0.01143 -0.07142,0 -0.107125,0.01428 -0.03428,0.01286 -0.06999,0.05428 -0.108554,0.124265 -0.108554,0.165687 0,0.01857 0.03428,0.01857 0.129979,0 0.368511,-0.05428 0.07142,-0.01714 0.07142,-0.05999 0,-0.02 -0.06428,-0.07713 z"
       style="font-style:normal;font-variant:normal;font-weight:normal;font-stretch:normal;font-size:1.42833495px;line-height:1;font-family:Purisa;-inkscape-font-specification:Purisa;text-align:center;text-anchor:middle;fill:#666666;stroke-width:0.26458332"
       id="path2225" />
    <path
       inkscape:connector-curvature="0"
       d="m 75.65802,73.390929 q 0,-0.04856 0.02857,-0.04856 0.01857,0 0.02714,0.04285 0.0086,0.04142 0.03142,0.24853 0.02571,0.224248 0.02999,0.234247 0.0057,-0.0057 0.04142,-0.115695 0.03285,-0.10284 0.05142,-0.142834 0.02,-0.04142 0.06856,-0.109982 0.104269,-0.144261 0.161402,-0.144261 0.03714,0 0.06999,0.04999 0.04428,0.0657 0.05428,0.129979 0.01,0.06428 0.01428,0.304235 0.0029,0.15426 0.0029,0.182827 0,0.07142 -0.0057,0.104268 -0.0043,0.03142 -0.01428,0.03857 -0.0086,0.0086 -0.03142,0.01 -0.01286,0 -0.01714,-0.01143 -0.0043,-0.01 -0.0043,-0.04856 0,-0.02142 0.0029,-0.09141 0.0029,-0.07142 0.0029,-0.11998 0,-0.121408 -0.01,-0.237103 -0.0086,-0.117124 -0.02142,-0.149976 -0.0071,-0.01857 -0.02285,-0.03856 -0.01571,-0.02 -0.02999,-0.02 -0.02999,0 -0.0957,0.10284 -0.0657,0.101412 -0.112838,0.21425 -0.04428,0.108553 -0.05999,0.16283 -0.01571,0.05428 -0.02428,0.144262 -0.01571,0.14569 -0.02285,0.14569 -0.01143,0 -0.03285,-0.02428 -0.01571,-0.01571 -0.02142,-0.06713 -0.0057,-0.05285 -0.01571,-0.207109 -0.01,-0.155688 -0.02714,-0.314233 -0.01714,-0.164259 -0.01714,-0.224249 z"
       style="font-style:normal;font-variant:normal;font-weight:normal;font-stretch:normal;font-size:1.42833495px;line-height:1;font-family:Purisa;-inkscape-font-specification:Purisa;text-align:center;text-anchor:middle;fill:#666666;stroke-width:0.26458332"
       id="path2227" />
    <path
       inkscape:connector-curvature="0"
       d="m 76.69662,73.170965 q 0,-0.05285 -0.01,-0.134263 -0.01,-0.08142 -0.01,-0.135692 0,-0.02714 0.0014,-0.03571 0.0043,-0.02285 0.01571,-0.03571 0.01286,-0.01428 0.02571,-0.01428 0.01714,0 0.02428,0.01571 0.0043,0.01 0.01286,0.105696 0.0086,0.0957 0.01571,0.187112 0.0071,0.09141 0.01,0.09427 0.0014,0.0014 0.0043,0.0014 0.01143,0 0.0657,-0.01143 0.0557,-0.01286 0.09141,-0.01286 0.07142,0 0.07142,0.03142 0,0.03142 -0.157117,0.06999 l -0.07142,0.01714 0.0086,0.241388 q 0.0071,0.212822 0.02714,0.398506 0.02,0.184255 0.02,0.208537 0,0.04428 -0.03285,0.04428 -0.02571,0 -0.04285,-0.04571 -0.01571,-0.04571 -0.01571,-0.118551 0,-0.05285 -0.0043,-0.107125 -0.0043,-0.05571 -0.01571,-0.171401 -0.01,-0.117123 -0.02,-0.23996 -0.0043,-0.0657 -0.0071,-0.101412 -0.0014,-0.03571 -0.0043,-0.05285 -0.0029,-0.01714 -0.0043,-0.02 -0.0014,-0.0043 -0.0057,-0.0043 -0.02285,0 -0.109982,0.01571 -0.08713,0.01571 -0.108554,0.01571 -0.04142,0 -0.04142,-0.03428 0,-0.02428 0.05142,-0.04142 0.05285,-0.01714 0.118552,-0.02999 0.0657,-0.01428 0.08141,-0.02428 0.01571,-0.01143 0.01571,-0.0757 z"
       style="font-style:normal;font-variant:normal;font-weight:normal;font-stretch:normal;font-size:1.42833495px;line-height:1;font-family:Purisa;-inkscape-font-specification:Purisa;text-align:center;text-anchor:middle;fill:#666666;stroke-width:0.26458332"
       id="path2229" />
    <path
       inkscape:connector-curvature="0"
       d="m 77.267285,73.349507 q 0.02,-0.01714 0.03428,-0.01714 0.02999,0 0.04285,0.0957 0.01428,0.09427 0.02571,0.364225 0.0057,0.125694 0.0057,0.227105 0,0.101412 -0.0086,0.11141 -0.01714,0.02142 -0.04285,0.02142 -0.03571,0 -0.04428,-0.02999 -0.0071,-0.01857 -0.02143,-0.288523 -0.01428,-0.271384 -0.01428,-0.377081 0,-0.08856 0.02285,-0.107125 z m -0.0086,-0.335658 q 0,-0.02 0.01571,-0.03999 0.01714,-0.02 0.02999,-0.02 0.01428,0 0.03856,0.02 0.02571,0.01857 0.02571,0.04856 0,0.02143 -0.01286,0.03714 -0.01143,0.01428 -0.03142,0.01428 -0.02285,0 -0.04428,-0.01714 -0.02143,-0.01714 -0.02143,-0.04285 z"
       style="font-style:normal;font-variant:normal;font-weight:normal;font-stretch:normal;font-size:1.42833495px;line-height:1;font-family:Purisa;-inkscape-font-specification:Purisa;text-align:center;text-anchor:middle;fill:#666666;stroke-width:0.26458332"
       id="path2231" />
    <path
       inkscape:connector-curvature="0"
       d="m 78.31903,73.073839 q -0.02999,0 -0.04999,-0.02857 -0.02,-0.02999 -0.02571,-0.05856 -0.0057,-0.02999 -0.0057,-0.05285 0,-0.04571 -0.02571,-0.06999 -0.02428,-0.02571 -0.0957,-0.04856 -0.04714,-0.01428 -0.07285,-0.01428 -0.06142,0 -0.0957,0.07142 -0.01428,0.02999 -0.02428,0.141406 -0.01,0.11141 -0.01,0.218535 0,0.08142 0.0057,0.10284 0.0071,0.02 0.03571,0.02 0.01714,0 0.161401,-0.03714 0.144262,-0.03714 0.179971,-0.03714 0.02857,0 0.02857,0.03285 0.01857,0.05142 0.03142,0.307092 0.01428,0.255672 0.01428,0.398505 0,0.101412 -0.0086,0.11141 -0.01714,0.02142 -0.04285,0.02142 -0.03571,0 -0.04428,-0.02999 -0.0057,-0.01857 -0.02143,-0.314233 -0.01428,-0.295666 -0.01428,-0.402791 v -0.02285 q -0.03285,0.0086 -0.108553,0.02 -0.0757,0.01143 -0.09141,0.01571 l -0.122836,0.03571 -0.0043,0.278525 q 0,0.01714 -0.0014,0.04713 0,0.02857 0,0.03999 0,0.107126 0.01,0.165687 0.01,0.05856 0.02,0.08427 0.01,0.02571 0.01,0.05571 0,0.04285 -0.03999,0.04285 -0.0757,0 -0.0757,-0.398505 0,-0.289952 -0.0086,-0.298522 -0.0014,-0.0014 -0.0071,-0.0014 -0.01714,0 -0.07285,0.01571 -0.05428,0.01428 -0.08713,0.01428 -0.06285,0 -0.06285,-0.03999 0,-0.01571 0.02285,-0.02857 0.02428,-0.01286 0.09284,-0.03285 l 0.115695,-0.03428 0.0029,-0.07285 q 0.0071,-0.177113 0.02,-0.292808 0.01285,-0.118552 0.02285,-0.149975 0.01,-0.03142 0.04428,-0.0657 0.02857,-0.02857 0.04571,-0.03714 0.01857,-0.0086 0.05142,-0.0086 0.02428,0 0.10284,0.0071 0.05999,0.0057 0.0857,0.01714 0.02571,0.01 0.05856,0.04285 0.04285,0.04285 0.06427,0.09998 0.0057,0.01857 0.01571,0.04285 0.01143,0.02428 0.01571,0.04142 0.0057,0.01571 0.0057,0.03428 0,0.02143 -0.01286,0.03714 -0.01143,0.01428 -0.03142,0.01428 z"
       style="font-style:normal;font-variant:normal;font-weight:normal;font-stretch:normal;font-size:1.42833495px;line-height:1;font-family:Purisa;-inkscape-font-specification:Purisa;text-align:center;text-anchor:middle;fill:#666666;stroke-width:0.26458332"
       id="path2233" />
    <path
       inkscape:connector-curvature="0"
       d="m 79.215043,73.589467 q 0,0.02428 -0.01143,0.03999 -0.01,0.01571 -0.02428,0.01571 -0.02714,0 -0.03428,-0.04142 -0.0029,-0.03285 -0.04713,-0.08284 -0.01857,-0.02 -0.02999,-0.02857 -0.01143,-0.0086 -0.05428,-0.01857 -0.04142,-0.01 -0.109981,-0.01 -0.05571,0 -0.0857,0.02 -0.02857,0.02 -0.07142,0.08141 -0.10284,0.14569 -0.10284,0.262813 0,0.05999 0.01286,0.101412 0.01286,0.03999 0.02428,0.05428 0.01286,0.01286 0.04142,0.04142 0.04142,0.03999 0.06285,0.05142 0.02285,0.01 0.06285,0.01 0.124266,0 0.271384,-0.168543 0.07713,-0.0857 0.11141,-0.0857 0.01857,0 0.01857,0.02714 0,0.02571 -0.06856,0.109982 -0.06713,0.08427 -0.115695,0.118551 -0.112838,0.08141 -0.201395,0.08141 -0.06427,0 -0.141405,-0.03856 -0.07856,-0.03857 -0.114267,-0.104268 -0.03428,-0.0657 -0.04142,-0.191397 -0.0043,-0.04856 -0.0043,-0.07713 0,-0.05571 0.03857,-0.127122 0.03999,-0.07713 0.115695,-0.148547 0.07713,-0.07142 0.132835,-0.08713 0.04285,-0.01 0.09284,-0.01 0.108553,0 0.189968,0.06999 0.08284,0.06856 0.08284,0.134263 z"
       style="font-style:normal;font-variant:normal;font-weight:normal;font-stretch:normal;font-size:1.42833495px;line-height:1;font-family:Purisa;-inkscape-font-specification:Purisa;text-align:center;text-anchor:middle;fill:#666666;stroke-width:0.26458332"
       id="path2235" />
    <path
       inkscape:connector-curvature="0"
       d="m 80.354631,73.493769 q 0.03999,-0.03571 0.03999,-0.06142 0,-0.02571 0.01571,-0.06142 0.01714,-0.03714 0.04856,-0.03714 0.02,0 0.03428,0.02285 0.01571,0.02142 0.03285,0.02142 0.01286,0 0.105697,-0.02142 0.09284,-0.02285 0.16283,-0.02285 0.05856,0 0.129979,0.01571 0.148547,0.03428 0.148547,0.184255 0,0.114267 -0.08856,0.304236 -0.05856,0.125693 -0.142834,0.194253 -0.08427,0.06713 -0.17997,0.06713 -0.02714,0 -0.04142,-0.0029 l -0.0657,-0.01 0.01571,0.07713 q 0.05142,0.242817 0.05142,0.304235 0,0.02857 -0.01,0.03714 -0.01,0.01 -0.03428,0.01 -0.02571,0 -0.03714,-0.01286 -0.01,-0.01143 -0.02143,-0.04999 -0.05571,-0.199967 -0.08999,-0.597044 -0.01571,-0.195682 -0.02714,-0.238532 -0.01,-0.04428 -0.04142,-0.04428 -0.04571,0 -0.04571,-0.02714 0,-0.01571 0.03999,-0.05142 z m 0.212822,0.474207 q 0.02142,0 0.04999,0.01857 0.02857,0.01714 0.04856,0.01714 0.05713,0 0.131407,-0.07285 0.07427,-0.07427 0.125693,-0.178542 0.05285,-0.104269 0.05285,-0.185684 0,-0.04428 -0.02,-0.07999 -0.01857,-0.03571 -0.03285,-0.03999 -0.02428,-0.01 -0.08427,-0.01 -0.132836,0 -0.235676,0.03285 l -0.0957,0.03142 0.0029,0.09141 q 0.0029,0.09141 0.01571,0.232819 0.0071,0.08427 0.01571,0.112838 0.0086,0.02857 0.02571,0.02999 z"
       style="font-style:normal;font-variant:normal;font-weight:normal;font-stretch:normal;font-size:1.42833495px;line-height:1;font-family:Purisa;-inkscape-font-specification:Purisa;text-align:center;text-anchor:middle;fill:#666666;stroke-width:0.26458332"
       id="path2237" />
    <path
       inkscape:connector-curvature="0"
       d="m 81.302041,73.022419 q 0,-0.109982 0.0057,-0.167116 0.0057,-0.05856 0.01428,-0.07427 0.0086,-0.01571 0.02428,-0.01571 0.01428,0 0.02285,0.01286 0.0086,0.01428 0.05142,0.661319 0.04428,0.647036 0.04428,0.672746 0,0.01857 -0.0086,0.02571 -0.0086,0.0057 -0.02857,0.0057 -0.03428,0 -0.04428,-0.04856 -0.01,-0.04999 -0.02857,-0.309949 -0.02285,-0.314233 -0.04428,-0.561335 -0.0086,-0.09284 -0.0086,-0.201395 z"
       style="font-style:normal;font-variant:normal;font-weight:normal;font-stretch:normal;font-size:1.42833495px;line-height:1;font-family:Purisa;-inkscape-font-specification:Purisa;text-align:center;text-anchor:middle;fill:#666666;stroke-width:0.26458332"
       id="path2239" />
    <path
       inkscape:connector-curvature="0"
       d="m 81.808854,73.522336 q 0.111411,-0.104269 0.187112,-0.13712 0.07713,-0.03428 0.194254,-0.03428 0.177113,0 0.221392,0.105696 0.02714,0.06285 0.02714,0.154261 0,0.151403 -0.06713,0.307092 -0.06713,0.15426 -0.165687,0.21425 -0.0957,0.05856 -0.201395,0.05856 -0.147118,0 -0.235675,-0.101412 -0.06142,-0.07142 -0.07999,-0.11998 -0.01857,-0.04999 -0.01857,-0.141406 0,-0.172828 0.138548,-0.305663 z m 0.229962,0.587045 q 0.11998,0 0.217107,-0.164258 0.09856,-0.165687 0.09856,-0.374224 0,-0.03142 -0.0071,-0.04713 -0.0071,-0.01571 -0.02571,-0.03142 -0.05285,-0.04428 -0.112839,-0.04428 -0.01,0 -0.02285,0.0029 -0.01143,0.0014 -0.03857,0.0057 -0.02714,0.0029 -0.06427,0.0071 -0.04999,0.0071 -0.07999,0.02285 -0.02857,0.01428 -0.07285,0.05571 -0.08427,0.07999 -0.11998,0.148547 -0.03571,0.06713 -0.03571,0.147119 0,0.118552 0.07285,0.194253 0.07427,0.0757 0.191397,0.07713 z"
       style="font-style:normal;font-variant:normal;font-weight:normal;font-stretch:normal;font-size:1.42833495px;line-height:1;font-family:Purisa;-inkscape-font-specification:Purisa;text-align:center;text-anchor:middle;fill:#666666;stroke-width:0.26458332"
       id="path2241" />
    <path
       inkscape:connector-curvature="0"
       d="m 82.853525,73.170965 q 0,-0.05285 -0.01,-0.134263 -0.01,-0.08142 -0.01,-0.135692 0,-0.02714 0.0014,-0.03571 0.0043,-0.02285 0.01571,-0.03571 0.01286,-0.01428 0.02571,-0.01428 0.01714,0 0.02428,0.01571 0.0043,0.01 0.01286,0.105696 0.0086,0.0957 0.01571,0.187112 0.0071,0.09141 0.01,0.09427 0.0014,0.0014 0.0043,0.0014 0.01143,0 0.0657,-0.01143 0.05571,-0.01286 0.09141,-0.01286 0.07142,0 0.07142,0.03142 0,0.03142 -0.157117,0.06999 l -0.07142,0.01714 0.0086,0.241388 q 0.0071,0.212822 0.02714,0.398506 0.02,0.184255 0.02,0.208537 0,0.04428 -0.03285,0.04428 -0.02571,0 -0.04285,-0.04571 -0.01571,-0.04571 -0.01571,-0.118551 0,-0.05285 -0.0043,-0.107125 -0.0043,-0.05571 -0.01571,-0.171401 -0.01,-0.117123 -0.02,-0.23996 -0.0043,-0.0657 -0.0071,-0.101412 -0.0014,-0.03571 -0.0043,-0.05285 -0.0029,-0.01714 -0.0043,-0.02 -0.0014,-0.0043 -0.0057,-0.0043 -0.02285,0 -0.109982,0.01571 -0.08713,0.01571 -0.108553,0.01571 -0.04142,0 -0.04142,-0.03428 0,-0.02428 0.05142,-0.04142 0.05285,-0.01714 0.118552,-0.02999 0.0657,-0.01428 0.08141,-0.02428 0.01571,-0.01143 0.01571,-0.0757 z"
       style="font-style:normal;font-variant:normal;font-weight:normal;font-stretch:normal;font-size:1.42833495px;line-height:1;font-family:Purisa;-inkscape-font-specification:Purisa;text-align:center;text-anchor:middle;fill:#666666;stroke-width:0.26458332"
       id="path2243" />
    <path
       inkscape:connector-curvature="0"
       d="m 83.59559,73.170965 q 0,-0.05285 -0.01,-0.134263 -0.01,-0.08142 -0.01,-0.135692 0,-0.02714 0.0014,-0.03571 0.0043,-0.02285 0.01571,-0.03571 0.01286,-0.01428 0.02571,-0.01428 0.01714,0 0.02428,0.01571 0.0043,0.01 0.01286,0.105696 0.0086,0.0957 0.01571,0.187112 0.0071,0.09141 0.01,0.09427 0.0014,0.0014 0.0043,0.0014 0.01143,0 0.0657,-0.01143 0.05571,-0.01286 0.09141,-0.01286 0.07142,0 0.07142,0.03142 0,0.03142 -0.157117,0.06999 l -0.07142,0.01714 0.0086,0.241388 q 0.0071,0.212822 0.02714,0.398506 0.02,0.184255 0.02,0.208537 0,0.04428 -0.03285,0.04428 -0.02571,0 -0.04285,-0.04571 -0.01571,-0.04571 -0.01571,-0.118551 0,-0.05285 -0.0043,-0.107125 -0.0043,-0.05571 -0.01571,-0.171401 -0.01,-0.117123 -0.02,-0.23996 -0.0043,-0.0657 -0.0071,-0.101412 -0.0014,-0.03571 -0.0043,-0.05285 -0.0029,-0.01714 -0.0043,-0.02 -0.0014,-0.0043 -0.0057,-0.0043 -0.02285,0 -0.109981,0.01571 -0.08713,0.01571 -0.108554,0.01571 -0.04142,0 -0.04142,-0.03428 0,-0.02428 0.05142,-0.04142 0.05285,-0.01714 0.118552,-0.02999 0.0657,-0.01428 0.08141,-0.02428 0.01571,-0.01143 0.01571,-0.0757 z"
       style="font-style:normal;font-variant:normal;font-weight:normal;font-stretch:normal;font-size:1.42833495px;line-height:1;font-family:Purisa;-inkscape-font-specification:Purisa;text-align:center;text-anchor:middle;fill:#666666;stroke-width:0.26458332"
       id="path2245" />
    <path
       inkscape:connector-curvature="0"
       d="m 84.166254,73.349507 q 0.02,-0.01714 0.03428,-0.01714 0.02999,0 0.04285,0.0957 0.01428,0.09427 0.02571,0.364225 0.0057,0.125694 0.0057,0.227105 0,0.101412 -0.0086,0.11141 -0.01714,0.02142 -0.04285,0.02142 -0.03571,0 -0.04428,-0.02999 -0.0071,-0.01857 -0.02142,-0.288523 -0.01428,-0.271384 -0.01428,-0.377081 0,-0.08856 0.02285,-0.107125 z m -0.0086,-0.335658 q 0,-0.02 0.01571,-0.03999 0.01714,-0.02 0.02999,-0.02 0.01428,0 0.03857,0.02 0.02571,0.01857 0.02571,0.04856 0,0.02143 -0.01286,0.03714 -0.01143,0.01428 -0.03142,0.01428 -0.02285,0 -0.04428,-0.01714 -0.02142,-0.01714 -0.02142,-0.04285 z"
       style="font-style:normal;font-variant:normal;font-weight:normal;font-stretch:normal;font-size:1.42833495px;line-height:1;font-family:Purisa;-inkscape-font-specification:Purisa;text-align:center;text-anchor:middle;fill:#666666;stroke-width:0.26458332"
       id="path2247" />
    <path
       inkscape:connector-curvature="0"
       d="m 84.579533,73.390929 q 0,-0.04856 0.02857,-0.04856 0.01857,0 0.02714,0.04285 0.0086,0.04142 0.03142,0.24853 0.02571,0.224248 0.02999,0.234247 0.0057,-0.0057 0.04142,-0.115695 0.03285,-0.10284 0.05142,-0.142834 0.02,-0.04142 0.06856,-0.109982 0.104268,-0.144261 0.161402,-0.144261 0.03714,0 0.06999,0.04999 0.04428,0.0657 0.05428,0.129979 0.01,0.06428 0.01428,0.304235 0.0029,0.15426 0.0029,0.182827 0,0.07142 -0.0057,0.104268 -0.0043,0.03142 -0.01428,0.03857 -0.0086,0.0086 -0.03142,0.01 -0.01286,0 -0.01714,-0.01143 -0.0043,-0.01 -0.0043,-0.04856 0,-0.02142 0.0029,-0.09141 0.0029,-0.07142 0.0029,-0.11998 0,-0.121408 -0.01,-0.237103 -0.0086,-0.117124 -0.02143,-0.149976 -0.0071,-0.01857 -0.02285,-0.03856 -0.01571,-0.02 -0.02999,-0.02 -0.02999,0 -0.0957,0.10284 -0.0657,0.101412 -0.112839,0.21425 -0.04428,0.108553 -0.05999,0.16283 -0.01571,0.05428 -0.02428,0.144262 -0.01571,0.14569 -0.02285,0.14569 -0.01143,0 -0.03285,-0.02428 -0.01571,-0.01571 -0.02143,-0.06713 -0.0057,-0.05285 -0.01571,-0.207109 -0.01,-0.155688 -0.02714,-0.314233 -0.01714,-0.164259 -0.01714,-0.224249 z"
       style="font-style:normal;font-variant:normal;font-weight:normal;font-stretch:normal;font-size:1.42833495px;line-height:1;font-family:Purisa;-inkscape-font-specification:Purisa;text-align:center;text-anchor:middle;fill:#666666;stroke-width:0.26458332"
       id="path2249" />
    <path
       inkscape:connector-curvature="0"
       d="m 86.015211,74.433613 q 0.06999,0 0.06999,-0.06142 0,-0.104268 -0.0086,-0.184255 -0.0071,-0.07856 -0.01857,-0.132835 -0.01,-0.05428 -0.01143,-0.07856 -0.01,-0.14569 -0.02,-0.14569 -0.0057,0 -0.02143,0.02571 -0.03571,0.05285 -0.115695,0.118552 -0.07999,0.0657 -0.132836,0.0857 -0.06142,0.02428 -0.135691,0.02428 -0.04571,0 -0.07285,-0.01143 -0.02571,-0.01143 -0.06856,-0.04856 -0.04142,-0.03714 -0.05856,-0.0657 -0.01714,-0.02857 -0.02714,-0.08142 -0.01,-0.05285 -0.01,-0.08998 0,-0.02714 0.0043,-0.03999 0.01,-0.03857 0.05285,-0.11998 0.04285,-0.08142 0.07856,-0.127122 0.03,-0.03999 0.11141,-0.09284 0.08284,-0.05428 0.14569,-0.07427 0.0657,-0.02143 0.149975,-0.02143 0.105697,0 0.175686,0.03714 0.06999,0.03571 0.06999,0.11141 0,0.04285 -0.02142,0.105697 -0.02,0.06285 -0.02,0.109982 0,0.02428 0.03285,0.472779 l 0.02142,0.295665 -0.04999,0.03999 q -0.03999,0.03285 -0.08142,0.03285 -0.0757,0 -0.184255,-0.03857 -0.108554,-0.03714 -0.187112,-0.08713 -0.07856,-0.04856 -0.07856,-0.07999 0,-0.03714 0.03856,-0.09141 0.03999,-0.05428 0.06713,-0.05428 0.03142,0 0.03142,0.02142 0,0.01286 -0.01286,0.03857 -0.01286,0.02571 -0.01286,0.04999 0,0.03999 0.05285,0.06999 0.05285,0.02999 0.08998,0.02999 0.02143,0 0.06999,0.02857 0.04999,0.02857 0.08713,0.02857 z m -0.542767,-0.648464 q 0,0.08284 0.04285,0.151404 0.04285,0.06856 0.107125,0.06856 0.08713,0 0.187112,-0.07856 0.101412,-0.07999 0.164258,-0.198539 0.03428,-0.06713 0.05856,-0.152832 0.02571,-0.08713 0.02571,-0.13712 0,-0.02857 -0.01,-0.03428 -0.03285,-0.01714 -0.104269,-0.01714 -0.0657,0 -0.112838,0.01428 -0.124265,0.03571 -0.241389,0.167115 -0.117123,0.131407 -0.117123,0.217107 z"
       style="font-style:normal;font-variant:normal;font-weight:normal;font-stretch:normal;font-size:1.42833495px;line-height:1;font-family:Purisa;-inkscape-font-specification:Purisa;text-align:center;text-anchor:middle;fill:#666666;stroke-width:0.26458332"
       id="path2251" />
    <path
       inkscape:connector-curvature="0"
       d="m 67.785863,74.450753 q 0,-0.109981 0.0057,-0.167115 0.0057,-0.05856 0.01428,-0.07427 0.0086,-0.01571 0.02428,-0.01571 0.01428,0 0.02285,0.01286 0.0086,0.01428 0.05142,0.661319 0.04428,0.647036 0.04428,0.672746 0,0.01857 -0.0086,0.02571 -0.0086,0.0057 -0.02857,0.0057 -0.03428,0 -0.04428,-0.04856 -0.01,-0.04999 -0.02857,-0.309949 -0.02285,-0.314233 -0.04428,-0.561335 -0.0086,-0.09284 -0.0086,-0.201396 z"
       style="font-style:normal;font-variant:normal;font-weight:normal;font-stretch:normal;font-size:1.42833495px;line-height:1;font-family:Purisa;-inkscape-font-specification:Purisa;text-align:center;text-anchor:middle;fill:#666666;stroke-width:0.26458332"
       id="path2253" />
    <path
       inkscape:connector-curvature="0"
       d="m 68.236972,74.777842 q 0.02,-0.01714 0.03428,-0.01714 0.02999,0 0.04285,0.0957 0.01428,0.09427 0.02571,0.364225 0.0057,0.125693 0.0057,0.227105 0,0.101412 -0.0086,0.11141 -0.01714,0.02143 -0.04285,0.02143 -0.03571,0 -0.04428,-0.02999 -0.0071,-0.01857 -0.02142,-0.288523 -0.01428,-0.271384 -0.01428,-0.377081 0,-0.08856 0.02285,-0.107125 z m -0.0086,-0.335659 q 0,-0.02 0.01571,-0.03999 0.01714,-0.02 0.02999,-0.02 0.01428,0 0.03857,0.02 0.02571,0.01857 0.02571,0.04856 0,0.02142 -0.01285,0.03714 -0.01143,0.01428 -0.03142,0.01428 -0.02285,0 -0.04428,-0.01714 -0.02142,-0.01714 -0.02142,-0.04285 z"
       style="font-style:normal;font-variant:normal;font-weight:normal;font-stretch:normal;font-size:1.42833495px;line-height:1;font-family:Purisa;-inkscape-font-specification:Purisa;text-align:center;text-anchor:middle;fill:#666666;stroke-width:0.26458332"
       id="path2255" />
    <path
       inkscape:connector-curvature="0"
       d="m 69.147312,74.817836 q 0.02,0 0.04571,0.01286 0.02714,0.01143 0.05713,0.03714 0.02999,0.02428 0.04999,0.0757 0.02,0.04999 0.02,0.117123 0,0.09998 -0.04571,0.208537 -0.04428,0.107126 -0.124265,0.187112 -0.05999,0.05999 -0.158545,0.114267 -0.09713,0.05428 -0.144262,0.05428 -0.04713,0 -0.105697,-0.03285 -0.05856,-0.03285 -0.0657,-0.06142 -0.0043,-0.01571 -0.01571,-0.288524 -0.01143,-0.27424 -0.02999,-0.388507 -0.03857,-0.242817 -0.03857,-0.388507 0,-0.05285 0.02,-0.07285 0.02142,-0.02142 0.03428,-0.02142 0.02143,0 0.02857,0.05285 0.0086,0.05285 0.01714,0.174257 0.0086,0.121408 0.02285,0.212822 0.01857,0.11998 0.02571,0.19711 l 0.0071,0.07856 0.11141,-0.109982 q 0.111411,-0.11141 0.187112,-0.135692 0.07285,-0.02285 0.101412,-0.02285 z m 0.08998,0.249958 q 0,-0.158545 -0.09427,-0.158545 -0.02428,0 -0.06999,0.0086 -0.02999,0.0057 -0.09998,0.06856 -0.06999,0.06142 -0.127122,0.132835 -0.03571,0.04571 -0.05713,0.121409 -0.02,0.0757 -0.02,0.148547 0,0.08142 0.02428,0.11998 0.02428,0.03714 0.05428,0.03714 0.01571,0 0.07142,-0.01714 0.06285,-0.02 0.131407,-0.07999 0.06999,-0.05999 0.121409,-0.138549 0.0657,-0.101412 0.0657,-0.242817 z"
       style="font-style:normal;font-variant:normal;font-weight:normal;font-stretch:normal;font-size:1.42833495px;line-height:1;font-family:Purisa;-inkscape-font-specification:Purisa;text-align:center;text-anchor:middle;fill:#666666;stroke-width:0.26458332"
       id="path2257" />
    <path
       inkscape:connector-curvature="0"
       d="m 69.996167,74.897822 q 0.02428,0 0.04285,0.01571 0.01857,0.01428 0.01857,0.02428 0,0.01714 -0.05428,0.03857 -0.08856,0.03571 -0.181399,0.172828 -0.09141,0.135692 -0.11141,0.262814 -0.02285,0.144262 -0.03714,0.18854 -0.01428,0.04571 -0.03714,0.04571 -0.02,0 -0.03142,-0.01428 -0.01,-0.01428 -0.01428,-0.03142 -0.0029,-0.01714 -0.0071,-0.06285 -0.0014,-0.0086 -0.0014,-0.01286 -0.03428,-0.35994 -0.03428,-0.568477 0,-0.07427 0.0057,-0.09141 0.01571,-0.04571 0.03999,-0.04571 0.02285,0 0.02285,0.03856 0,0.06428 0.02,0.207108 0.02,0.142834 0.02999,0.142834 0.01286,0 0.05285,-0.07856 0.04999,-0.09284 0.132835,-0.161402 0.08427,-0.06999 0.144262,-0.06999 z"
       style="font-style:normal;font-variant:normal;font-weight:normal;font-stretch:normal;font-size:1.42833495px;line-height:1;font-family:Purisa;-inkscape-font-specification:Purisa;text-align:center;text-anchor:middle;fill:#666666;stroke-width:0.26458332"
       id="path2259" />
    <path
       inkscape:connector-curvature="0"
       d="m 70.672327,74.880682 q -0.0657,0 -0.139976,0.02714 -0.07285,0.02714 -0.129979,0.05571 -0.05713,0.02714 -0.08284,0.02714 -0.01714,0 -0.01714,-0.01428 0,-0.02 0.0086,-0.03428 0.0086,-0.01428 0.03142,-0.02714 0.02285,-0.01286 0.04285,-0.02143 0.02142,-0.0086 0.06713,-0.02428 0.04571,-0.01714 0.07856,-0.03142 0.07713,-0.02999 0.129979,-0.02999 0.09427,0 0.147118,0.10284 0.02571,0.04999 0.02999,0.09284 0.0043,0.04142 0.0071,0.235675 0.0014,0.108554 0.0043,0.182827 0.0029,0.07285 0.0057,0.09284 l 0.0029,0.01857 q 0,0.02 -0.01857,0.04285 -0.01714,0.02285 -0.02571,0.02285 -0.02857,0 -0.04428,-0.08998 -0.01571,-0.09141 -0.01714,-0.09141 -0.0043,0 -0.01286,0.01571 -0.02857,0.04713 -0.115695,0.104268 -0.0857,0.05571 -0.144262,0.05571 -0.03571,0 -0.08427,-0.01286 -0.04713,-0.01428 -0.06856,-0.02999 -0.01571,-0.01286 -0.02714,-0.05142 -0.01,-0.03856 -0.01,-0.07856 0,-0.05999 0.03142,-0.10284 0.03285,-0.04428 0.115695,-0.08998 0.08998,-0.05285 0.174257,-0.05285 0.03428,0 0.05713,0.01143 0.02285,0.01143 0.03428,0.02428 0.01143,0.01143 0.01857,0.01143 0.0057,0 0.02714,0.01571 0.02142,0.01428 0.02285,0.01428 0.0057,0 0.0057,-0.03142 0,-0.191397 -0.02714,-0.26567 -0.02571,-0.07427 -0.07713,-0.07427 z m 0.06428,0.442784 q 0,-0.0057 -0.0043,-0.01286 -0.0029,-0.0086 -0.01428,-0.01857 -0.01,-0.01143 -0.02714,-0.02 -0.01571,-0.01 -0.04428,-0.01571 -0.02857,-0.0071 -0.06428,-0.0071 -0.06142,0 -0.108553,0.02142 -0.04571,0.02143 -0.06856,0.05428 -0.02285,0.03285 -0.03428,0.06142 -0.01,0.02714 -0.01,0.04856 0,0.03571 0.0057,0.04856 0.0071,0.01286 0.03285,0.02714 0.03142,0.01571 0.05713,0.01571 0.04856,0 0.11998,-0.03428 0.07285,-0.03571 0.07285,-0.05142 0,-0.01143 0.04285,-0.05428 0.04428,-0.04428 0.04428,-0.06285 z"
       style="font-style:normal;font-variant:normal;font-weight:normal;font-stretch:normal;font-size:1.42833495px;line-height:1;font-family:Purisa;-inkscape-font-specification:Purisa;text-align:center;text-anchor:middle;fill:#666666;stroke-width:0.26458332"
       id="path2261" />
    <path
       inkscape:connector-curvature="0"
       d="m 71.54167,74.897822 q 0.02428,0 0.04285,0.01571 0.01857,0.01428 0.01857,0.02428 0,0.01714 -0.05428,0.03857 -0.08856,0.03571 -0.181399,0.172828 -0.09141,0.135692 -0.11141,0.262814 -0.02285,0.144262 -0.03714,0.18854 -0.01428,0.04571 -0.03714,0.04571 -0.02,0 -0.03142,-0.01428 -0.01,-0.01428 -0.01428,-0.03142 -0.0029,-0.01714 -0.0071,-0.06285 -0.0014,-0.0086 -0.0014,-0.01286 -0.03428,-0.35994 -0.03428,-0.568477 0,-0.07427 0.0057,-0.09141 0.01571,-0.04571 0.03999,-0.04571 0.02285,0 0.02285,0.03856 0,0.06428 0.02,0.207108 0.02,0.142834 0.02999,0.142834 0.01286,0 0.05285,-0.07856 0.04999,-0.09284 0.132835,-0.161402 0.08427,-0.06999 0.144262,-0.06999 z"
       style="font-style:normal;font-variant:normal;font-weight:normal;font-stretch:normal;font-size:1.42833495px;line-height:1;font-family:Purisa;-inkscape-font-specification:Purisa;text-align:center;text-anchor:middle;fill:#666666;stroke-width:0.26458332"
       id="path2263" />
    <path
       inkscape:connector-curvature="0"
       d="m 71.8836,75.180633 q 0,0.11141 0.01,0.165686 0.01,0.05285 0.03857,0.05285 0.02714,0 0.08856,-0.06713 0.06285,-0.06713 0.08856,-0.125693 0.03285,-0.07142 0.05285,-0.171401 0.02,-0.101411 0.03571,-0.15426 0.01571,-0.05285 0.04713,-0.05285 0.01571,0 0.02857,0.01286 0.01286,0.01286 0.01286,0.03285 0,0.02285 -0.03285,0.149975 -0.03142,0.127122 -0.03142,0.267098 0,0.04571 0.0043,0.08713 l 0.01,0.04142 0.04571,-0.02285 q 0.03571,-0.01571 0.05571,-0.01571 0.03714,0 0.03714,0.02714 0,0.03428 -0.05999,0.0657 l -0.05856,0.02999 0.0071,0.159974 q -0.0086,0.252815 -0.01857,0.267098 -0.01,0.01714 -0.03571,0.01714 -0.02999,0 -0.08998,-0.02571 -0.03428,-0.01571 -0.05428,-0.03428 -0.01857,-0.01857 -0.03571,-0.05428 -0.03999,-0.08142 -0.03999,-0.14569 0,-0.02285 0.0043,-0.03571 0.0043,-0.01143 0.02142,-0.03857 0.01714,-0.02571 0.03142,-0.05142 0.01286,-0.02428 0.04142,-0.03999 0.02999,-0.01714 0.03714,-0.02571 0.01143,-0.01143 0.02142,-0.01857 0.01143,-0.0071 0.01428,-0.01 0.0029,-0.0029 0.0029,-0.01 0,-0.01714 -0.0086,-0.06427 -0.0086,-0.04856 -0.02142,-0.04856 -0.0086,0 -0.03857,0.03571 -0.02999,0.03428 -0.0757,0.06999 -0.04571,0.03428 -0.09141,0.03428 -0.05713,0 -0.09427,-0.06713 -0.01857,-0.03428 -0.02428,-0.07856 -0.0043,-0.04428 -0.0043,-0.187112 0.0014,-0.161402 0.01143,-0.219964 0.01143,-0.05999 0.04142,-0.05999 0.01714,0 0.02285,0.02 0.0057,0.01857 0.0057,0.08713 0,0.02714 -0.0014,0.09284 -0.0014,0.0657 -0.0014,0.108554 z m 0.18854,0.567049 q 0,0.02571 0.03856,0.06713 0.03999,0.04285 0.05999,0.04285 0.02143,0 0.02143,-0.09998 -0.0014,-0.02714 -0.01,-0.06713 -0.0071,-0.03999 -0.0086,-0.05571 l -0.0086,-0.0857 -0.03999,0.06142 q -0.05285,0.08284 -0.05285,0.137121 z"
       style="font-style:normal;font-variant:normal;font-weight:normal;font-stretch:normal;font-size:1.42833495px;line-height:1;font-family:Purisa;-inkscape-font-specification:Purisa;text-align:center;text-anchor:middle;fill:#666666;stroke-width:0.26458332"
       id="path2265" />
    <path
       inkscape:connector-curvature="0"
       d="m 73.500297,74.922104 q 0.03999,-0.03571 0.03999,-0.06142 0,-0.02571 0.01571,-0.06142 0.01714,-0.03714 0.04856,-0.03714 0.02,0 0.03428,0.02285 0.01571,0.02143 0.03285,0.02143 0.01286,0 0.105697,-0.02143 0.09284,-0.02285 0.16283,-0.02285 0.05856,0 0.129978,0.01571 0.148547,0.03428 0.148547,0.184255 0,0.114267 -0.08856,0.304236 -0.05856,0.125693 -0.142833,0.194253 -0.08427,0.06713 -0.17997,0.06713 -0.02714,0 -0.04142,-0.0029 l -0.0657,-0.01 0.01571,0.07713 q 0.05142,0.242817 0.05142,0.304235 0,0.02857 -0.01,0.03714 -0.01,0.01 -0.03428,0.01 -0.02571,0 -0.03714,-0.01286 -0.01,-0.01143 -0.02143,-0.04999 -0.0557,-0.199967 -0.08998,-0.597044 -0.01571,-0.195682 -0.02714,-0.238532 -0.01,-0.04428 -0.04142,-0.04428 -0.04571,0 -0.04571,-0.02714 0,-0.01571 0.03999,-0.05142 z m 0.212821,0.474207 q 0.02143,0 0.04999,0.01857 0.02857,0.01714 0.04856,0.01714 0.05713,0 0.131406,-0.07285 0.07427,-0.07427 0.125694,-0.178541 0.05285,-0.104269 0.05285,-0.185684 0,-0.04428 -0.02,-0.07999 -0.01857,-0.03571 -0.03285,-0.03999 -0.02428,-0.01 -0.08427,-0.01 -0.132835,0 -0.235675,0.03285 l -0.0957,0.03142 0.0029,0.09141 q 0.0029,0.09141 0.01571,0.232819 0.0071,0.08427 0.01571,0.112838 0.0086,0.02857 0.02571,0.02999 z"
       style="font-style:normal;font-variant:normal;font-weight:normal;font-stretch:normal;font-size:1.42833495px;line-height:1;font-family:Purisa;-inkscape-font-specification:Purisa;text-align:center;text-anchor:middle;fill:#666666;stroke-width:0.26458332"
       id="path2267" />
    <path
       inkscape:connector-curvature="0"
       d="m 74.527694,74.950671 q 0.11141,-0.104269 0.187112,-0.13712 0.07713,-0.03428 0.194253,-0.03428 0.177114,0 0.221392,0.105696 0.02714,0.06285 0.02714,0.15426 0,0.151404 -0.06713,0.307092 -0.06713,0.154261 -0.165687,0.214251 -0.0957,0.05856 -0.201395,0.05856 -0.147119,0 -0.235676,-0.101411 -0.06142,-0.07142 -0.07999,-0.11998 -0.01857,-0.04999 -0.01857,-0.141406 0,-0.172828 0.138549,-0.305663 z m 0.229962,0.587045 q 0.11998,0 0.217107,-0.164258 0.09856,-0.165687 0.09856,-0.374224 0,-0.03142 -0.0071,-0.04713 -0.0071,-0.01571 -0.02571,-0.03142 -0.05285,-0.04428 -0.112838,-0.04428 -0.01,0 -0.02285,0.0029 -0.01143,0.0014 -0.03857,0.0057 -0.02714,0.0029 -0.06427,0.0071 -0.04999,0.0071 -0.07999,0.02285 -0.02857,0.01428 -0.07285,0.05571 -0.08427,0.07999 -0.11998,0.148547 -0.03571,0.06713 -0.03571,0.147119 0,0.118552 0.07285,0.194253 0.07427,0.0757 0.191397,0.07713 z"
       style="font-style:normal;font-variant:normal;font-weight:normal;font-stretch:normal;font-size:1.42833495px;line-height:1;font-family:Purisa;-inkscape-font-specification:Purisa;text-align:center;text-anchor:middle;fill:#666666;stroke-width:0.26458332"
       id="path2269" />
    <path
       inkscape:connector-curvature="0"
       d="m 75.305266,74.853544 q 0,-0.01286 0.01143,-0.03142 0.01143,-0.02 0.02285,-0.02 0.01571,0 0.03857,0.02857 0.02285,0.02571 0.03285,0.124265 0.01143,0.09713 0.02285,0.118552 0.01,0.01714 0.03428,0.121408 0.02428,0.10284 0.04571,0.19711 0.02285,0.09284 0.02999,0.09284 0.0014,0 0.01571,-0.03999 0.01571,-0.03999 0.03571,-0.09427 0.02,-0.05571 0.02999,-0.09141 0.03714,-0.124265 0.0857,-0.124265 0.02571,0 0.08713,0.06285 0.06285,0.06285 0.0857,0.11141 0.02428,0.05285 0.05142,0.0857 l 0.02428,0.02857 0.01428,-0.04142 q 0.0071,-0.01714 0.05856,-0.275669 0.05285,-0.258528 0.07999,-0.29138 0.0086,-0.01 0.02285,-0.01 0.01428,0 0.02571,0.01143 0.01286,0.01143 0.01286,0.02571 0,0.0043 -0.01,0.03428 -0.0086,0.02857 -0.02571,0.09856 -0.01714,0.06856 -0.03142,0.155689 -0.01857,0.107125 -0.05999,0.2571 -0.03999,0.148547 -0.05428,0.16283 -0.01143,0.01143 -0.03714,0.0057 -0.01571,-0.0029 -0.04999,-0.05571 -0.03428,-0.05428 -0.109982,-0.197111 -0.0086,-0.01571 -0.03571,-0.04428 -0.02571,-0.02999 -0.03428,-0.02999 -0.0071,0 -0.01286,0.0086 -0.0057,0.0086 -0.01714,0.03571 -0.01,0.02571 -0.02142,0.05856 -0.01143,0.03285 -0.03571,0.09713 -0.02428,0.06427 -0.05142,0.131407 -0.02428,0.06999 -0.05856,0.06999 -0.01,0 -0.02,-0.0086 -0.01857,-0.01571 -0.04428,-0.11141 -0.02571,-0.09713 -0.05428,-0.228534 -0.02857,-0.132835 -0.04142,-0.178541 -0.02714,-0.08427 -0.02714,-0.127122 0,-0.03142 -0.01857,-0.07142 -0.01714,-0.03999 -0.01714,-0.05142 z"
       style="font-style:normal;font-variant:normal;font-weight:normal;font-stretch:normal;font-size:1.42833495px;line-height:1;font-family:Purisa;-inkscape-font-specification:Purisa;text-align:center;text-anchor:middle;fill:#666666;stroke-width:0.26458332"
       id="path2271" />
    <path
       inkscape:connector-curvature="0"
       d="m 77.042568,75.284901 q 0.0071,0 0.0071,0.01143 0,0.02571 -0.03856,0.08284 -0.03714,0.05713 -0.07999,0.09427 -0.149976,0.132835 -0.299951,0.132835 -0.05713,0 -0.114267,-0.02571 -0.05571,-0.02714 -0.104268,-0.0757 -0.04856,-0.04856 -0.07856,-0.129979 -0.02999,-0.08142 -0.02999,-0.181398 0,-0.06142 0.01428,-0.104269 0.02857,-0.08713 0.121408,-0.184255 0.09427,-0.09713 0.177114,-0.09713 0.02285,0 0.06856,0.0043 0.06856,0.0057 0.0957,0.01428 0.02857,0.0086 0.06427,0.03571 0.04571,0.03428 0.07856,0.08856 0.03428,0.05285 0.03428,0.08856 0,0.04571 -0.03571,0.06999 -0.03571,0.02285 -0.138549,0.04571 -0.134263,0.02999 -0.262814,0.03714 l -0.132835,0.0071 v 0.05713 q 0,0.105697 0.09856,0.199967 0.07427,0.07142 0.154261,0.07142 0.06142,0 0.129978,-0.03714 0.06999,-0.03857 0.118552,-0.08427 0.04856,-0.04571 0.09284,-0.08284 0.04428,-0.03856 0.05999,-0.03856 z m -0.229962,-0.348514 q -0.04428,-0.03999 -0.06713,-0.04999 -0.02143,-0.01143 -0.05713,-0.01143 -0.07142,0 -0.107125,0.01428 -0.03428,0.01286 -0.06999,0.05428 -0.108553,0.124265 -0.108553,0.165687 0,0.01857 0.03428,0.01857 0.129978,0 0.36851,-0.05428 0.07142,-0.01714 0.07142,-0.05999 0,-0.02 -0.06427,-0.07713 z"
       style="font-style:normal;font-variant:normal;font-weight:normal;font-stretch:normal;font-size:1.42833495px;line-height:1;font-family:Purisa;-inkscape-font-specification:Purisa;text-align:center;text-anchor:middle;fill:#666666;stroke-width:0.26458332"
       id="path2273" />
    <path
       inkscape:connector-curvature="0"
       d="m 77.704154,74.897822 q 0.02428,0 0.04285,0.01571 0.01857,0.01428 0.01857,0.02428 0,0.01714 -0.05428,0.03857 -0.08856,0.03571 -0.181399,0.172828 -0.09141,0.135692 -0.11141,0.262814 -0.02285,0.144262 -0.03714,0.18854 -0.01428,0.04571 -0.03714,0.04571 -0.02,0 -0.03142,-0.01428 -0.01,-0.01428 -0.01428,-0.03142 -0.0029,-0.01714 -0.0071,-0.06285 -0.0014,-0.0086 -0.0014,-0.01286 -0.03428,-0.35994 -0.03428,-0.568477 0,-0.07427 0.0057,-0.09141 0.01571,-0.04571 0.03999,-0.04571 0.02285,0 0.02285,0.03856 0,0.06428 0.02,0.207108 0.02,0.142834 0.02999,0.142834 0.01286,0 0.05285,-0.07856 0.04999,-0.09284 0.132835,-0.161402 0.08427,-0.06999 0.144262,-0.06999 z"
       style="font-style:normal;font-variant:normal;font-weight:normal;font-stretch:normal;font-size:1.42833495px;line-height:1;font-family:Purisa;-inkscape-font-specification:Purisa;text-align:center;text-anchor:middle;fill:#666666;stroke-width:0.26458332"
       id="path2275" />
    <path
       inkscape:connector-curvature="0"
       d="m 78.674551,75.284901 q 0.0071,0 0.0071,0.01143 0,0.02571 -0.03856,0.08284 -0.03714,0.05713 -0.07999,0.09427 -0.149975,0.132835 -0.29995,0.132835 -0.05713,0 -0.114267,-0.02571 -0.0557,-0.02714 -0.104268,-0.0757 -0.04856,-0.04856 -0.07856,-0.129979 -0.02999,-0.08142 -0.02999,-0.181398 0,-0.06142 0.01428,-0.104269 0.02857,-0.08713 0.121408,-0.184255 0.09427,-0.09713 0.177114,-0.09713 0.02285,0 0.06856,0.0043 0.06856,0.0057 0.0957,0.01428 0.02857,0.0086 0.06427,0.03571 0.04571,0.03428 0.07856,0.08856 0.03428,0.05285 0.03428,0.08856 0,0.04571 -0.03571,0.06999 -0.03571,0.02285 -0.138548,0.04571 -0.134264,0.02999 -0.262814,0.03714 l -0.132835,0.0071 v 0.05713 q 0,0.105697 0.09855,0.199967 0.07427,0.07142 0.15426,0.07142 0.06142,0 0.129979,-0.03714 0.06999,-0.03857 0.118552,-0.08427 0.04856,-0.04571 0.09284,-0.08284 0.04428,-0.03856 0.05999,-0.03856 z M 78.44459,74.936387 q -0.04428,-0.03999 -0.06713,-0.04999 -0.02143,-0.01143 -0.05713,-0.01143 -0.07142,0 -0.107125,0.01428 -0.03428,0.01286 -0.06999,0.05428 -0.108554,0.124265 -0.108554,0.165687 0,0.01857 0.03428,0.01857 0.129979,0 0.368511,-0.05428 0.07142,-0.01714 0.07142,-0.05999 0,-0.02 -0.06427,-0.07713 z"
       style="font-style:normal;font-variant:normal;font-weight:normal;font-stretch:normal;font-size:1.42833495px;line-height:1;font-family:Purisa;-inkscape-font-specification:Purisa;text-align:center;text-anchor:middle;fill:#666666;stroke-width:0.26458332"
       id="path2277" />
    <path
       inkscape:connector-curvature="0"
       d="m 79.660371,75.606276 q 0,0.03142 -0.01286,0.04856 -0.01143,0.01857 -0.02142,0.02143 -0.0086,0.0043 -0.01571,0.0043 -0.01857,0 -0.03142,-0.01286 -0.01286,-0.01143 -0.02,-0.04285 -0.0071,-0.02999 -0.01,-0.04571 -0.0014,-0.01571 -0.0057,-0.05856 -0.01,-0.144261 -0.02285,-0.144261 -0.01571,0 -0.04999,0.04142 -0.159973,0.18854 -0.337087,0.18854 -0.05285,0 -0.105697,-0.02 -0.182827,-0.06856 -0.182827,-0.279954 0,-0.09141 0.02999,-0.174257 0.03142,-0.08427 0.07856,-0.141405 0.04856,-0.05713 0.09713,-0.0957 0.04856,-0.03856 0.09284,-0.05428 0.05571,-0.02142 0.07713,-0.02142 0.03714,0 0.124265,0.04856 0.08856,0.04856 0.122836,0.09427 0.03857,0.05142 0.05856,0.05142 0.0014,0 0.0014,0 0,-0.0014 0.0014,-0.0014 0.01571,-0.01 0.01571,-0.372795 0,-0.358512 0.01714,-0.407076 0.01857,-0.04428 0.05571,-0.04428 h 0.03857 l -0.01143,0.587046 q -0.0043,0.218535 -0.0043,0.389935 0,0.232819 0.01,0.332802 0.01,0.09998 0.01,0.108553 z M 79.32614,74.973524 q -0.08427,-0.05571 -0.117123,-0.05571 -0.02857,0 -0.12855,0.09713 -0.09998,0.09713 -0.118552,0.142833 -0.01428,0.03428 -0.01428,0.124265 0,0.109982 0.01857,0.142834 0.01428,0.02571 0.06856,0.0557 0.0557,0.02999 0.109982,0.02999 0.09713,0 0.245673,-0.142833 0.117124,-0.112839 0.117124,-0.147119 0,-0.04713 -0.05999,-0.125693 -0.05856,-0.07856 -0.121409,-0.121409 z"
       style="font-style:normal;font-variant:normal;font-weight:normal;font-stretch:normal;font-size:1.42833495px;line-height:1;font-family:Purisa;-inkscape-font-specification:Purisa;text-align:center;text-anchor:middle;fill:#666666;stroke-width:0.26458332"
       id="path2279" />
    <path
       inkscape:connector-curvature="0"
       d="m 81.366271,74.817836 q 0.02,0 0.04571,0.01286 0.02714,0.01143 0.05713,0.03714 0.02999,0.02428 0.04999,0.0757 0.02,0.04999 0.02,0.117123 0,0.09998 -0.04571,0.208537 -0.04428,0.107126 -0.124265,0.187112 -0.05999,0.05999 -0.158545,0.114267 -0.09713,0.05428 -0.144262,0.05428 -0.04713,0 -0.105697,-0.03285 -0.05856,-0.03285 -0.0657,-0.06142 -0.0043,-0.01571 -0.01571,-0.288524 -0.01143,-0.27424 -0.02999,-0.388507 -0.03857,-0.242817 -0.03857,-0.388507 0,-0.05285 0.02,-0.07285 0.02142,-0.02142 0.03428,-0.02142 0.02142,0 0.02857,0.05285 0.0086,0.05285 0.01714,0.174257 0.0086,0.121408 0.02285,0.212822 0.01857,0.11998 0.02571,0.19711 l 0.0071,0.07856 0.11141,-0.109982 q 0.11141,-0.11141 0.187112,-0.135692 0.07285,-0.02285 0.101412,-0.02285 z m 0.08998,0.249958 q 0,-0.158545 -0.09427,-0.158545 -0.02428,0 -0.06999,0.0086 -0.02999,0.0057 -0.09998,0.06856 -0.06999,0.06142 -0.127122,0.132835 -0.03571,0.04571 -0.05713,0.121409 -0.02,0.0757 -0.02,0.148547 0,0.08142 0.02428,0.11998 0.02428,0.03714 0.05428,0.03714 0.01571,0 0.07142,-0.01714 0.06285,-0.02 0.131407,-0.07999 0.06999,-0.05999 0.121409,-0.138549 0.0657,-0.101412 0.0657,-0.242817 z"
       style="font-style:normal;font-variant:normal;font-weight:normal;font-stretch:normal;font-size:1.42833495px;line-height:1;font-family:Purisa;-inkscape-font-specification:Purisa;text-align:center;text-anchor:middle;fill:#666666;stroke-width:0.26458332"
       id="path2281" />
    <path
       inkscape:connector-curvature="0"
       d="m 81.806622,75.180633 q 0,0.11141 0.01,0.165686 0.01,0.05285 0.03857,0.05285 0.02714,0 0.08856,-0.06713 0.06285,-0.06713 0.08856,-0.125693 0.03285,-0.07142 0.05285,-0.171401 0.02,-0.101411 0.03571,-0.15426 0.01571,-0.05285 0.04713,-0.05285 0.01571,0 0.02857,0.01286 0.01286,0.01286 0.01286,0.03285 0,0.02285 -0.03285,0.149975 -0.03142,0.127122 -0.03142,0.267098 0,0.04571 0.0043,0.08713 l 0.01,0.04142 0.04571,-0.02285 q 0.03571,-0.01571 0.05571,-0.01571 0.03714,0 0.03714,0.02714 0,0.03428 -0.05999,0.0657 l -0.05856,0.02999 0.0071,0.159974 q -0.0086,0.252815 -0.01857,0.267098 -0.01,0.01714 -0.03571,0.01714 -0.02999,0 -0.08999,-0.02571 -0.03428,-0.01571 -0.05428,-0.03428 -0.01857,-0.01857 -0.03571,-0.05428 -0.03999,-0.08142 -0.03999,-0.14569 0,-0.02285 0.0043,-0.03571 0.0043,-0.01143 0.02142,-0.03857 0.01714,-0.02571 0.03142,-0.05142 0.01286,-0.02428 0.04142,-0.03999 0.02999,-0.01714 0.03714,-0.02571 0.01143,-0.01143 0.02142,-0.01857 0.01143,-0.0071 0.01428,-0.01 0.0029,-0.0029 0.0029,-0.01 0,-0.01714 -0.0086,-0.06427 -0.0086,-0.04856 -0.02143,-0.04856 -0.0086,0 -0.03856,0.03571 -0.02999,0.03428 -0.0757,0.06999 -0.04571,0.03428 -0.09141,0.03428 -0.05713,0 -0.09427,-0.06713 -0.01857,-0.03428 -0.02428,-0.07856 -0.0043,-0.04428 -0.0043,-0.187112 0.0014,-0.161402 0.01143,-0.219964 0.01143,-0.05999 0.04142,-0.05999 0.01714,0 0.02285,0.02 0.0057,0.01857 0.0057,0.08713 0,0.02714 -0.0014,0.09284 -0.0014,0.0657 -0.0014,0.108554 z m 0.18854,0.567049 q 0,0.02571 0.03857,0.06713 0.03999,0.04285 0.05999,0.04285 0.02143,0 0.02143,-0.09998 -0.0014,-0.02714 -0.01,-0.06713 -0.0071,-0.03999 -0.0086,-0.05571 l -0.0086,-0.0857 -0.03999,0.06142 q -0.05285,0.08284 -0.05285,0.137121 z"
       style="font-style:normal;font-variant:normal;font-weight:normal;font-stretch:normal;font-size:1.42833495px;line-height:1;font-family:Purisa;-inkscape-font-specification:Purisa;text-align:center;text-anchor:middle;fill:#666666;stroke-width:0.26458332"
       id="path2283" />
    <path
       inkscape:connector-curvature="0"
       d="m 83.526159,75.232053 q 0,0.07427 0.03856,0.138548 0.03999,0.06285 0.09998,0.06285 0.0857,0 0.188541,-0.0757 0.104268,-0.0757 0.168543,-0.191397 0.03714,-0.06713 0.06142,-0.151403 0.02571,-0.08427 0.02571,-0.129979 0,-0.01428 -0.0029,-0.02 -0.02571,-0.01286 -0.09856,-0.01286 -0.06427,0 -0.114267,0.01286 -0.125693,0.03428 -0.247102,0.161401 -0.11998,0.127122 -0.11998,0.205681 z m 0.557051,0.592759 q 0.05285,0 0.05285,-0.04285 0,-0.109982 -0.0071,-0.181399 -0.0071,-0.06999 -0.01857,-0.11998 -0.01,-0.04999 -0.01286,-0.07999 -0.0043,-0.06713 -0.01,-0.104268 -0.03999,0.05285 -0.125694,0.117123 -0.0857,0.06285 -0.14569,0.08427 -0.06999,0.02428 -0.152832,0.02428 -0.05142,0 -0.08427,-0.01143 -0.03142,-0.01143 -0.07856,-0.04999 -0.04428,-0.03714 -0.06428,-0.06856 -0.01857,-0.03285 -0.02857,-0.08427 -0.01,-0.05285 -0.01,-0.08998 0,-0.05713 0.05285,-0.148546 0.05285,-0.09284 0.08998,-0.138549 0.03428,-0.04285 0.124265,-0.09427 0.08999,-0.05285 0.158546,-0.07285 0.07285,-0.02285 0.165686,-0.02285 0.115696,0 0.192826,0.03857 0.07856,0.03857 0.07856,0.122836 0,0.04428 -0.02142,0.105697 -0.02,0.05999 -0.02,0.10284 0,0.02571 0.0029,0.07427 0.0043,0.04713 0.01286,0.159973 0.01,0.11141 0.01714,0.22282 l 0.02143,0.295666 -0.05713,0.04571 q -0.04428,0.03714 -0.09284,0.03714 -0.0857,0 -0.20568,-0.03856 -0.118552,-0.03857 -0.205681,-0.09284 -0.0857,-0.05428 -0.0857,-0.09284 0,-0.04999 0.04713,-0.107126 0.04856,-0.05713 0.08427,-0.05713 0.05428,0 0.05428,0.03999 0,0.01714 -0.01428,0.04285 -0.01428,0.02571 -0.01428,0.04571 0,0.02999 0.04856,0.05571 0.04999,0.02571 0.08427,0.02571 0.02857,0 0.07999,0.02857 0.05285,0.02857 0.08713,0.02857 z"
       style="font-weight:bold;fill:#666666;stroke-width:0.26458332"
       id="path2285" />
    <path
       inkscape:connector-curvature="0"
       d="m 84.557216,74.844974 q 0,-0.07427 0.04713,-0.07427 0.03142,0.0014 0.04142,0.03857 0.01,0.03714 0.02857,0.208536 0.0014,0.01286 0.0014,0.02 0.0014,0.0071 0.0029,0.01857 0.0014,0.01143 0.0029,0.02143 l 0.02,0.16283 0.01571,-0.04713 q 0.02999,-0.09284 0.05142,-0.135692 0.02285,-0.04285 0.08284,-0.121409 0.115695,-0.152831 0.195682,-0.152831 0.05285,0 0.09141,0.05856 0.04571,0.06427 0.05571,0.12855 0.01143,0.06427 0.01571,0.294237 0.0029,0.145691 0.0029,0.177114 0,0.09427 -0.01286,0.12855 -0.01286,0.03285 -0.05285,0.03285 -0.02714,0 -0.03571,-0.01428 -0.0086,-0.01571 -0.0086,-0.06142 0,-0.02142 0.0029,-0.08856 0.0029,-0.06713 0.0029,-0.11141 0,-0.121408 -0.01,-0.227105 -0.01,-0.105697 -0.02285,-0.132835 -0.0057,-0.01143 -0.01428,-0.02142 -0.0086,-0.01143 -0.01571,-0.01714 -0.0057,-0.0057 -0.0086,-0.0057 -0.02285,0 -0.09427,0.0957 -0.06999,0.0957 -0.118551,0.195682 -0.04999,0.105696 -0.06713,0.15426 -0.01571,0.04856 -0.02571,0.131407 -0.01571,0.132835 -0.02571,0.147118 -0.0071,0.0086 -0.01571,0.0086 -0.02142,-0.0029 -0.04571,-0.02999 -0.01286,-0.01428 -0.02,-0.03571 -0.0057,-0.02285 -0.01,-0.06856 -0.0043,-0.04713 -0.0071,-0.09998 -0.0029,-0.05428 -0.01143,-0.155688 -0.0086,-0.10284 -0.02143,-0.212822 -0.01714,-0.1714 -0.01714,-0.208537 z"
       style="font-weight:bold;fill:#666666;stroke-width:0.26458332"
       id="path2287" />
    <path
       inkscape:connector-curvature="0"
       d="m 85.504024,74.822121 q 0.02571,0 0.04571,0.02143 0.02143,0.02142 0.02143,0.0657 0,0.01571 -0.0029,0.04713 -0.0029,0.03142 -0.0029,0.06999 0,0.03714 0.0043,0.134264 0.0043,0.0957 0.01857,0.224249 0.01571,0.12855 0.03857,0.14569 0.0057,0.0043 0.01428,0.0043 0.02857,0 0.09427,-0.05142 0.0857,-0.0657 0.165686,-0.209966 0.08142,-0.144261 0.112839,-0.288523 0.02428,-0.109982 0.04285,-0.144262 0.02,-0.03428 0.05285,-0.03428 0.02571,0 0.03999,0.01571 0.01571,0.01571 0.01571,0.04142 0,0.02 -0.02142,0.159974 -0.02,0.139977 -0.02,0.201395 0,0.08427 0.03571,0.211394 0.03714,0.127121 0.03714,0.14569 -0.0043,0.03142 -0.02714,0.04428 -0.01428,0.0086 -0.03142,0.0086 -0.03714,0 -0.06285,-0.05571 -0.02428,-0.05713 -0.04285,-0.132835 -0.01857,-0.0757 -0.03142,-0.0957 -0.0043,0.0043 -0.01143,0.01428 -0.0057,0.0086 -0.01571,0.02285 -0.0086,0.01285 -0.01571,0.02285 -0.0657,0.09713 -0.152832,0.168543 -0.0857,0.06999 -0.152832,0.06999 -0.10284,0 -0.138548,-0.06427 -0.03571,-0.06427 -0.05856,-0.275668 -0.01,-0.08998 -0.01,-0.237104 0,-0.134263 0.01286,-0.191397 0.01285,-0.05856 0.04571,-0.05856 z"
       style="font-weight:bold;fill:#666666;stroke-width:0.26458332"
       id="path2289" />
    <path
       inkscape:connector-curvature="0"
       d="m 86.362743,74.993521 q 0,-0.02714 0.03999,-0.06142 0.03999,-0.03428 0.03999,-0.05285 0,-0.03142 0.02,-0.07427 0.02,-0.04285 0.06285,-0.04285 0.02857,0 0.04571,0.02285 0.01857,0.02143 0.02571,0.02143 0.01286,0 0.11141,-0.02143 0.09856,-0.02285 0.177114,-0.02285 0.0657,0 0.144262,0.01571 0.165687,0.03571 0.165687,0.195682 0,0.121409 -0.08999,0.302807 -0.06142,0.125694 -0.157116,0.194254 -0.0957,0.06856 -0.205681,0.06856 -0.02857,0 -0.04713,-0.0029 l -0.04285,-0.0057 0.01143,0.04856 q 0.0557,0.234247 0.0557,0.304235 0,0.06142 -0.06427,0.06142 -0.04142,0 -0.06142,-0.02428 -0.02571,-0.03285 -0.05999,-0.199967 -0.03285,-0.165687 -0.05713,-0.4285 -0.0086,-0.09141 -0.01428,-0.141405 -0.0043,-0.05142 -0.01,-0.0757 -0.0057,-0.02571 -0.01,-0.03142 -0.0043,-0.0057 -0.01286,-0.0057 -0.06713,0 -0.06713,-0.04428 z m 0.655606,-0.08284 q -0.01714,-0.0086 -0.08427,-0.0086 -0.138548,0 -0.247102,0.03142 l -0.08998,0.02714 0.0029,0.07856 q 0.0043,0.108554 0.01714,0.232819 0.01428,0.124265 0.02571,0.124265 0.02857,0 0.05999,0.01857 0.03142,0.01714 0.04571,0.01714 0.05428,0 0.12855,-0.06999 0.0757,-0.06999 0.129978,-0.169972 0.05428,-0.101411 0.05428,-0.178542 0,-0.02857 -0.01,-0.05285 -0.01,-0.02571 -0.02,-0.03571 -0.0086,-0.01143 -0.01286,-0.01428 z"
       style="font-weight:bold;fill:#666666;stroke-width:0.26458332"
       id="path2291" />
    <path
       inkscape:connector-curvature="0"
       d="m 87.42547,74.439327 q 0,-0.104269 0.0086,-0.159974 0.0086,-0.05571 0.02,-0.06999 0.01286,-0.01571 0.03428,-0.01571 0.03428,0 0.04142,0.02857 0.0071,0.03 0.02999,0.364225 0.02428,0.334231 0.04428,0.649893 0.02143,0.315662 0.02143,0.322803 0,0.04999 -0.05428,0.04999 -0.04856,0 -0.06285,-0.05856 -0.01286,-0.05999 -0.03285,-0.348513 -0.02285,-0.304236 -0.04142,-0.529913 -0.0086,-0.11998 -0.0086,-0.232818 z"
       style="font-weight:bold;fill:#666666;stroke-width:0.26458332"
       id="path2293" />
    <path
       inkscape:connector-curvature="0"
       d="m 87.977119,74.947814 q 0.119981,-0.10284 0.204252,-0.135692 0.0857,-0.03285 0.214251,-0.03285 0.198538,0 0.24853,0.11141 0.02857,0.06285 0.02857,0.155688 0,0.147119 -0.07142,0.29995 -0.06999,0.152832 -0.178542,0.214251 -0.105697,0.05856 -0.224249,0.05856 -0.174257,0 -0.26567,-0.10284 -0.06427,-0.07142 -0.08427,-0.121408 -0.01857,-0.05142 -0.01857,-0.141405 0,-0.178542 0.147118,-0.305664 z m 0.258529,0.552766 q 0.117123,0 0.215679,-0.148547 0.09998,-0.149975 0.09998,-0.339944 0,-0.02 -0.0043,-0.03142 -0.0029,-0.01143 -0.0071,-0.01571 -0.0043,-0.0057 -0.01571,-0.01428 -0.05142,-0.03714 -0.108554,-0.03714 -0.0086,0 -0.02428,0.0029 -0.01428,0.0014 -0.04428,0.0057 -0.02857,0.0029 -0.06285,0.0057 -0.04713,0.0043 -0.07713,0.01857 -0.02857,0.01286 -0.07427,0.05142 -0.0857,0.07285 -0.122837,0.134263 -0.03571,0.05999 -0.03571,0.131407 0,0.104269 0.07285,0.1714 0.07285,0.0657 0.18854,0.0657 z"
       style="font-weight:bold;fill:#666666;stroke-width:0.26458332"
       id="path2295" />
    <path
       inkscape:connector-curvature="0"
       d="m 89.114252,74.810694 q -0.04571,0.0029 -0.125694,0.01714 -0.07856,0.01286 -0.105696,0.01286 -0.06142,0 -0.06142,-0.04856 0,-0.03857 0.05428,-0.05856 0.05428,-0.02 0.12855,-0.03142 0.0757,-0.01143 0.09713,-0.02285 0.01143,-0.01143 0.01143,-0.06142 0,-0.05142 -0.01286,-0.134264 -0.01286,-0.08284 -0.01286,-0.149975 0,-0.04571 0.02428,-0.06713 0.02428,-0.02285 0.05285,-0.02285 0.03142,0 0.04428,0.02571 0.0071,0.02142 0.02428,0.187112 0.01714,0.164258 0.02142,0.189968 0.01143,-0.0014 0.0757,-0.01143 0.0657,-0.01143 0.09998,-0.01143 0.04856,0 0.06856,0.01571 0.02,0.01571 0.02,0.03428 0,0.02714 -0.03714,0.04571 -0.03714,0.01857 -0.134264,0.04285 l -0.08142,0.01286 0.01143,0.217106 q 0.01143,0.201396 0.03999,0.377081 0.02857,0.175685 0.02857,0.202823 0,0.06285 -0.0657,0.06285 -0.03857,0 -0.05713,-0.01428 -0.04285,-0.03856 -0.04285,-0.161402 0,-0.04999 -0.0057,-0.101412 -0.0057,-0.05285 -0.02,-0.16283 -0.01286,-0.11141 -0.02428,-0.229962 -0.01428,-0.148547 -0.01571,-0.15426 z"
       style="font-weight:bold;fill:#666666;stroke-width:0.26458332"
       id="path2297" />
  </g>
</svg>
