<?xml version="1.0" encoding="UTF-8" standalone="no"?>
<svg
   xmlns:dc="http://purl.org/dc/elements/1.1/"
   xmlns:cc="http://creativecommons.org/ns#"
   xmlns:rdf="http://www.w3.org/1999/02/22-rdf-syntax-ns#"
   xmlns:svg="http://www.w3.org/2000/svg"
   xmlns="http://www.w3.org/2000/svg"
   xmlns:sodipodi="http://sodipodi.sourceforge.net/DTD/sodipodi-0.dtd"
   xmlns:inkscape="http://www.inkscape.org/namespaces/inkscape"
   width="267.5162mm"
   height="50.754025mm"
   viewBox="0 0 267.5162 50.754025"
   version="1.1"
   id="svg8"
   inkscape:version="1.0.1 (0767f8302a, 2020-10-17)"
   sodipodi:docname="warning.svg">
  <defs
     id="defs2" />
  <sodipodi:namedview
     id="base"
     pagecolor="#ffffff"
     bordercolor="#666666"
     borderopacity="1.0"
     inkscape:pageopacity="0.0"
     inkscape:pageshadow="2"
     inkscape:zoom="0.98994949"
     inkscape:cx="-34.164893"
     inkscape:cy="195.75613"
     inkscape:document-units="mm"
     inkscape:current-layer="layer1"
     inkscape:document-rotation="0"
     showgrid="false"
     inkscape:window-width="3840"
     inkscape:window-height="2063"
     inkscape:window-x="3840"
     inkscape:window-y="0"
     inkscape:window-maximized="1" />
  <metadata
     id="metadata5">
    <rdf:RDF>
      <cc:Work
         rdf:about="">
        <dc:format>image/svg+xml</dc:format>
        <dc:type
           rdf:resource="http://purl.org/dc/dcmitype/StillImage" />
        <dc:title></dc:title>
      </cc:Work>
    </rdf:RDF>
  </metadata>
  <g
     inkscape:label="Layer 1"
     inkscape:groupmode="layer"
     id="layer1"
     transform="translate(59.875031,57.852652)">
    <g
       aria-label="Warning! 
sciplot has been completely redesigned and improved.
Check the examples below for the new API.
For the previous version, use release v0.1!"
       id="text835"
       style="font-style:normal;font-weight:normal;font-size:10.5833px;line-height:1.25;font-family:sans-serif;fill:#000000;fill-opacity:1;stroke:none;stroke-width:0.264583">
      <path
         d="m -38.043304,-57.563264 -1.663976,7.524064 h -1.560623 l -1.224728,-5.033268 -1.224727,5.033268 h -1.560624 l -1.674311,-7.524064 h 1.545121 l 1.018022,5.338158 1.240231,-5.338158 h 1.312577 l 1.24023,5.338158 1.012855,-5.338158 z"
         style="font-style:normal;font-variant:normal;font-weight:bold;font-stretch:normal;font-family:Roboto;-inkscape-font-specification:Roboto;fill:#4d4d4d;stroke-width:0.264583"
         id="path869" />
      <path
         d="m -34.224428,-50.0392 q -0.09302,-0.19637 -0.149861,-0.50126 -0.542601,0.604613 -1.410762,0.604613 -0.800982,0 -1.348751,-0.470254 -0.547768,-0.475422 -0.547768,-1.204057 0,-0.878497 0.651121,-1.359086 0.651121,-0.485757 1.927525,-0.485757 h 0.666623 v -0.325561 q 0,-0.387572 -0.201537,-0.614947 -0.19637,-0.232543 -0.625283,-0.232543 -0.800982,0 -0.800982,0.671791 h -1.493444 q 0,-0.728635 0.645953,-1.250566 0.645954,-0.527098 1.731155,-0.527098 0.966346,0 1.601964,0.490925 0.640786,0.490925 0.640786,1.472774 v 2.490796 q 0.01033,0.744138 0.222208,1.152381 v 0.08785 z m -1.235063,-1.038693 q 0.377237,0 0.640786,-0.165364 0.268717,-0.170532 0.382404,-0.372069 v -0.971514 h -0.60978 q -0.594277,0 -0.868161,0.253214 -0.273884,0.248046 -0.273884,0.614947 0,0.279052 0.191202,0.459919 0.19637,0.180867 0.537433,0.180867 z"
         style="font-style:normal;font-variant:normal;font-weight:bold;font-stretch:normal;font-family:Roboto;-inkscape-font-specification:Roboto;fill:#4d4d4d;stroke-width:0.264583"
         id="path871" />
      <path
         d="m -29.175656,-54.276654 q -0.842323,0 -1.105872,0.573607 v 3.663847 h -1.498612 v -5.591372 h 1.410762 l 0.04651,0.666624 q 0.439248,-0.769977 1.245398,-0.769977 0.284219,0 0.459919,0.06718 l -0.0155,1.431432 z"
         style="font-style:normal;font-variant:normal;font-weight:bold;font-stretch:normal;font-family:Roboto;-inkscape-font-specification:Roboto;fill:#4d4d4d;stroke-width:0.264583"
         id="path873" />
      <path
         d="m -25.501473,-54.5247 q -0.635618,0 -0.945676,0.537433 v 3.948067 h -1.493444 v -5.591372 h 1.400427 l 0.05168,0.640786 q 0.599445,-0.744139 1.607132,-0.744139 0.790647,0 1.276404,0.470255 0.485757,0.470254 0.490924,1.638137 v 3.586333 h -1.498611 v -3.565662 q 0,-0.537433 -0.232543,-0.728636 -0.227376,-0.191202 -0.656289,-0.191202 z"
         style="font-style:normal;font-variant:normal;font-weight:bold;font-stretch:normal;font-family:Roboto;-inkscape-font-specification:Roboto;fill:#4d4d4d;stroke-width:0.264583"
         id="path875" />
      <path
         d="m -21.992656,-57.077507 q 0,-0.335896 0.227376,-0.552937 0.227375,-0.222208 0.60978,-0.222208 0.382404,0 0.60978,0.222208 0.227375,0.217041 0.227375,0.552937 0,0.330728 -0.227375,0.552936 -0.227376,0.21704 -0.60978,0.21704 -0.382405,0 -0.60978,-0.21704 -0.227376,-0.222208 -0.227376,-0.552936 z m 1.591629,1.446935 v 5.591372 h -1.498612 v -5.591372 z"
         style="font-style:normal;font-variant:normal;font-weight:bold;font-stretch:normal;font-family:Roboto;-inkscape-font-specification:Roboto;fill:#4d4d4d;stroke-width:0.264583"
         id="path877" />
      <path
         d="m -16.757849,-54.5247 q -0.635618,0 -0.945676,0.537433 v 3.948067 h -1.493444 v -5.591372 h 1.400427 l 0.05168,0.640786 q 0.599445,-0.744139 1.607132,-0.744139 0.790647,0 1.276404,0.470255 0.485757,0.470254 0.490924,1.638137 v 3.586333 h -1.498612 v -3.565662 q 0,-0.537433 -0.232543,-0.728636 -0.227375,-0.191202 -0.656288,-0.191202 z"
         style="font-style:normal;font-variant:normal;font-weight:bold;font-stretch:normal;font-family:Roboto;-inkscape-font-specification:Roboto;fill:#4d4d4d;stroke-width:0.264583"
         id="path879" />
      <path
         d="m -11.032118,-47.837791 q -0.506428,0 -1.116208,-0.211873 -0.604612,-0.211872 -0.966346,-0.661456 l 0.661456,-0.909502 q 0.552936,0.620115 1.359086,0.620115 0.594277,0 0.925005,-0.320393 0.3307284,-0.315225 0.3307284,-0.904334 v -0.299723 q -0.5270984,0.58911 -1.3590854,0.58911 -1.038693,0 -1.643306,-0.795815 -0.604612,-0.795814 -0.614947,-1.994704 v -0.149861 q 0,-1.276404 0.604612,-2.067051 0.60978,-0.790647 1.663976,-0.790647 0.925005,0 1.4366,0.630451 l 0.056844,-0.527098 h 1.3539182 v 5.40017 q 0,1.152381 -0.7493059,1.772496 -0.7441382,0.620115 -1.9430272,0.620115 z m -0.930173,-4.929916 q 0,0.671792 0.273884,1.147213 0.279052,0.470254 0.868161,0.470254 0.682127,0 0.9818494,-0.516762 v -2.346103 Q -10.132951,-54.5247 -10.80991,-54.5247 q -0.583942,0 -0.868162,0.480589 -0.284219,0.475422 -0.284219,1.167884 z"
         style="font-style:normal;font-variant:normal;font-weight:bold;font-stretch:normal;font-family:Roboto;-inkscape-font-specification:Roboto;fill:#4d4d4d;stroke-width:0.264583"
         id="path881" />
      <path
         d="m -5.487256,-57.563264 -0.1705316,5.208967 h -1.2453981 l -0.1705317,-5.208967 z m -1.6278024,6.821267 q 0,-0.335896 0.2273756,-0.563271 0.2273756,-0.232544 0.6097799,-0.232544 0.3824044,0 0.60978,0.232544 0.2273756,0.227375 0.2273756,0.563271 0,0.330728 -0.2273756,0.558104 -0.2273756,0.227375 -0.60978,0.227375 -0.3824043,0 -0.6097799,-0.227375 -0.2273756,-0.227376 -0.2273756,-0.558104 z"
         style="font-style:normal;font-variant:normal;font-weight:bold;font-stretch:normal;font-family:Roboto;-inkscape-font-specification:Roboto;fill:#4d4d4d;stroke-width:0.264583"
         id="path883" />
      <path
         d="m -43.148919,-37.925362 q 0,-0.30489 -0.227376,-0.547769 -0.222208,-0.248046 -1.033525,-0.41341 -0.935341,-0.191202 -1.488277,-0.552936 -0.552936,-0.366902 -0.552936,-1.064531 0,-0.661456 0.563271,-1.147213 0.568439,-0.485757 1.508947,-0.485757 1.00252,0 1.565791,0.511595 0.563272,0.511595 0.563272,1.235063 h -0.956011 q 0,-0.346231 -0.30489,-0.651121 -0.30489,-0.310058 -0.868162,-0.310058 -0.594277,0 -0.852658,0.258381 -0.258381,0.258382 -0.258381,0.563272 0,0.30489 0.237711,0.496092 0.242878,0.186034 1.02319,0.361734 1.028357,0.232543 1.529617,0.60978 0.506428,0.377236 0.506428,1.064531 0,0.73897 -0.594278,1.198889 -0.589109,0.459919 -1.56579,0.459919 -1.11104,0 -1.70015,-0.568439 -0.589109,-0.568439 -0.589109,-1.260901 h 0.961178 q 0.03101,0.594277 0.454752,0.821653 0.428913,0.222208 0.873329,0.222208 0.583941,0 0.893999,-0.227376 0.310058,-0.227375 0.310058,-0.573606 z"
         style="font-style:normal;font-variant:normal;font-weight:normal;font-stretch:normal;font-family:Roboto;-inkscape-font-specification:Roboto;fill:#4d4d4d;stroke-width:0.264583"
         id="path885" />
      <path
         d="m -38.709928,-37.12438 q 0.511595,0 0.894,-0.30489 0.387572,-0.30489 0.423745,-0.780312 h 0.909502 q -0.03617,0.749306 -0.687294,1.312577 -0.651121,0.558104 -1.539953,0.558104 -1.260901,0 -1.875848,-0.831988 -0.60978,-0.831988 -0.60978,-1.95853 v -0.217041 q 0,-1.126542 0.60978,-1.95853 0.614947,-0.831988 1.875848,-0.831988 0.981849,0 1.586462,0.583942 0.604612,0.578774 0.640785,1.441767 h -0.909502 q -0.03617,-0.516762 -0.39274,-0.878496 -0.351398,-0.361734 -0.925005,-0.361734 -0.589109,0 -0.925005,0.299722 -0.330728,0.299723 -0.470254,0.759642 -0.134358,0.459918 -0.134358,0.945675 v 0.217041 q 0,0.490924 0.134358,0.950843 0.134358,0.459919 0.465086,0.759641 0.335896,0.294555 0.930173,0.294555 z"
         style="font-style:normal;font-variant:normal;font-weight:normal;font-stretch:normal;font-family:Roboto;-inkscape-font-specification:Roboto;fill:#4d4d4d;stroke-width:0.264583"
         id="path887" />
      <path
         d="m -35.402647,-43.516735 q 0,-0.232543 0.139526,-0.392739 0.144694,-0.160197 0.423746,-0.160197 0.273884,0 0.418577,0.160197 0.149861,0.160196 0.149861,0.392739 0,0.222208 -0.149861,0.382405 -0.144693,0.155029 -0.418577,0.155029 -0.279052,0 -0.423746,-0.155029 -0.139526,-0.160197 -0.139526,-0.382405 z m 1.033526,1.483109 v 5.591372 H -35.3303 v -5.591372 z"
         style="font-style:normal;font-variant:normal;font-weight:normal;font-stretch:normal;font-family:Roboto;-inkscape-font-specification:Roboto;fill:#4d4d4d;stroke-width:0.264583"
         id="path889" />
      <path
         d="m -30.271193,-36.338901 q -1.007687,0 -1.596797,-0.645953 v 2.692333 h -0.961178 v -7.741105 h 0.878496 l 0.04651,0.614948 q 0.589109,-0.7183 1.617467,-0.7183 1.059363,0 1.622635,0.785479 0.563271,0.785479 0.563271,2.067051 v 0.10852 q 0,1.224727 -0.568439,2.030877 -0.563271,0.80615 -1.601964,0.80615 z m -0.294555,-4.991927 q -0.868161,0 -1.302242,0.769976 v 2.676831 q 0.439248,0.759641 1.312577,0.759641 0.775144,0 1.131711,-0.60978 0.361734,-0.60978 0.361734,-1.441768 v -0.10852 q 0,-0.831988 -0.361734,-1.4366 -0.356567,-0.60978 -1.142046,-0.60978 z"
         style="font-style:normal;font-variant:normal;font-weight:normal;font-stretch:normal;font-family:Roboto;-inkscape-font-specification:Roboto;fill:#4d4d4d;stroke-width:0.264583"
         id="path891" />
      <path
         d="m -25.832203,-44.379728 v 7.937474 h -0.961178 v -7.937474 z"
         style="font-style:normal;font-variant:normal;font-weight:normal;font-stretch:normal;font-family:Roboto;-inkscape-font-specification:Roboto;fill:#4d4d4d;stroke-width:0.264583"
         id="path893" />
      <path
         d="m -24.540295,-39.294783 q 0,-1.214393 0.682127,-2.02571 0.682127,-0.816485 1.855178,-0.816485 1.173051,0 1.855178,0.800982 0.682127,0.795814 0.697629,1.989536 v 0.170532 q 0,1.214392 -0.687294,2.02571 -0.682127,0.811317 -1.855178,0.811317 -1.178219,0 -1.865513,-0.811317 -0.682127,-0.811318 -0.682127,-2.02571 z m 0.956011,0.118855 q 0,0.831988 0.39274,1.441768 0.397907,0.60978 1.198889,0.60978 0.780312,0 1.178219,-0.599445 0.397907,-0.604612 0.403075,-1.4366 v -0.134358 q 0,-0.821653 -0.397907,-1.436601 -0.397908,-0.620115 -1.193722,-0.620115 -0.790647,0 -1.188554,0.620115 -0.39274,0.614948 -0.39274,1.436601 z"
         style="font-style:normal;font-variant:normal;font-weight:normal;font-stretch:normal;font-family:Roboto;-inkscape-font-specification:Roboto;fill:#4d4d4d;stroke-width:0.264583"
         id="path895" />
      <path
         d="m -15.884521,-36.442254 q -0.32556,0.103353 -0.73897,0.103353 -0.532266,0 -0.909502,-0.32556 -0.377237,-0.325561 -0.377237,-1.167884 v -3.467478 h -1.02319 v -0.733803 h 1.02319 v -1.359086 h 0.956011 v 1.359086 h 1.04386 v 0.733803 h -1.04386 v 3.472646 q 0,0.428913 0.186034,0.547768 0.186035,0.118855 0.428913,0.118855 0.180867,0 0.449584,-0.06201 z"
         style="font-style:normal;font-variant:normal;font-weight:normal;font-stretch:normal;font-family:Roboto;-inkscape-font-specification:Roboto;fill:#4d4d4d;stroke-width:0.264583"
         id="path897" />
      <path
         d="m -9.8332299,-41.330828 q -0.4599191,0 -0.8113171,0.248046 -0.351399,0.248046 -0.552936,0.645953 v 3.994575 h -0.956011 v -7.937474 h 0.956011 v 3.012726 q 0.635618,-0.769976 1.6484726,-0.769976 0.8216527,0 1.3022419,0.459919 0.485757,0.459918 0.4909246,1.54512 v 3.689685 h -0.9611786 v -3.674182 q 0,-0.656289 -0.2893871,-0.935341 -0.2842195,-0.279051 -0.8268203,-0.279051 z"
         style="font-style:normal;font-variant:normal;font-weight:normal;font-stretch:normal;font-family:Roboto;-inkscape-font-specification:Roboto;fill:#4d4d4d;stroke-width:0.264583"
         id="path899" />
      <path
         d="m -2.8724371,-36.442254 q -0.093017,-0.201537 -0.1343583,-0.589109 -0.2687166,0.28422 -0.6717915,0.490925 -0.4030749,0.201537 -0.9198376,0.201537 -0.857826,0 -1.3745887,-0.480589 -0.5167627,-0.48059 -0.5167627,-1.178219 0,-0.899167 0.6821268,-1.364254 0.6821267,-0.470254 1.8345075,-0.470254 h 0.9456757 v -0.444416 q 0,-0.496092 -0.2997224,-0.790646 -0.2945547,-0.299723 -0.8784965,-0.299723 -0.5426008,0 -0.8784966,0.268717 -0.3307281,0.263549 -0.3307281,0.614947 h -0.9560109 q 0,-0.599444 0.6046123,-1.126542 0.6046123,-0.527098 1.6174672,-0.527098 0.9095023,0 1.4934441,0.465086 0.5839418,0.465087 0.5839418,1.405595 v 2.511466 q 0,0.775144 0.1963698,1.229895 v 0.08268 z m -1.5864614,-0.733803 q 0.5167626,0 0.8939994,-0.258381 0.3824044,-0.258381 0.5374332,-0.573606 v -1.152381 h -0.8888318 q -1.6122996,0.03101 -1.6122996,1.033525 0,0.397907 0.2687166,0.676959 0.2687166,0.273884 0.8009822,0.273884 z"
         style="font-style:normal;font-variant:normal;font-weight:normal;font-stretch:normal;font-family:Roboto;-inkscape-font-specification:Roboto;fill:#4d4d4d;stroke-width:0.264583"
         id="path901" />
      <path
         d="m 2.6982638,-37.925362 q 0,-0.30489 -0.2273755,-0.547769 -0.222208,-0.248046 -1.0335254,-0.41341 -0.93534045,-0.191202 -1.48827651,-0.552936 -0.55293607,-0.366902 -0.55293607,-1.064531 0,-0.661456 0.56327132,-1.147213 0.56843895,-0.485757 1.50894706,-0.485757 1.0025196,0 1.5657909,0.511595 0.5632713,0.511595 0.5632713,1.235063 h -0.956011 q 0,-0.346231 -0.3048899,-0.651121 -0.30489,-0.310058 -0.8681613,-0.310058 -0.59427712,0 -0.85265846,0.258381 -0.25838134,0.258382 -0.25838134,0.563272 0,0.30489 0.23771084,0.496092 0.24287845,0.186034 1.02319006,0.361734 1.0283578,0.232543 1.5296176,0.60978 0.5064274,0.377236 0.5064274,1.064531 0,0.73897 -0.5942771,1.198889 -0.5891094,0.459919 -1.5657909,0.459919 -1.11103976,0 -1.70014921,-0.568439 -0.58910946,-0.568439 -0.58910946,-1.260901 h 0.96117858 q 0.0310058,0.594277 0.45475116,0.821653 0.42891303,0.222208 0.87332893,0.222208 0.5839418,0 0.8939994,-0.227376 0.3100576,-0.227375 0.3100576,-0.573606 z"
         style="font-style:normal;font-variant:normal;font-weight:normal;font-stretch:normal;font-family:Roboto;-inkscape-font-specification:Roboto;fill:#4d4d4d;stroke-width:0.264583"
         id="path903" />
      <path
         d="m 12.258374,-39.175928 q 0,1.224727 -0.568439,2.030877 -0.568439,0.80615 -1.607132,0.80615 -1.0593637,0 -1.6329703,-0.749306 l -0.051676,0.645953 H 7.5196599 v -7.937474 h 0.9611786 v 2.950715 q 0.5684389,-0.707965 1.5916295,-0.707965 1.054195,0 1.617467,0.785479 0.568439,0.785479 0.568439,2.067051 z m -2.4236173,-2.1549 q -0.5219303,0 -0.8474908,0.253213 -0.3255605,0.248046 -0.5064274,0.614948 v 2.433952 q 0.1860346,0.372069 0.5167627,0.625283 0.3307281,0.253214 0.8474908,0.253214 0.775144,0 1.11104,-0.594277 0.341063,-0.599445 0.341063,-1.431433 v -0.10852 q 0,-0.831988 -0.32556,-1.4366 -0.320393,-0.60978 -1.1368783,-0.60978 z"
         style="font-style:normal;font-variant:normal;font-weight:normal;font-stretch:normal;font-family:Roboto;-inkscape-font-specification:Roboto;fill:#4d4d4d;stroke-width:0.264583"
         id="path905" />
      <path
         d="m 17.901422,-37.418935 q -0.273884,0.41341 -0.775144,0.749306 -0.50126,0.330728 -1.32808,0.330728 -1.167884,0 -1.870681,-0.759641 -0.69763,-0.759641 -0.69763,-1.943028 v -0.21704 q 0,-0.91467 0.346231,-1.555456 0.351399,-0.645953 0.909503,-0.981849 0.558103,-0.341063 1.188554,-0.341063 1.198889,0 1.746658,0.785479 0.552936,0.780312 0.552936,1.953363 v 0.428913 h -3.782703 q 0.02067,0.769976 0.454751,1.312577 0.439248,0.537433 1.204057,0.537433 0.506428,0 0.857826,-0.206705 0.351399,-0.206705 0.614948,-0.552936 z m -2.227247,-3.932564 q -0.568439,0 -0.961179,0.41341 -0.392739,0.41341 -0.490924,1.188554 h 2.795686 v -0.07235 q -0.03617,-0.558104 -0.325561,-1.043861 -0.284219,-0.485757 -1.018022,-0.485757 z"
         style="font-style:normal;font-variant:normal;font-weight:normal;font-stretch:normal;font-family:Roboto;-inkscape-font-specification:Roboto;fill:#4d4d4d;stroke-width:0.264583"
         id="path907" />
      <path
         d="m 23.523801,-37.418935 q -0.273884,0.41341 -0.775144,0.749306 -0.50126,0.330728 -1.32808,0.330728 -1.167883,0 -1.870681,-0.759641 -0.697629,-0.759641 -0.697629,-1.943028 v -0.21704 q 0,-0.91467 0.346231,-1.555456 0.351398,-0.645953 0.909502,-0.981849 0.558104,-0.341063 1.188554,-0.341063 1.19889,0 1.746658,0.785479 0.552936,0.780312 0.552936,1.953363 v 0.428913 h -3.782703 q 0.02067,0.769976 0.454751,1.312577 0.439249,0.537433 1.204057,0.537433 0.506428,0 0.857827,-0.206705 0.351398,-0.206705 0.614947,-0.552936 z m -2.227247,-3.932564 q -0.568439,0 -0.961178,0.41341 -0.39274,0.41341 -0.490925,1.188554 h 2.795686 v -0.07235 q -0.03617,-0.558104 -0.32556,-1.043861 -0.28422,-0.485757 -1.018023,-0.485757 z"
         style="font-style:normal;font-variant:normal;font-weight:normal;font-stretch:normal;font-family:Roboto;-inkscape-font-specification:Roboto;fill:#4d4d4d;stroke-width:0.264583"
         id="path909" />
      <path
         d="m 27.042953,-41.330828 q -0.459919,0 -0.811318,0.248046 -0.351398,0.248046 -0.552936,0.645953 v 3.994575 h -0.956011 v -5.591372 h 0.904335 l 0.03101,0.69763 q 0.635618,-0.800982 1.669143,-0.800982 0.821653,0 1.302242,0.459919 0.485757,0.459918 0.490925,1.54512 v 3.689685 H 28.15916 v -3.674182 q 0,-0.656289 -0.289387,-0.935341 -0.28422,-0.279051 -0.82682,-0.279051 z"
         style="font-style:normal;font-variant:normal;font-weight:normal;font-stretch:normal;font-family:Roboto;-inkscape-font-specification:Roboto;fill:#4d4d4d;stroke-width:0.264583"
         id="path911" />
      <path
         d="m 35.435178,-37.12438 q 0.511595,0 0.893999,-0.30489 0.387572,-0.30489 0.423745,-0.780312 h 0.909503 q -0.03617,0.749306 -0.687295,1.312577 -0.651121,0.558104 -1.539952,0.558104 -1.260901,0 -1.875849,-0.831988 -0.60978,-0.831988 -0.60978,-1.95853 v -0.217041 q 0,-1.126542 0.60978,-1.95853 0.614948,-0.831988 1.875849,-0.831988 0.981849,0 1.586461,0.583942 0.604612,0.578774 0.640786,1.441767 h -0.909503 q -0.03617,-0.516762 -0.392739,-0.878496 -0.351399,-0.361734 -0.925005,-0.361734 -0.58911,0 -0.925006,0.299722 -0.330728,0.299723 -0.470254,0.759642 -0.134358,0.459918 -0.134358,0.945675 v 0.217041 q 0,0.490924 0.134358,0.950843 0.134359,0.459919 0.465087,0.759641 0.335895,0.294555 0.930173,0.294555 z"
         style="font-style:normal;font-variant:normal;font-weight:normal;font-stretch:normal;font-family:Roboto;-inkscape-font-specification:Roboto;fill:#4d4d4d;stroke-width:0.264583"
         id="path913" />
      <path
         d="m 38.484077,-39.294783 q 0,-1.214393 0.682127,-2.02571 0.682127,-0.816485 1.855178,-0.816485 1.173051,0 1.855178,0.800982 0.682127,0.795814 0.69763,1.989536 v 0.170532 q 0,1.214392 -0.687295,2.02571 -0.682127,0.811317 -1.855178,0.811317 -1.178219,0 -1.865513,-0.811317 -0.682127,-0.811318 -0.682127,-2.02571 z m 0.956011,0.118855 q 0,0.831988 0.39274,1.441768 0.397907,0.60978 1.198889,0.60978 0.780312,0 1.178219,-0.599445 0.397907,-0.604612 0.403075,-1.4366 v -0.134358 q 0,-0.821653 -0.397907,-1.436601 -0.397908,-0.620115 -1.193722,-0.620115 -0.790647,0 -1.188554,0.620115 -0.39274,0.614948 -0.39274,1.436601 z"
         style="font-style:normal;font-variant:normal;font-weight:normal;font-stretch:normal;font-family:Roboto;-inkscape-font-specification:Roboto;fill:#4d4d4d;stroke-width:0.264583"
         id="path915" />
      <path
         d="m 47.010663,-41.330828 q -0.940508,0 -1.286739,0.790646 v 4.097928 h -0.961179 v -5.591372 h 0.909502 l 0.02584,0.60978 q 0.604612,-0.713132 1.65364,-0.713132 0.537433,0 0.956011,0.21704 0.423746,0.211873 0.645953,0.682127 0.279052,-0.403075 0.723468,-0.651121 0.449584,-0.248046 1.054196,-0.248046 0.899167,0 1.384924,0.480589 0.490925,0.480589 0.490925,1.539953 v 3.674182 h -0.961179 v -3.684517 q 0,-0.702798 -0.32556,-0.950844 -0.320393,-0.253213 -0.868162,-0.253213 -0.578774,0 -0.909502,0.346231 -0.330728,0.341063 -0.382404,0.831987 v 3.710356 h -0.956011 v -3.67935 q 0,-0.656288 -0.325561,-0.930173 -0.32556,-0.279051 -0.868161,-0.279051 z"
         style="font-style:normal;font-variant:normal;font-weight:normal;font-stretch:normal;font-family:Roboto;-inkscape-font-specification:Roboto;fill:#4d4d4d;stroke-width:0.264583"
         id="path917" />
      <path
         d="m 56.606947,-36.338901 q -1.007687,0 -1.596796,-0.645953 v 2.692333 h -0.961179 v -7.741105 h 0.878497 l 0.04651,0.614948 q 0.58911,-0.7183 1.617467,-0.7183 1.059364,0 1.622635,0.785479 0.563272,0.785479 0.563272,2.067051 v 0.10852 q 0,1.224727 -0.568439,2.030877 -0.563272,0.80615 -1.601965,0.80615 z m -0.294554,-4.991927 q -0.868162,0 -1.302242,0.769976 v 2.676831 q 0.439248,0.759641 1.312577,0.759641 0.775144,0 1.13171,-0.60978 0.361734,-0.60978 0.361734,-1.441768 v -0.10852 q 0,-0.831988 -0.361734,-1.4366 -0.356566,-0.60978 -1.142045,-0.60978 z"
         style="font-style:normal;font-variant:normal;font-weight:normal;font-stretch:normal;font-family:Roboto;-inkscape-font-specification:Roboto;fill:#4d4d4d;stroke-width:0.264583"
         id="path919" />
      <path
         d="m 61.045942,-44.379728 v 7.937474 h -0.961178 v -7.937474 z"
         style="font-style:normal;font-variant:normal;font-weight:normal;font-stretch:normal;font-family:Roboto;-inkscape-font-specification:Roboto;fill:#4d4d4d;stroke-width:0.264583"
         id="path921" />
      <path
         d="m 67.014547,-37.418935 q -0.273884,0.41341 -0.775144,0.749306 -0.50126,0.330728 -1.32808,0.330728 -1.167884,0 -1.870681,-0.759641 -0.69763,-0.759641 -0.69763,-1.943028 v -0.21704 q 0,-0.91467 0.346231,-1.555456 0.351399,-0.645953 0.909503,-0.981849 0.558103,-0.341063 1.188554,-0.341063 1.198889,0 1.746658,0.785479 0.552936,0.780312 0.552936,1.953363 v 0.428913 h -3.782703 q 0.02067,0.769976 0.454751,1.312577 0.439248,0.537433 1.204057,0.537433 0.506427,0 0.857826,-0.206705 0.351399,-0.206705 0.614948,-0.552936 z M 64.7873,-41.351499 q -0.568439,0 -0.961179,0.41341 -0.39274,0.41341 -0.490924,1.188554 h 2.795686 v -0.07235 q -0.03617,-0.558104 -0.325561,-1.043861 -0.284219,-0.485757 -1.018022,-0.485757 z"
         style="font-style:normal;font-variant:normal;font-weight:normal;font-stretch:normal;font-family:Roboto;-inkscape-font-specification:Roboto;fill:#4d4d4d;stroke-width:0.264583"
         id="path923" />
      <path
         d="m 70.580207,-36.442254 q -0.325561,0.103353 -0.738971,0.103353 -0.532265,0 -0.909502,-0.32556 -0.377237,-0.325561 -0.377237,-1.167884 v -3.467478 h -1.02319 v -0.733803 h 1.02319 v -1.359086 h 0.956011 v 1.359086 h 1.043861 v 0.733803 h -1.043861 v 3.472646 q 0,0.428913 0.186035,0.547768 0.186034,0.118855 0.428913,0.118855 0.180867,0 0.449583,-0.06201 z"
         style="font-style:normal;font-variant:normal;font-weight:normal;font-stretch:normal;font-family:Roboto;-inkscape-font-specification:Roboto;fill:#4d4d4d;stroke-width:0.264583"
         id="path925" />
      <path
         d="m 76.109571,-37.418935 q -0.273884,0.41341 -0.775144,0.749306 -0.50126,0.330728 -1.32808,0.330728 -1.167884,0 -1.870681,-0.759641 -0.69763,-0.759641 -0.69763,-1.943028 v -0.21704 q 0,-0.91467 0.346231,-1.555456 0.351399,-0.645953 0.909503,-0.981849 0.558103,-0.341063 1.188554,-0.341063 1.198889,0 1.746658,0.785479 0.552936,0.780312 0.552936,1.953363 v 0.428913 h -3.782703 q 0.02067,0.769976 0.454751,1.312577 0.439248,0.537433 1.204057,0.537433 0.506428,0 0.857826,-0.206705 0.351399,-0.206705 0.614948,-0.552936 z m -2.227247,-3.932564 q -0.568439,0 -0.961179,0.41341 -0.392739,0.41341 -0.490924,1.188554 h 2.795686 v -0.07235 q -0.03617,-0.558104 -0.325561,-1.043861 -0.284219,-0.485757 -1.018022,-0.485757 z"
         style="font-style:normal;font-variant:normal;font-weight:normal;font-stretch:normal;font-family:Roboto;-inkscape-font-specification:Roboto;fill:#4d4d4d;stroke-width:0.264583"
         id="path927" />
      <path
         d="m 78.347151,-44.379728 v 7.937474 h -0.961179 v -7.937474 z"
         style="font-style:normal;font-variant:normal;font-weight:normal;font-stretch:normal;font-family:Roboto;-inkscape-font-specification:Roboto;fill:#4d4d4d;stroke-width:0.264583"
         id="path929" />
      <path
         d="m 81.799129,-35.57926 q -0.496092,1.312577 -1.498612,1.390092 l -0.160196,0.0052 q -0.30489,0 -0.537434,-0.08268 l -0.0052,-0.775144 0.258381,0.02067 q 0.485757,0 0.759641,-0.201538 0.273884,-0.196369 0.449584,-0.713132 l 0.206705,-0.568439 -1.994704,-5.529361 h 1.04386 l 1.400427,4.185778 1.297075,-4.185778 h 1.02319 z"
         style="font-style:normal;font-variant:normal;font-weight:normal;font-stretch:normal;font-family:Roboto;-inkscape-font-specification:Roboto;fill:#4d4d4d;stroke-width:0.264583"
         id="path931" />
      <path
         d="m 89.7521,-41.217141 q -0.93534,0 -1.276404,0.80615 v 3.968737 h -0.956011 v -5.591372 h 0.930173 l 0.02067,0.640786 q 0.459918,-0.744138 1.32808,-0.744138 0.268716,0 0.423745,0.07235 l -0.0052,0.888831 q -0.211873,-0.04134 -0.465087,-0.04134 z"
         style="font-style:normal;font-variant:normal;font-weight:normal;font-stretch:normal;font-family:Roboto;-inkscape-font-specification:Roboto;fill:#4d4d4d;stroke-width:0.264583"
         id="path933" />
      <path
         d="m 95.436491,-37.418935 q -0.273885,0.41341 -0.775145,0.749306 -0.501259,0.330728 -1.32808,0.330728 -1.167883,0 -1.87068,-0.759641 -0.69763,-0.759641 -0.69763,-1.943028 v -0.21704 q 0,-0.91467 0.346231,-1.555456 0.351399,-0.645953 0.909502,-0.981849 0.558104,-0.341063 1.188554,-0.341063 1.19889,0 1.746658,0.785479 0.552936,0.780312 0.552936,1.953363 v 0.428913 h -3.782703 q 0.02067,0.769976 0.454752,1.312577 0.439248,0.537433 1.204057,0.537433 0.506427,0 0.857826,-0.206705 0.351398,-0.206705 0.614947,-0.552936 z m -2.227248,-3.932564 q -0.568439,0 -0.961178,0.41341 -0.39274,0.41341 -0.490925,1.188554 h 2.795686 v -0.07235 q -0.03617,-0.558104 -0.32556,-1.043861 -0.28422,-0.485757 -1.018023,-0.485757 z"
         style="font-style:normal;font-variant:normal;font-weight:normal;font-stretch:normal;font-family:Roboto;-inkscape-font-specification:Roboto;fill:#4d4d4d;stroke-width:0.264583"
         id="path935" />
      <path
         d="m 100.24238,-36.442254 -0.0465,-0.599444 q -0.573604,0.702797 -1.596794,0.702797 -0.981849,0 -1.586462,-0.795815 -0.604612,-0.795814 -0.614947,-1.999871 v -0.149861 q 0,-1.281572 0.604612,-2.067051 0.60978,-0.785479 1.607132,-0.785479 0.987017,0 1.550289,0.661456 v -2.904206 h 0.96118 v 7.937474 z m -2.883535,-2.733674 q 0,0.831988 0.351399,1.431433 0.351398,0.594277 1.126542,0.594277 0.888832,0 1.322914,-0.811318 v -2.573478 q -0.428914,-0.795814 -1.312578,-0.795814 -0.780312,0 -1.136878,0.60978 -0.351399,0.604612 -0.351399,1.4366 z"
         style="font-style:normal;font-variant:normal;font-weight:normal;font-stretch:normal;font-family:Roboto;-inkscape-font-specification:Roboto;fill:#4d4d4d;stroke-width:0.264583"
         id="path937" />
      <path
         d="m 107.03265,-37.418935 q -0.27388,0.41341 -0.77514,0.749306 -0.50126,0.330728 -1.32808,0.330728 -1.16789,0 -1.87068,-0.759641 -0.69763,-0.759641 -0.69763,-1.943028 v -0.21704 q 0,-0.91467 0.34623,-1.555456 0.3514,-0.645953 0.9095,-0.981849 0.5581,-0.341063 1.18855,-0.341063 1.19889,0 1.74666,0.785479 0.55294,0.780312 0.55294,1.953363 v 0.428913 h -3.7827 q 0.0207,0.769976 0.45475,1.312577 0.43924,0.537433 1.20405,0.537433 0.50643,0 0.85783,-0.206705 0.3514,-0.206705 0.61495,-0.552936 z m -2.22725,-3.932564 q -0.56843,0 -0.96117,0.41341 -0.39274,0.41341 -0.49093,1.188554 h 2.79569 v -0.07235 q -0.0362,-0.558104 -0.32556,-1.043861 -0.28422,-0.485757 -1.01803,-0.485757 z"
         style="font-style:normal;font-variant:normal;font-weight:normal;font-stretch:normal;font-family:Roboto;-inkscape-font-specification:Roboto;fill:#4d4d4d;stroke-width:0.264583"
         id="path939" />
      <path
         d="m 111.48714,-37.925362 q 0,-0.30489 -0.22737,-0.547769 -0.22221,-0.248046 -1.03353,-0.41341 -0.93534,-0.191202 -1.48827,-0.552936 -0.55294,-0.366902 -0.55294,-1.064531 0,-0.661456 0.56327,-1.147213 0.56844,-0.485757 1.50895,-0.485757 1.00252,0 1.56579,0.511595 0.56327,0.511595 0.56327,1.235063 h -0.95601 q 0,-0.346231 -0.30489,-0.651121 -0.30489,-0.310058 -0.86816,-0.310058 -0.59428,0 -0.85266,0.258381 -0.25838,0.258382 -0.25838,0.563272 0,0.30489 0.23771,0.496092 0.24288,0.186034 1.02319,0.361734 1.02836,0.232543 1.52962,0.60978 0.50642,0.377236 0.50642,1.064531 0,0.73897 -0.59427,1.198889 -0.58911,0.459919 -1.56579,0.459919 -1.11104,0 -1.70015,-0.568439 -0.58911,-0.568439 -0.58911,-1.260901 h 0.96118 q 0.031,0.594277 0.45475,0.821653 0.42891,0.222208 0.87333,0.222208 0.58394,0 0.894,-0.227376 0.31005,-0.227375 0.31005,-0.573606 z"
         style="font-style:normal;font-variant:normal;font-weight:normal;font-stretch:normal;font-family:Roboto;-inkscape-font-specification:Roboto;fill:#4d4d4d;stroke-width:0.264583"
         id="path941" />
      <path
         d="m 113.69372,-43.516735 q 0,-0.232543 0.13953,-0.392739 0.14469,-0.160197 0.42374,-0.160197 0.27389,0 0.41858,0.160197 0.14986,0.160196 0.14986,0.392739 0,0.222208 -0.14986,0.382405 -0.14469,0.155029 -0.41858,0.155029 -0.27905,0 -0.42374,-0.155029 -0.13953,-0.160197 -0.13953,-0.382405 z m 1.03353,1.483109 v 5.591372 h -0.96118 v -5.591372 z"
         style="font-style:normal;font-variant:normal;font-weight:normal;font-stretch:normal;font-family:Roboto;-inkscape-font-specification:Roboto;fill:#4d4d4d;stroke-width:0.264583"
         id="path943" />
      <path
         d="m 118.39627,-34.235677 q -0.43409,0 -1.06454,-0.211873 -0.63045,-0.211872 -1.00768,-0.759641 l 0.50126,-0.568439 q 0.62011,0.754474 1.49861,0.754474 0.67696,0 1.08003,-0.382405 0.40308,-0.377236 0.40308,-1.111039 v -0.490925 q -0.56844,0.666624 -1.56579,0.666624 -1.00769,0 -1.60197,-0.80615 -0.59427,-0.80615 -0.59427,-2.030877 v -0.10852 q 0,-1.281572 0.5891,-2.067051 0.59428,-0.785479 1.61747,-0.785479 1.02836,0 1.5968,0.723468 l 0.0465,-0.620116 h 0.86816 v 5.472517 q 0,1.11104 -0.66146,1.715652 -0.66145,0.60978 -1.70531,0.60978 z m -1.39526,-4.940251 q 0,0.831988 0.34623,1.431433 0.3514,0.594277 1.12654,0.594277 0.9095,0 1.33325,-0.826821 v -2.54764 q -0.18087,-0.346231 -0.50126,-0.573606 -0.3204,-0.232543 -0.82165,-0.232543 -0.78032,0 -1.13172,0.60978 -0.35139,0.604612 -0.35139,1.4366 z"
         style="font-style:normal;font-variant:normal;font-weight:normal;font-stretch:normal;font-family:Roboto;-inkscape-font-specification:Roboto;fill:#4d4d4d;stroke-width:0.264583"
         id="path945" />
      <path
         d="m 124.54573,-41.330828 q -0.45992,0 -0.81132,0.248046 -0.3514,0.248046 -0.55293,0.645953 v 3.994575 h -0.95601 v -5.591372 h 0.90433 l 0.031,0.69763 q 0.63561,-0.800982 1.66914,-0.800982 0.82165,0 1.30224,0.459919 0.48576,0.459918 0.49093,1.54512 v 3.689685 h -0.96118 v -3.674182 q 0,-0.656289 -0.28939,-0.935341 -0.28422,-0.279051 -0.82682,-0.279051 z"
         style="font-style:normal;font-variant:normal;font-weight:normal;font-stretch:normal;font-family:Roboto;-inkscape-font-specification:Roboto;fill:#4d4d4d;stroke-width:0.264583"
         id="path947" />
      <path
         d="m 132.49872,-37.418935 q -0.27389,0.41341 -0.77515,0.749306 -0.50126,0.330728 -1.32808,0.330728 -1.16788,0 -1.87068,-0.759641 -0.69763,-0.759641 -0.69763,-1.943028 v -0.21704 q 0,-0.91467 0.34623,-1.555456 0.3514,-0.645953 0.9095,-0.981849 0.55811,-0.341063 1.18856,-0.341063 1.19889,0 1.74666,0.785479 0.55293,0.780312 0.55293,1.953363 v 0.428913 h -3.7827 q 0.0207,0.769976 0.45475,1.312577 0.43925,0.537433 1.20406,0.537433 0.50643,0 0.85782,-0.206705 0.3514,-0.206705 0.61495,-0.552936 z m -2.22725,-3.932564 q -0.56844,0 -0.96118,0.41341 -0.39274,0.41341 -0.49092,1.188554 h 2.79568 v -0.07235 q -0.0362,-0.558104 -0.32556,-1.043861 -0.28422,-0.485757 -1.01802,-0.485757 z"
         style="font-style:normal;font-variant:normal;font-weight:normal;font-stretch:normal;font-family:Roboto;-inkscape-font-specification:Roboto;fill:#4d4d4d;stroke-width:0.264583"
         id="path949" />
      <path
         d="m 137.30461,-36.442254 -0.0465,-0.599444 q -0.57361,0.702797 -1.5968,0.702797 -0.98185,0 -1.58646,-0.795815 -0.60461,-0.795814 -0.61495,-1.999871 v -0.149861 q 0,-1.281572 0.60461,-2.067051 0.60978,-0.785479 1.60714,-0.785479 0.98701,0 1.55028,0.661456 v -2.904206 h 0.96118 v 7.937474 z m -2.88354,-2.733674 q 0,0.831988 0.3514,1.431433 0.3514,0.594277 1.12654,0.594277 0.88883,0 1.32291,-0.811318 v -2.573478 q -0.42891,-0.795814 -1.31257,-0.795814 -0.78031,0 -1.13688,0.60978 -0.3514,0.604612 -0.3514,1.4366 z"
         style="font-style:normal;font-variant:normal;font-weight:normal;font-stretch:normal;font-family:Roboto;-inkscape-font-specification:Roboto;fill:#4d4d4d;stroke-width:0.264583"
         id="path951" />
      <path
         d="m 145.74852,-36.442254 q -0.093,-0.201537 -0.13436,-0.589109 -0.26872,0.28422 -0.67179,0.490925 -0.40308,0.201537 -0.91984,0.201537 -0.85783,0 -1.37459,-0.480589 -0.51676,-0.48059 -0.51676,-1.178219 0,-0.899167 0.68212,-1.364254 0.68213,-0.470254 1.83451,-0.470254 h 0.94568 v -0.444416 q 0,-0.496092 -0.29973,-0.790646 -0.29455,-0.299723 -0.87849,-0.299723 -0.5426,0 -0.8785,0.268717 -0.33073,0.263549 -0.33073,0.614947 h -0.95601 q 0,-0.599444 0.60461,-1.126542 0.60462,-0.527098 1.61747,-0.527098 0.9095,0 1.49345,0.465086 0.58394,0.465087 0.58394,1.405595 v 2.511466 q 0,0.775144 0.19637,1.229895 v 0.08268 z m -1.58647,-0.733803 q 0.51677,0 0.894,-0.258381 0.38241,-0.258381 0.53744,-0.573606 v -1.152381 h -0.88884 q -1.61229,0.03101 -1.61229,1.033525 0,0.397907 0.26871,0.676959 0.26872,0.273884 0.80098,0.273884 z"
         style="font-style:normal;font-variant:normal;font-weight:normal;font-stretch:normal;font-family:Roboto;-inkscape-font-specification:Roboto;fill:#4d4d4d;stroke-width:0.264583"
         id="path953" />
      <path
         d="m 150.38386,-41.330828 q -0.45991,0 -0.81131,0.248046 -0.3514,0.248046 -0.55294,0.645953 v 3.994575 h -0.95601 v -5.591372 h 0.90433 l 0.031,0.69763 q 0.63562,-0.800982 1.66914,-0.800982 0.82166,0 1.30225,0.459919 0.48575,0.459918 0.49092,1.54512 v 3.689685 h -0.96118 v -3.674182 q 0,-0.656289 -0.28939,-0.935341 -0.28421,-0.279051 -0.82682,-0.279051 z"
         style="font-style:normal;font-variant:normal;font-weight:normal;font-stretch:normal;font-family:Roboto;-inkscape-font-specification:Roboto;fill:#4d4d4d;stroke-width:0.264583"
         id="path955" />
      <path
         d="m 157.52037,-36.442254 -0.0465,-0.599444 q -0.57361,0.702797 -1.5968,0.702797 -0.98185,0 -1.58646,-0.795815 -0.60461,-0.795814 -0.61495,-1.999871 v -0.149861 q 0,-1.281572 0.60461,-2.067051 0.60978,-0.785479 1.60714,-0.785479 0.98701,0 1.55028,0.661456 v -2.904206 h 0.96118 v 7.937474 z m -2.88354,-2.733674 q 0,0.831988 0.3514,1.431433 0.3514,0.594277 1.12654,0.594277 0.88883,0 1.32291,-0.811318 v -2.573478 q -0.42891,-0.795814 -1.31257,-0.795814 -0.78032,0 -1.13688,0.60978 -0.3514,0.604612 -0.3514,1.4366 z"
         style="font-style:normal;font-variant:normal;font-weight:normal;font-stretch:normal;font-family:Roboto;-inkscape-font-specification:Roboto;fill:#4d4d4d;stroke-width:0.264583"
         id="path957" />
      <path
         d="m 162.51745,-43.516735 q 0,-0.232543 0.13953,-0.392739 0.14469,-0.160197 0.42374,-0.160197 0.27389,0 0.41858,0.160197 0.14986,0.160196 0.14986,0.392739 0,0.222208 -0.14986,0.382405 -0.14469,0.155029 -0.41858,0.155029 -0.27905,0 -0.42374,-0.155029 -0.13953,-0.160197 -0.13953,-0.382405 z m 1.03353,1.483109 v 5.591372 h -0.96118 v -5.591372 z"
         style="font-style:normal;font-variant:normal;font-weight:normal;font-stretch:normal;font-family:Roboto;-inkscape-font-specification:Roboto;fill:#4d4d4d;stroke-width:0.264583"
         id="path959" />
      <path
         d="m 167.33368,-41.330828 q -0.9405,0 -1.28674,0.790646 v 4.097928 h -0.96117 v -5.591372 h 0.9095 l 0.0258,0.60978 q 0.60461,-0.713132 1.65364,-0.713132 0.53743,0 0.95601,0.21704 0.42374,0.211873 0.64595,0.682127 0.27905,-0.403075 0.72347,-0.651121 0.44958,-0.248046 1.0542,-0.248046 0.89916,0 1.38492,0.480589 0.49092,0.480589 0.49092,1.539953 v 3.674182 h -0.96118 v -3.684517 q 0,-0.702798 -0.32556,-0.950844 -0.32039,-0.253213 -0.86816,-0.253213 -0.57877,0 -0.9095,0.346231 -0.33073,0.341063 -0.3824,0.831987 v 3.710356 h -0.95601 v -3.67935 q 0,-0.656288 -0.32556,-0.930173 -0.32557,-0.279051 -0.86817,-0.279051 z"
         style="font-style:normal;font-variant:normal;font-weight:normal;font-stretch:normal;font-family:Roboto;-inkscape-font-specification:Roboto;fill:#4d4d4d;stroke-width:0.264583"
         id="path961" />
      <path
         d="m 176.92996,-36.338901 q -1.00769,0 -1.5968,-0.645953 v 2.692333 h -0.96117 v -7.741105 h 0.87849 l 0.0465,0.614948 q 0.58911,-0.7183 1.61747,-0.7183 1.05936,0 1.62263,0.785479 0.56327,0.785479 0.56327,2.067051 v 0.10852 q 0,1.224727 -0.56844,2.030877 -0.56327,0.80615 -1.60196,0.80615 z m -0.29455,-4.991927 q -0.86817,0 -1.30225,0.769976 v 2.676831 q 0.43925,0.759641 1.31258,0.759641 0.77515,0 1.13171,-0.60978 0.36174,-0.60978 0.36174,-1.441768 v -0.10852 q 0,-0.831988 -0.36174,-1.4366 -0.35656,-0.60978 -1.14204,-0.60978 z"
         style="font-style:normal;font-variant:normal;font-weight:normal;font-stretch:normal;font-family:Roboto;-inkscape-font-specification:Roboto;fill:#4d4d4d;stroke-width:0.264583"
         id="path963" />
      <path
         d="m 182.56268,-41.217141 q -0.93534,0 -1.27641,0.80615 v 3.968737 h -0.95601 v -5.591372 h 0.93018 l 0.0207,0.640786 q 0.45991,-0.744138 1.32808,-0.744138 0.26871,0 0.42374,0.07235 l -0.005,0.888831 q -0.21187,-0.04134 -0.46508,-0.04134 z"
         style="font-style:normal;font-variant:normal;font-weight:normal;font-stretch:normal;font-family:Roboto;-inkscape-font-specification:Roboto;fill:#4d4d4d;stroke-width:0.264583"
         id="path965" />
      <path
         d="m 183.57037,-39.294783 q 0,-1.214393 0.68212,-2.02571 0.68213,-0.816485 1.85518,-0.816485 1.17305,0 1.85518,0.800982 0.68213,0.795814 0.69763,1.989536 v 0.170532 q 0,1.214392 -0.6873,2.02571 -0.68212,0.811317 -1.85517,0.811317 -1.17822,0 -1.86552,-0.811317 -0.68212,-0.811318 -0.68212,-2.02571 z m 0.95601,0.118855 q 0,0.831988 0.39274,1.441768 0.3979,0.60978 1.19889,0.60978 0.78031,0 1.17821,-0.599445 0.39791,-0.604612 0.40308,-1.4366 v -0.134358 q 0,-0.821653 -0.39791,-1.436601 -0.39791,-0.620115 -1.19372,-0.620115 -0.79065,0 -1.18855,0.620115 -0.39274,0.614948 -0.39274,1.436601 z"
         style="font-style:normal;font-variant:normal;font-weight:normal;font-stretch:normal;font-family:Roboto;-inkscape-font-specification:Roboto;fill:#4d4d4d;stroke-width:0.264583"
         id="path967" />
      <path
         d="m 193.98314,-42.033626 -2.01021,5.591372 h -0.72863 l -2.02571,-5.591372 h 0.98184 l 1.4211,4.283963 1.38493,-4.283963 z"
         style="font-style:normal;font-variant:normal;font-weight:normal;font-stretch:normal;font-family:Roboto;-inkscape-font-specification:Roboto;fill:#4d4d4d;stroke-width:0.264583"
         id="path969" />
      <path
         d="m 199.26445,-37.418935 q -0.27389,0.41341 -0.77515,0.749306 -0.50126,0.330728 -1.32808,0.330728 -1.16788,0 -1.87068,-0.759641 -0.69763,-0.759641 -0.69763,-1.943028 v -0.21704 q 0,-0.91467 0.34623,-1.555456 0.3514,-0.645953 0.90951,-0.981849 0.5581,-0.341063 1.18855,-0.341063 1.19889,0 1.74666,0.785479 0.55293,0.780312 0.55293,1.953363 v 0.428913 h -3.7827 q 0.0207,0.769976 0.45475,1.312577 0.43925,0.537433 1.20406,0.537433 0.50643,0 0.85783,-0.206705 0.35139,-0.206705 0.61494,-0.552936 z m -2.22725,-3.932564 q -0.56844,0 -0.96118,0.41341 -0.39274,0.41341 -0.49092,1.188554 h 2.79568 v -0.07235 q -0.0362,-0.558104 -0.32556,-1.043861 -0.28422,-0.485757 -1.01802,-0.485757 z"
         style="font-style:normal;font-variant:normal;font-weight:normal;font-stretch:normal;font-family:Roboto;-inkscape-font-specification:Roboto;fill:#4d4d4d;stroke-width:0.264583"
         id="path971" />
      <path
         d="m 204.07034,-36.442254 -0.0465,-0.599444 q -0.57361,0.702797 -1.5968,0.702797 -0.98185,0 -1.58646,-0.795815 -0.60461,-0.795814 -0.61495,-1.999871 v -0.149861 q 0,-1.281572 0.60462,-2.067051 0.60978,-0.785479 1.60713,-0.785479 0.98701,0 1.55029,0.661456 v -2.904206 h 0.96117 v 7.937474 z m -2.88354,-2.733674 q 0,0.831988 0.3514,1.431433 0.3514,0.594277 1.12654,0.594277 0.88884,0 1.32292,-0.811318 v -2.573478 q -0.42892,-0.795814 -1.31258,-0.795814 -0.78031,0 -1.13688,0.60978 -0.3514,0.604612 -0.3514,1.4366 z"
         style="font-style:normal;font-variant:normal;font-weight:normal;font-stretch:normal;font-family:Roboto;-inkscape-font-specification:Roboto;fill:#4d4d4d;stroke-width:0.264583"
         id="path973" />
      <path
         d="m 206.45262,-36.948681 q 0,-0.242878 0.14986,-0.408242 0.15503,-0.170532 0.44442,-0.170532 0.28939,0 0.43925,0.170532 0.15503,0.165364 0.15503,0.408242 0,0.237711 -0.15503,0.403075 -0.14986,0.165364 -0.43925,0.165364 -0.28939,0 -0.44442,-0.165364 -0.14986,-0.165364 -0.14986,-0.403075 z"
         style="font-style:normal;font-variant:normal;font-weight:normal;font-stretch:normal;font-family:Roboto;-inkscape-font-specification:Roboto;fill:#4d4d4d;stroke-width:0.264583"
         id="path975" />
      <path
         d="m -41.717487,-25.237918 h 0.992185 q -0.113688,1.069698 -0.80615,1.782831 -0.692462,0.713132 -2.04638,0.713132 -1.312578,0 -2.118727,-0.93534 -0.800983,-0.940508 -0.816485,-2.495964 v -0.80615 q 0,-1.581293 0.811317,-2.537304 0.816485,-0.956011 2.211744,-0.956011 1.276404,0 1.963698,0.702797 0.687295,0.702797 0.800983,1.813837 h -0.992185 q -0.113688,-0.785479 -0.506427,-1.240231 -0.39274,-0.459918 -1.266069,-0.459918 -0.997352,0 -1.514114,0.733803 -0.516763,0.733803 -0.516763,1.932692 v 0.759641 q 0,1.11104 0.470254,1.896519 0.470254,0.780312 1.472774,0.780312 0.950843,0 1.338415,-0.444416 0.39274,-0.444416 0.52193,-1.24023 z"
         style="font-style:normal;font-variant:normal;font-weight:normal;font-stretch:normal;font-family:Roboto;-inkscape-font-specification:Roboto;fill:#4d4d4d;stroke-width:0.264583"
         id="path977" />
      <path
         d="m -37.200981,-27.733882 q -0.459919,0 -0.811317,0.248046 -0.351399,0.248046 -0.552936,0.645953 v 3.994576 h -0.956011 v -7.937475 h 0.956011 v 3.012726 q 0.635618,-0.769976 1.648472,-0.769976 0.821653,0 1.302242,0.459919 0.485757,0.459919 0.490925,1.54512 v 3.689686 h -0.961179 v -3.674183 q 0,-0.656288 -0.289387,-0.93534 -0.284219,-0.279052 -0.82682,-0.279052 z"
         style="font-style:normal;font-variant:normal;font-weight:normal;font-stretch:normal;font-family:Roboto;-inkscape-font-specification:Roboto;fill:#4d4d4d;stroke-width:0.264583"
         id="path979" />
      <path
         d="m -29.268673,-23.821989 q -0.273885,0.41341 -0.775144,0.749306 -0.50126,0.330728 -1.328081,0.330728 -1.167883,0 -1.87068,-0.759641 -0.69763,-0.759641 -0.69763,-1.943027 v -0.217041 q 0,-0.91467 0.346231,-1.555455 0.351399,-0.645954 0.909502,-0.98185 0.558104,-0.341063 1.188554,-0.341063 1.19889,0 1.746658,0.785479 0.552936,0.780312 0.552936,1.953363 v 0.428913 h -3.782702 q 0.02067,0.769977 0.454751,1.312577 0.439248,0.537434 1.204057,0.537434 0.506427,0 0.857826,-0.206705 0.351398,-0.206705 0.614947,-0.552936 z m -2.227248,-3.932564 q -0.568439,0 -0.961178,0.41341 -0.39274,0.413411 -0.490925,1.188555 h 2.795686 v -0.07235 q -0.03617,-0.558104 -0.32556,-1.043861 -0.28422,-0.485757 -1.018023,-0.485757 z"
         style="font-style:normal;font-variant:normal;font-weight:normal;font-stretch:normal;font-family:Roboto;-inkscape-font-specification:Roboto;fill:#4d4d4d;stroke-width:0.264583"
         id="path981" />
      <path
         d="m -25.832202,-23.527434 q 0.511595,0 0.893999,-0.30489 0.387572,-0.30489 0.423746,-0.780312 h 0.909502 q -0.03617,0.749306 -0.687294,1.312578 -0.651121,0.558103 -1.539953,0.558103 -1.260901,0 -1.875849,-0.831988 -0.60978,-0.831987 -0.60978,-1.95853 v -0.21704 q 0,-1.126543 0.60978,-1.958531 0.614948,-0.831988 1.875849,-0.831988 0.981849,0 1.586461,0.583942 0.604613,0.578774 0.640786,1.441768 h -0.909502 q -0.03617,-0.516763 -0.39274,-0.878497 -0.351399,-0.361734 -0.925005,-0.361734 -0.58911,0 -0.925005,0.299723 -0.330728,0.299722 -0.470254,0.759641 -0.134359,0.459919 -0.134359,0.945676 v 0.21704 q 0,0.490924 0.134359,0.950843 0.134358,0.459919 0.465086,0.759641 0.335896,0.294555 0.930173,0.294555 z"
         style="font-style:normal;font-variant:normal;font-weight:normal;font-stretch:normal;font-family:Roboto;-inkscape-font-specification:Roboto;fill:#4d4d4d;stroke-width:0.264583"
         id="path983" />
      <path
         d="m -19.026438,-22.845307 -1.93786,-2.594149 -0.604612,0.625283 v 1.968866 h -0.961179 v -7.937475 h 0.961179 v 4.795558 l 0.511595,-0.60978 1.736322,-1.839675 h 1.167884 l -2.180738,2.330599 2.433952,3.260773 z"
         style="font-style:normal;font-variant:normal;font-weight:normal;font-stretch:normal;font-family:Roboto;-inkscape-font-specification:Roboto;fill:#4d4d4d;stroke-width:0.264583"
         id="path985" />
      <path
         d="m -12.163829,-22.845307 q -0.32556,0.103352 -0.73897,0.103352 -0.532266,0 -0.909503,-0.32556 -0.377237,-0.325561 -0.377237,-1.167884 v -3.467477 h -1.02319 v -0.733803 h 1.02319 v -1.359086 h 0.956011 v 1.359086 h 1.043861 v 0.733803 h -1.043861 v 3.472645 q 0,0.428913 0.186035,0.547768 0.186035,0.118856 0.428913,0.118856 0.180867,0 0.449584,-0.06201 z"
         style="font-style:normal;font-variant:normal;font-weight:normal;font-stretch:normal;font-family:Roboto;-inkscape-font-specification:Roboto;fill:#4d4d4d;stroke-width:0.264583"
         id="path987" />
      <path
         d="m -8.7376946,-27.733882 q -0.4599188,0 -0.8113174,0.248046 -0.3513986,0.248046 -0.552936,0.645953 v 3.994576 h -0.956011 v -7.937475 h 0.956011 v 3.012726 q 0.635618,-0.769976 1.6484729,-0.769976 0.8216526,0 1.3022419,0.459919 0.4857569,0.459919 0.4909246,1.54512 v 3.689686 h -0.9611786 v -3.674183 q 0,-0.656288 -0.2893871,-0.93534 -0.2842195,-0.279052 -0.8268203,-0.279052 z"
         style="font-style:normal;font-variant:normal;font-weight:normal;font-stretch:normal;font-family:Roboto;-inkscape-font-specification:Roboto;fill:#4d4d4d;stroke-width:0.264583"
         id="path989" />
      <path
         d="m -0.80538419,-23.821989 q -0.27388421,0.41341 -0.77514401,0.749306 -0.5012598,0.330728 -1.3280801,0.330728 -1.1678836,0 -1.8706809,-0.759641 -0.6976296,-0.759641 -0.6976296,-1.943027 v -0.217041 q 0,-0.91467 0.346231,-1.555455 0.3513986,-0.645954 0.9095023,-0.98185 0.5581037,-0.341063 1.1885542,-0.341063 1.1988894,0 1.7466578,0.785479 0.55293608,0.780312 0.55293608,1.953363 v 0.428913 H -4.5157402 q 0.02067,0.769977 0.4547511,1.312577 0.4392483,0.537434 1.2040571,0.537434 0.5064274,0 0.857826,-0.206705 0.3513986,-0.206705 0.6149476,-0.552936 z m -2.22724711,-3.932564 q -0.568439,0 -0.9611786,0.41341 -0.3927396,0.413411 -0.4909246,1.188555 h 2.7956861 v -0.07235 q -0.036173,-0.558104 -0.3255605,-1.043861 -0.2842194,-0.485757 -1.0180224,-0.485757 z"
         style="font-style:normal;font-variant:normal;font-weight:normal;font-stretch:normal;font-family:Roboto;-inkscape-font-specification:Roboto;fill:#4d4d4d;stroke-width:0.264583"
         id="path991" />
      <path
         d="m 7.4421477,-23.821989 q -0.2738842,0.41341 -0.775144,0.749306 -0.5012598,0.330728 -1.3280801,0.330728 -1.1678836,0 -1.8706809,-0.759641 -0.6976296,-0.759641 -0.6976296,-1.943027 v -0.217041 q 0,-0.91467 0.346231,-1.555455 0.3513986,-0.645954 0.9095023,-0.98185 0.5581037,-0.341063 1.1885542,-0.341063 1.1988894,0 1.7466578,0.785479 0.5529361,0.780312 0.5529361,1.953363 v 0.428913 H 3.7317917 q 0.020671,0.769977 0.4547511,1.312577 0.4392483,0.537434 1.2040571,0.537434 0.5064274,0 0.857826,-0.206705 0.3513986,-0.206705 0.6149476,-0.552936 z m -2.2272471,-3.932564 q -0.568439,0 -0.9611786,0.41341 -0.3927397,0.413411 -0.4909246,1.188555 h 2.7956861 v -0.07235 q -0.036173,-0.558104 -0.3255605,-1.043861 -0.2842194,-0.485757 -1.0180224,-0.485757 z"
         style="font-style:normal;font-variant:normal;font-weight:normal;font-stretch:normal;font-family:Roboto;-inkscape-font-specification:Roboto;fill:#4d4d4d;stroke-width:0.264583"
         id="path993" />
      <path
         d="m 9.286988,-28.436679 1.224728,2.036045 1.24023,-2.036045 h 1.121375 l -1.82934,2.759512 1.886184,2.83186 h -1.105872 l -1.291907,-2.098057 -1.2919066,2.098057 H 8.1294396 l 1.8810164,-2.83186 -1.8241725,-2.759512 z"
         style="font-style:normal;font-variant:normal;font-weight:normal;font-stretch:normal;font-family:Roboto;-inkscape-font-specification:Roboto;fill:#4d4d4d;stroke-width:0.264583"
         id="path995" />
      <path
         d="m 17.343318,-22.845307 q -0.09302,-0.201538 -0.134358,-0.58911 -0.268717,0.28422 -0.671791,0.490925 -0.403075,0.201537 -0.919838,0.201537 -0.857826,0 -1.374589,-0.480589 -0.516762,-0.480589 -0.516762,-1.178219 0,-0.899167 0.682126,-1.364253 0.682127,-0.470254 1.834508,-0.470254 h 0.945676 v -0.444416 q 0,-0.496092 -0.299723,-0.790647 -0.294555,-0.299723 -0.878496,-0.299723 -0.542601,0 -0.878497,0.268717 -0.330728,0.263549 -0.330728,0.614948 h -0.956011 q 0,-0.599445 0.604612,-1.126543 0.604613,-0.527098 1.617468,-0.527098 0.909502,0 1.493444,0.465086 0.583941,0.465087 0.583941,1.405595 v 2.511467 q 0,0.775144 0.19637,1.229895 v 0.08268 z m -1.586461,-0.733803 q 0.516763,0 0.893999,-0.258382 0.382405,-0.258381 0.537434,-0.573606 v -1.152381 h -0.888832 q -1.6123,0.03101 -1.6123,1.033525 0,0.397908 0.268717,0.67696 0.268716,0.273884 0.800982,0.273884 z"
         style="font-style:normal;font-variant:normal;font-weight:normal;font-stretch:normal;font-family:Roboto;-inkscape-font-specification:Roboto;fill:#4d4d4d;stroke-width:0.264583"
         id="path997" />
      <path
         d="m 21.896001,-27.733882 q -0.940508,0 -1.286739,0.790647 v 4.097928 h -0.961179 v -5.591372 h 0.909502 l 0.02584,0.60978 q 0.604613,-0.713133 1.653641,-0.713133 0.537433,0 0.956011,0.21704 0.423745,0.211873 0.645953,0.682127 0.279052,-0.403075 0.723468,-0.651121 0.449584,-0.248046 1.054196,-0.248046 0.899167,0 1.384924,0.480589 0.490924,0.48059 0.490924,1.539953 v 3.674183 h -0.961178 v -3.684518 q 0,-0.702797 -0.325561,-0.950843 -0.320392,-0.253214 -0.868161,-0.253214 -0.578774,0 -0.909502,0.346231 -0.330728,0.341063 -0.382405,0.831988 v 3.710356 h -0.956011 v -3.67935 q 0,-0.656289 -0.32556,-0.930173 -0.325561,-0.279052 -0.868161,-0.279052 z"
         style="font-style:normal;font-variant:normal;font-weight:normal;font-stretch:normal;font-family:Roboto;-inkscape-font-specification:Roboto;fill:#4d4d4d;stroke-width:0.264583"
         id="path999" />
      <path
         d="m 31.492278,-22.741955 q -1.007688,0 -1.596797,-0.645953 v 2.692334 h -0.961179 v -7.741105 h 0.878497 l 0.04651,0.614947 q 0.58911,-0.7183 1.617468,-0.7183 1.059363,0 1.622634,0.785479 0.563272,0.78548 0.563272,2.067051 v 0.10852 q 0,1.224728 -0.568439,2.030878 -0.563272,0.806149 -1.601964,0.806149 z m -0.294555,-4.991927 q -0.868162,0 -1.302242,0.769976 v 2.676831 q 0.439248,0.759641 1.312577,0.759641 0.775144,0 1.13171,-0.60978 0.361734,-0.60978 0.361734,-1.441768 v -0.10852 q 0,-0.831988 -0.361734,-1.4366 -0.356566,-0.60978 -1.142045,-0.60978 z"
         style="font-style:normal;font-variant:normal;font-weight:normal;font-stretch:normal;font-family:Roboto;-inkscape-font-specification:Roboto;fill:#4d4d4d;stroke-width:0.264583"
         id="path1001" />
      <path
         d="m 35.931273,-30.782782 v 7.937475 h -0.961179 v -7.937475 z"
         style="font-style:normal;font-variant:normal;font-weight:normal;font-stretch:normal;font-family:Roboto;-inkscape-font-specification:Roboto;fill:#4d4d4d;stroke-width:0.264583"
         id="path1003" />
      <path
         d="m 41.899885,-23.821989 q -0.273885,0.41341 -0.775144,0.749306 -0.50126,0.330728 -1.32808,0.330728 -1.167884,0 -1.870681,-0.759641 -0.69763,-0.759641 -0.69763,-1.943027 v -0.217041 q 0,-0.91467 0.346231,-1.555455 0.351399,-0.645954 0.909502,-0.98185 0.558104,-0.341063 1.188555,-0.341063 1.198889,0 1.746657,0.785479 0.552936,0.780312 0.552936,1.953363 v 0.428913 h -3.782702 q 0.02067,0.769977 0.454751,1.312577 0.439248,0.537434 1.204057,0.537434 0.506427,0 0.857826,-0.206705 0.351399,-0.206705 0.614947,-0.552936 z m -2.227247,-3.932564 q -0.568439,0 -0.961179,0.41341 -0.39274,0.413411 -0.490925,1.188555 h 2.795686 v -0.07235 q -0.03617,-0.558104 -0.32556,-1.043861 -0.284219,-0.485757 -1.018022,-0.485757 z"
         style="font-style:normal;font-variant:normal;font-weight:normal;font-stretch:normal;font-family:Roboto;-inkscape-font-specification:Roboto;fill:#4d4d4d;stroke-width:0.264583"
         id="path1005" />
      <path
         d="m 46.354377,-24.328416 q 0,-0.30489 -0.227376,-0.547769 -0.222208,-0.248046 -1.033525,-0.41341 -0.935341,-0.191202 -1.488277,-0.552936 -0.552936,-0.366901 -0.552936,-1.064531 0,-0.661456 0.563271,-1.147213 0.568439,-0.485757 1.508947,-0.485757 1.00252,0 1.565791,0.511595 0.563272,0.511595 0.563272,1.235063 h -0.956011 q 0,-0.346231 -0.30489,-0.651121 -0.30489,-0.310058 -0.868162,-0.310058 -0.594277,0 -0.852658,0.258382 -0.258381,0.258381 -0.258381,0.563271 0,0.30489 0.23771,0.496092 0.242879,0.186035 1.023191,0.361734 1.028357,0.232543 1.529617,0.60978 0.506427,0.377237 0.506427,1.064531 0,0.738971 -0.594277,1.19889 -0.589109,0.459918 -1.565791,0.459918 -1.111039,0 -1.700149,-0.568439 -0.589109,-0.568439 -0.589109,-1.260901 h 0.961178 q 0.03101,0.594278 0.454752,0.821653 0.428913,0.222208 0.873328,0.222208 0.583942,0 0.894,-0.227376 0.310058,-0.227375 0.310058,-0.573606 z"
         style="font-style:normal;font-variant:normal;font-weight:normal;font-stretch:normal;font-family:Roboto;-inkscape-font-specification:Roboto;fill:#4d4d4d;stroke-width:0.264583"
         id="path1007" />
      <path
         d="m 55.914486,-25.578982 q 0,1.224728 -0.568439,2.030878 -0.568439,0.806149 -1.607132,0.806149 -1.059363,0 -1.63297,-0.749306 l -0.05168,0.645954 h -0.878496 v -7.937475 h 0.961178 v 2.950715 q 0.568439,-0.707965 1.591629,-0.707965 1.054196,0 1.617467,0.785479 0.568439,0.78548 0.568439,2.067051 z m -2.423617,-2.1549 q -0.52193,0 -0.84749,0.253214 -0.325561,0.248046 -0.506428,0.614947 v 2.433952 q 0.186035,0.372069 0.516763,0.625283 0.330728,0.253214 0.847491,0.253214 0.775144,0 1.111039,-0.594277 0.341064,-0.599445 0.341064,-1.431433 v -0.10852 q 0,-0.831988 -0.325561,-1.4366 -0.320393,-0.60978 -1.136878,-0.60978 z"
         style="font-style:normal;font-variant:normal;font-weight:normal;font-stretch:normal;font-family:Roboto;-inkscape-font-specification:Roboto;fill:#4d4d4d;stroke-width:0.264583"
         id="path1009" />
      <path
         d="m 61.557531,-23.821989 q -0.273884,0.41341 -0.775144,0.749306 -0.50126,0.330728 -1.32808,0.330728 -1.167884,0 -1.870681,-0.759641 -0.69763,-0.759641 -0.69763,-1.943027 v -0.217041 q 0,-0.91467 0.346231,-1.555455 0.351399,-0.645954 0.909503,-0.98185 0.558103,-0.341063 1.188554,-0.341063 1.198889,0 1.746658,0.785479 0.552936,0.780312 0.552936,1.953363 v 0.428913 h -3.782703 q 0.02067,0.769977 0.454751,1.312577 0.439248,0.537434 1.204057,0.537434 0.506427,0 0.857826,-0.206705 0.351399,-0.206705 0.614948,-0.552936 z m -2.227247,-3.932564 q -0.568439,0 -0.961179,0.41341 -0.39274,0.413411 -0.490924,1.188555 h 2.795686 v -0.07235 q -0.03617,-0.558104 -0.325561,-1.043861 -0.284219,-0.485757 -1.018022,-0.485757 z"
         style="font-style:normal;font-variant:normal;font-weight:normal;font-stretch:normal;font-family:Roboto;-inkscape-font-specification:Roboto;fill:#4d4d4d;stroke-width:0.264583"
         id="path1011" />
      <path
         d="m 63.795118,-30.782782 v 7.937475 H 62.83394 v -7.937475 z"
         style="font-style:normal;font-variant:normal;font-weight:normal;font-stretch:normal;font-family:Roboto;-inkscape-font-specification:Roboto;fill:#4d4d4d;stroke-width:0.264583"
         id="path1013" />
      <path
         d="m 65.087021,-25.697837 q 0,-1.214392 0.682126,-2.02571 0.682127,-0.816485 1.855178,-0.816485 1.173052,0 1.855178,0.800982 0.682127,0.795815 0.69763,1.989537 v 0.170531 q 0,1.214393 -0.687294,2.02571 -0.682127,0.811317 -1.855178,0.811317 -1.178219,0 -1.865514,-0.811317 -0.682126,-0.811317 -0.682126,-2.02571 z m 0.956011,0.118855 q 0,0.831988 0.392739,1.441768 0.397907,0.60978 1.19889,0.60978 0.780311,0 1.178219,-0.599445 0.397907,-0.604612 0.403074,-1.4366 v -0.134358 q 0,-0.821653 -0.397907,-1.4366 -0.397907,-0.620116 -1.193722,-0.620116 -0.790647,0 -1.188554,0.620116 -0.392739,0.614947 -0.392739,1.4366 z"
         style="font-style:normal;font-variant:normal;font-weight:normal;font-stretch:normal;font-family:Roboto;-inkscape-font-specification:Roboto;fill:#4d4d4d;stroke-width:0.264583"
         id="path1015" />
      <path
         d="m 78.35232,-28.436679 -1.622635,5.591372 h -0.775144 l -1.359086,-4.232287 -1.322912,4.232287 h -0.780312 l -1.622635,-5.591372 h 0.956011 l 1.100705,4.175442 1.302242,-4.175442 h 0.769976 l 1.322913,4.263292 1.080034,-4.263292 z"
         style="font-style:normal;font-variant:normal;font-weight:normal;font-stretch:normal;font-family:Roboto;-inkscape-font-specification:Roboto;fill:#4d4d4d;stroke-width:0.264583"
         id="path1017" />
      <path
         d="m 84.574141,-27.702876 h -1.188554 v 4.857569 h -0.956011 v -4.857569 h -0.883665 v -0.733803 h 0.883665 v -0.625283 q 0.01033,-0.888832 0.496092,-1.359086 0.490924,-0.470254 1.338415,-0.470254 0.315225,0 0.661456,0.08268 l -0.05168,0.780312 q -0.21704,-0.04651 -0.516763,-0.04651 -0.956011,0 -0.971513,1.018022 v 0.620116 h 1.188554 z"
         style="font-style:normal;font-variant:normal;font-weight:normal;font-stretch:normal;font-family:Roboto;-inkscape-font-specification:Roboto;fill:#4d4d4d;stroke-width:0.264583"
         id="path1019" />
      <path
         d="m 85.38546,-25.697837 q 0,-1.214392 0.682126,-2.02571 0.682127,-0.816485 1.855178,-0.816485 1.173052,0 1.855178,0.800982 0.682127,0.795815 0.69763,1.989537 v 0.170531 q 0,1.214393 -0.687294,2.02571 -0.682127,0.811317 -1.855178,0.811317 -1.178219,0 -1.865514,-0.811317 -0.682126,-0.811317 -0.682126,-2.02571 z m 0.956011,0.118855 q 0,0.831988 0.392739,1.441768 0.397908,0.60978 1.19889,0.60978 0.780311,0 1.178219,-0.599445 0.397907,-0.604612 0.403074,-1.4366 v -0.134358 q 0,-0.821653 -0.397907,-1.4366 -0.397907,-0.620116 -1.193722,-0.620116 -0.790646,0 -1.188554,0.620116 -0.392739,0.614947 -0.392739,1.4366 z"
         style="font-style:normal;font-variant:normal;font-weight:normal;font-stretch:normal;font-family:Roboto;-inkscape-font-specification:Roboto;fill:#4d4d4d;stroke-width:0.264583"
         id="path1021" />
      <path
         d="m 93.90687,-27.620194 q -0.93534,0 -1.276404,0.806149 v 3.968738 h -0.956011 v -5.591372 h 0.930173 l 0.02067,0.640785 q 0.459918,-0.744138 1.32808,-0.744138 0.268716,0 0.423745,0.07235 l -0.0052,0.888832 q -0.211872,-0.04134 -0.465086,-0.04134 z"
         style="font-style:normal;font-variant:normal;font-weight:normal;font-stretch:normal;font-family:Roboto;-inkscape-font-specification:Roboto;fill:#4d4d4d;stroke-width:0.264583"
         id="path1023" />
      <path
         d="m 100.26306,-22.845307 q -0.32556,0.103352 -0.73897,0.103352 -0.532266,0 -0.909502,-0.32556 -0.377237,-0.325561 -0.377237,-1.167884 v -3.467477 h -1.02319 v -0.733803 h 1.02319 v -1.359086 h 0.956011 v 1.359086 h 1.043858 v 0.733803 h -1.043858 v 3.472645 q 0,0.428913 0.186034,0.547768 0.186035,0.118856 0.428913,0.118856 0.180867,0 0.449581,-0.06201 z"
         style="font-style:normal;font-variant:normal;font-weight:normal;font-stretch:normal;font-family:Roboto;-inkscape-font-specification:Roboto;fill:#4d4d4d;stroke-width:0.264583"
         id="path1025" />
      <path
         d="m 103.68919,-27.733882 q -0.45992,0 -0.81131,0.248046 -0.3514,0.248046 -0.55294,0.645953 v 3.994576 h -0.95601 v -7.937475 h 0.95601 v 3.012726 q 0.63562,-0.769976 1.64847,-0.769976 0.82166,0 1.30224,0.459919 0.48576,0.459919 0.49093,1.54512 v 3.689686 h -0.96118 v -3.674183 q 0,-0.656288 -0.28939,-0.93534 -0.28422,-0.279052 -0.82682,-0.279052 z"
         style="font-style:normal;font-variant:normal;font-weight:normal;font-stretch:normal;font-family:Roboto;-inkscape-font-specification:Roboto;fill:#4d4d4d;stroke-width:0.264583"
         id="path1027" />
      <path
         d="m 111.6215,-23.821989 q -0.27388,0.41341 -0.77514,0.749306 -0.50126,0.330728 -1.32808,0.330728 -1.16788,0 -1.87068,-0.759641 -0.69763,-0.759641 -0.69763,-1.943027 v -0.217041 q 0,-0.91467 0.34623,-1.555455 0.3514,-0.645954 0.9095,-0.98185 0.55811,-0.341063 1.18856,-0.341063 1.19889,0 1.74665,0.785479 0.55294,0.780312 0.55294,1.953363 v 0.428913 h -3.7827 q 0.0207,0.769977 0.45475,1.312577 0.43925,0.537434 1.20406,0.537434 0.50642,0 0.85782,-0.206705 0.3514,-0.206705 0.61495,-0.552936 z m -2.22724,-3.932564 q -0.56844,0 -0.96118,0.41341 -0.39274,0.413411 -0.49093,1.188555 h 2.79569 v -0.07235 q -0.0362,-0.558104 -0.32556,-1.043861 -0.28422,-0.485757 -1.01802,-0.485757 z"
         style="font-style:normal;font-variant:normal;font-weight:normal;font-stretch:normal;font-family:Roboto;-inkscape-font-specification:Roboto;fill:#4d4d4d;stroke-width:0.264583"
         id="path1029" />
      <path
         d="m 117.76581,-27.733882 q -0.45992,0 -0.81132,0.248046 -0.3514,0.248046 -0.55294,0.645953 v 3.994576 h -0.95601 v -5.591372 h 0.90434 l 0.031,0.697629 q 0.63562,-0.800982 1.66915,-0.800982 0.82165,0 1.30224,0.459919 0.48576,0.459919 0.49092,1.54512 v 3.689686 h -0.96118 v -3.674183 q 0,-0.656288 -0.28938,-0.93534 -0.28422,-0.279052 -0.82682,-0.279052 z"
         style="font-style:normal;font-variant:normal;font-weight:normal;font-stretch:normal;font-family:Roboto;-inkscape-font-specification:Roboto;fill:#4d4d4d;stroke-width:0.264583"
         id="path1031" />
      <path
         d="m 125.71879,-23.821989 q -0.27388,0.41341 -0.77514,0.749306 -0.50126,0.330728 -1.32808,0.330728 -1.16788,0 -1.87068,-0.759641 -0.69763,-0.759641 -0.69763,-1.943027 v -0.217041 q 0,-0.91467 0.34623,-1.555455 0.3514,-0.645954 0.9095,-0.98185 0.55811,-0.341063 1.18856,-0.341063 1.19889,0 1.74665,0.785479 0.55294,0.780312 0.55294,1.953363 v 0.428913 h -3.7827 q 0.0207,0.769977 0.45475,1.312577 0.43925,0.537434 1.20406,0.537434 0.50642,0 0.85782,-0.206705 0.3514,-0.206705 0.61495,-0.552936 z m -2.22724,-3.932564 q -0.56844,0 -0.96118,0.41341 -0.39274,0.413411 -0.49093,1.188555 h 2.79569 v -0.07235 q -0.0362,-0.558104 -0.32556,-1.043861 -0.28422,-0.485757 -1.01802,-0.485757 z"
         style="font-style:normal;font-variant:normal;font-weight:normal;font-stretch:normal;font-family:Roboto;-inkscape-font-specification:Roboto;fill:#4d4d4d;stroke-width:0.264583"
         id="path1033" />
      <path
         d="m 133.89398,-28.436679 -1.62264,5.591372 h -0.77514 l -1.35909,-4.232287 -1.32291,4.232287 h -0.78031 l -1.62264,-5.591372 h 0.95601 l 1.10071,4.175442 1.30224,-4.175442 h 0.76998 l 1.32291,4.263292 1.08003,-4.263292 z"
         style="font-style:normal;font-variant:normal;font-weight:normal;font-stretch:normal;font-family:Roboto;-inkscape-font-specification:Roboto;fill:#4d4d4d;stroke-width:0.264583"
         id="path1035" />
      <path
         d="m 136.9222,-22.845307 2.86804,-7.524065 h 0.87333 l 2.87836,7.524065 h -1.02319 l -0.7183,-1.968866 h -3.14708 l -0.71313,1.968866 z m 2.03088,-2.785351 h 2.55281 l -1.27641,-3.508819 z"
         style="font-style:normal;font-variant:normal;font-weight:normal;font-stretch:normal;font-family:Roboto;-inkscape-font-specification:Roboto;fill:#4d4d4d;stroke-width:0.264583"
         id="path1037" />
      <path
         d="m 145.54697,-25.796022 v 2.950715 h -0.99735 v -7.524065 h 2.77501 q 1.28157,0 1.95853,0.645954 0.68213,0.645953 0.68213,1.648472 0,1.09037 -0.68213,1.684647 -0.67696,0.594277 -1.95853,0.594277 z m 0,-3.756865 v 2.945547 h 1.77766 q 0.8785,0 1.2609,-0.408242 0.38241,-0.408243 0.38241,-1.049028 0,-0.578774 -0.38241,-1.033526 -0.3824,-0.454751 -1.2609,-0.454751 z"
         style="font-style:normal;font-variant:normal;font-weight:normal;font-stretch:normal;font-family:Roboto;-inkscape-font-specification:Roboto;fill:#4d4d4d;stroke-width:0.264583"
         id="path1039" />
      <path
         d="m 152.29589,-30.369372 v 7.524065 h -0.99735 v -7.524065 z"
         style="font-style:normal;font-variant:normal;font-weight:normal;font-stretch:normal;font-family:Roboto;-inkscape-font-specification:Roboto;fill:#4d4d4d;stroke-width:0.264583"
         id="path1041" />
      <path
         d="m 153.9702,-23.351735 q 0,-0.242878 0.14986,-0.408242 0.15503,-0.170532 0.44442,-0.170532 0.28939,0 0.43925,0.170532 0.15503,0.165364 0.15503,0.408242 0,0.237711 -0.15503,0.403075 -0.14986,0.165364 -0.43925,0.165364 -0.28939,0 -0.44442,-0.165364 -0.14986,-0.165364 -0.14986,-0.403075 z"
         style="font-style:normal;font-variant:normal;font-weight:normal;font-stretch:normal;font-family:Roboto;-inkscape-font-specification:Roboto;fill:#4d4d4d;stroke-width:0.264583"
         id="path1043" />
      <path
         d="m -46.259831,-9.2483609 v -7.5240641 h 4.6612 v 0.816485 h -3.663848 v 2.56831 h 3.152253 v 0.816485 h -3.152253 v 3.3227841 z"
         style="font-style:normal;font-variant:normal;font-weight:normal;font-stretch:normal;font-family:Roboto;-inkscape-font-specification:Roboto;fill:#4d4d4d;stroke-width:0.264583"
         id="path1045" />
      <path
         d="m -40.911337,-12.100891 q 0,-1.214392 0.682127,-2.02571 0.682126,-0.816485 1.855178,-0.816485 1.173051,0 1.855178,0.800983 0.682126,0.795814 0.697629,1.989536 v 0.170532 q 0,1.214392 -0.687294,2.0257092 -0.682127,0.8113174 -1.855178,0.8113174 -1.178219,0 -1.865513,-0.8113174 -0.682127,-0.8113172 -0.682127,-2.0257092 z m 0.956011,0.118856 q 0,0.831987 0.392739,1.441767 0.397908,0.6097804 1.19889,0.6097804 0.780312,0 1.178219,-0.5994444 0.397907,-0.604613 0.403075,-1.436601 v -0.134358 q 0,-0.821653 -0.397908,-1.4366 -0.397907,-0.620115 -1.193721,-0.620115 -0.790647,0 -1.188555,0.620115 -0.392739,0.614947 -0.392739,1.4366 z"
         style="font-style:normal;font-variant:normal;font-weight:normal;font-stretch:normal;font-family:Roboto;-inkscape-font-specification:Roboto;fill:#4d4d4d;stroke-width:0.264583"
         id="path1047" />
      <path
         d="m -32.389921,-14.023248 q -0.935341,0 -1.276404,0.80615 v 3.9687371 h -0.956011 v -5.5913721 h 0.930173 l 0.02067,0.640786 q 0.459919,-0.744139 1.328081,-0.744139 0.268716,0 0.423745,0.07235 l -0.0052,0.888832 q -0.211872,-0.04134 -0.465086,-0.04134 z"
         style="font-style:normal;font-variant:normal;font-weight:normal;font-stretch:normal;font-family:Roboto;-inkscape-font-specification:Roboto;fill:#4d4d4d;stroke-width:0.264583"
         id="path1049" />
      <path
         d="m -26.03374,-9.2483609 q -0.325561,0.1033525 -0.738971,0.1033525 -0.532265,0 -0.909502,-0.3255605 -0.377237,-0.3255604 -0.377237,-1.1678841 v -3.467477 h -1.02319 v -0.733803 h 1.02319 v -1.359086 h 0.956011 v 1.359086 h 1.043861 v 0.733803 h -1.043861 v 3.472645 q 0,0.428913 0.186035,0.547769 0.186034,0.118855 0.428913,0.118855 0.180867,0 0.449583,-0.062012 z"
         style="font-style:normal;font-variant:normal;font-weight:normal;font-stretch:normal;font-family:Roboto;-inkscape-font-specification:Roboto;fill:#4d4d4d;stroke-width:0.264583"
         id="path1051" />
      <path
         d="m -22.607602,-14.136936 q -0.459919,0 -0.811317,0.248046 -0.351399,0.248046 -0.552936,0.645954 v 3.9945751 h -0.956011 v -7.9374751 h 0.956011 v 3.012727 q 0.635618,-0.769977 1.648473,-0.769977 0.821652,0 1.302241,0.459919 0.485757,0.459919 0.490925,1.545121 v 3.6896851 h -0.961179 v -3.6741831 q 0,-0.656288 -0.289387,-0.93534 -0.284219,-0.279052 -0.82682,-0.279052 z"
         style="font-style:normal;font-variant:normal;font-weight:normal;font-stretch:normal;font-family:Roboto;-inkscape-font-specification:Roboto;fill:#4d4d4d;stroke-width:0.264583"
         id="path1053" />
      <path
         d="m -14.675295,-10.225042 q -0.273885,0.4134098 -0.775144,0.7493055 -0.50126,0.3307281 -1.32808,0.3307281 -1.167884,0 -1.870681,-0.7596411 -0.69763,-0.7596415 -0.69763,-1.9430275 v -0.21704 q 0,-0.91467 0.346231,-1.555456 0.351399,-0.645954 0.909502,-0.981849 0.558104,-0.341064 1.188554,-0.341064 1.19889,0 1.746658,0.78548 0.552936,0.780311 0.552936,1.953363 v 0.428913 h -3.782702 q 0.02067,0.769976 0.454751,1.312577 0.439248,0.537433 1.204057,0.537433 0.506427,0 0.857826,-0.206705 0.351398,-0.206705 0.614947,-0.552936 z m -2.227248,-3.932564 q -0.568438,0 -0.961178,0.41341 -0.39274,0.41341 -0.490925,1.188554 h 2.795686 v -0.07235 q -0.03617,-0.558104 -0.32556,-1.04386 -0.28422,-0.485757 -1.018023,-0.485757 z"
         style="font-style:normal;font-variant:normal;font-weight:normal;font-stretch:normal;font-family:Roboto;-inkscape-font-specification:Roboto;fill:#4d4d4d;stroke-width:0.264583"
         id="path1055" />
      <path
         d="m -8.2984444,-9.1450084 q -1.0076872,0 -1.5967967,-0.6459533 v 2.6923335 H -10.85642 v -7.7411048 h 0.8784969 l 0.046509,0.614948 q 0.5891094,-0.718301 1.6174671,-0.718301 1.0593635,0 1.6226348,0.78548 0.5632714,0.785479 0.5632714,2.06705 v 0.108521 q 0,1.224727 -0.568439,2.0308769 -0.5632713,0.8061497 -1.6019643,0.8061497 z m -0.2945547,-4.9919276 q -0.8681613,0 -1.302242,0.769977 v 2.67683 q 0.4392483,0.7596414 1.3125772,0.7596414 0.7751441,0 1.1317103,-0.6097804 0.3617339,-0.60978 0.3617339,-1.441767 v -0.108521 q 0,-0.831988 -0.3617339,-1.4366 -0.3565662,-0.60978 -1.1420455,-0.60978 z"
         style="font-style:normal;font-variant:normal;font-weight:normal;font-stretch:normal;font-family:Roboto;-inkscape-font-specification:Roboto;fill:#4d4d4d;stroke-width:0.264583"
         id="path1057" />
      <path
         d="m -2.6657313,-14.023248 q -0.9353405,0 -1.2764038,0.80615 v 3.9687371 h -0.956011 v -5.5913721 h 0.9301728 l 0.020671,0.640786 q 0.4599188,-0.744139 1.3280801,-0.744139 0.2687166,0 0.4237454,0.07235 l -0.00517,0.888832 q -0.2118727,-0.04134 -0.4650864,-0.04134 z"
         style="font-style:normal;font-variant:normal;font-weight:normal;font-stretch:normal;font-family:Roboto;-inkscape-font-specification:Roboto;fill:#4d4d4d;stroke-width:0.264583"
         id="path1059" />
      <path
         d="m 3.0186591,-10.225042 q -0.2738842,0.4134098 -0.775144,0.7493055 -0.5012598,0.3307281 -1.32808012,0.3307281 -1.16788365,0 -1.87068089,-0.7596411 -0.69762959,-0.7596415 -0.69762959,-1.9430275 v -0.21704 q 0,-0.91467 0.346231,-1.555456 0.35139859,-0.645954 0.90950228,-0.981849 0.5581037,-0.341064 1.18855416,-0.341064 1.19888946,0 1.74665786,0.78548 0.5529361,0.780311 0.5529361,1.953363 v 0.428913 h -3.78270284 q 0.0206705,0.769976 0.45475115,1.312577 0.43924828,0.537433 1.20405704,0.537433 0.50642745,0 0.85782605,-0.206705 0.3513986,-0.206705 0.6149476,-0.552936 z m -2.22724716,-3.932564 q -0.56843894,0 -0.96117858,0.41341 -0.39273963,0.41341 -0.49092454,1.188554 H 2.1349949 v -0.07235 q -0.036173,-0.558104 -0.3255605,-1.04386 -0.2842195,-0.485757 -1.01802246,-0.485757 z"
         style="font-style:normal;font-variant:normal;font-weight:normal;font-stretch:normal;font-family:Roboto;-inkscape-font-specification:Roboto;fill:#4d4d4d;stroke-width:0.264583"
         id="path1061" />
      <path
         d="M 8.3619825,-14.839733 6.3517757,-9.2483609 H 5.6231403 L 3.5974306,-14.839733 h 0.9818491 l 1.4210974,4.283963 1.384924,-4.283963 z"
         style="font-style:normal;font-variant:normal;font-weight:normal;font-stretch:normal;font-family:Roboto;-inkscape-font-specification:Roboto;fill:#4d4d4d;stroke-width:0.264583"
         id="path1063" />
      <path
         d="m 9.2869913,-16.322842 q 0,-0.232543 0.1395259,-0.39274 0.1446936,-0.160196 0.4237454,-0.160196 0.2738844,0 0.4185774,0.160196 0.149862,0.160197 0.149862,0.39274 0,0.222208 -0.149862,0.382404 -0.144693,0.155029 -0.4185774,0.155029 -0.2790518,0 -0.4237454,-0.155029 -0.1395259,-0.160196 -0.1395259,-0.382404 z m 1.0335257,1.483109 v 5.5913721 H 9.3593381 v -5.5913721 z"
         style="font-style:normal;font-variant:normal;font-weight:normal;font-stretch:normal;font-family:Roboto;-inkscape-font-specification:Roboto;fill:#4d4d4d;stroke-width:0.264583"
         id="path1065" />
      <path
         d="m 11.612423,-12.100891 q 0,-1.214392 0.682126,-2.02571 0.682127,-0.816485 1.855178,-0.816485 1.173052,0 1.855178,0.800983 0.682127,0.795814 0.69763,1.989536 v 0.170532 q 0,1.214392 -0.687294,2.0257092 -0.682127,0.8113174 -1.855178,0.8113174 -1.178219,0 -1.865514,-0.8113174 -0.682126,-0.8113172 -0.682126,-2.0257092 z m 0.956011,0.118856 q 0,0.831987 0.392739,1.441767 0.397908,0.6097804 1.19889,0.6097804 0.780311,0 1.178219,-0.5994444 0.397907,-0.604613 0.403074,-1.436601 v -0.134358 q 0,-0.821653 -0.397907,-1.4366 -0.397907,-0.620115 -1.193722,-0.620115 -0.790646,0 -1.188554,0.620115 -0.392739,0.614947 -0.392739,1.4366 z"
         style="font-style:normal;font-variant:normal;font-weight:normal;font-stretch:normal;font-family:Roboto;-inkscape-font-specification:Roboto;fill:#4d4d4d;stroke-width:0.264583"
         id="path1067" />
      <path
         d="m 21.3689,-9.2483609 -0.02067,-0.5529361 q -0.547768,0.6562886 -1.63297,0.6562886 -0.821653,0 -1.32808,-0.4857569 -0.506427,-0.4857567 -0.506427,-1.6019647 v -3.607003 h 0.956011 v 3.617339 q 0,0.754473 0.315225,1.012855 0.320393,0.2532132 0.713132,0.2532132 1.080034,0 1.457271,-0.8113172 v -4.07209 h 0.961179 v 5.5913721 z"
         style="font-style:normal;font-variant:normal;font-weight:normal;font-stretch:normal;font-family:Roboto;-inkscape-font-specification:Roboto;fill:#4d4d4d;stroke-width:0.264583"
         id="path1069" />
      <path
         d="m 26.986113,-10.73147 q 0,-0.30489 -0.227375,-0.547768 -0.222208,-0.248046 -1.033526,-0.41341 -0.93534,-0.191203 -1.488276,-0.552936 -0.552936,-0.366902 -0.552936,-1.064532 0,-0.661456 0.563271,-1.147213 0.568439,-0.485757 1.508947,-0.485757 1.00252,0 1.565791,0.511595 0.563271,0.511595 0.563271,1.235063 h -0.956011 q 0,-0.346231 -0.30489,-0.651121 -0.30489,-0.310057 -0.868161,-0.310057 -0.594277,0 -0.852658,0.258381 -0.258382,0.258381 -0.258382,0.563271 0,0.30489 0.237711,0.496092 0.242879,0.186035 1.02319,0.361734 1.028358,0.232544 1.529618,0.60978 0.506427,0.377237 0.506427,1.064531 0,0.738971 -0.594277,1.1988899 -0.589109,0.4599187 -1.565791,0.4599187 -1.11104,0 -1.700149,-0.5684389 -0.589109,-0.5684387 -0.589109,-1.2609007 h 0.961178 q 0.03101,0.594277 0.454751,0.821652 0.428913,0.2222084 0.873329,0.2222084 0.583942,0 0.894,-0.2273754 0.310057,-0.227376 0.310057,-0.573607 z"
         style="font-style:normal;font-variant:normal;font-weight:normal;font-stretch:normal;font-family:Roboto;-inkscape-font-specification:Roboto;fill:#4d4d4d;stroke-width:0.264583"
         id="path1071" />
      <path
         d="m 36.019125,-14.839733 -2.010207,5.5913721 h -0.728635 l -2.02571,-5.5913721 h 0.981849 l 1.421098,4.283963 1.384924,-4.283963 z"
         style="font-style:normal;font-variant:normal;font-weight:normal;font-stretch:normal;font-family:Roboto;-inkscape-font-specification:Roboto;fill:#4d4d4d;stroke-width:0.264583"
         id="path1073" />
      <path
         d="m 41.300436,-10.225042 q -0.273885,0.4134098 -0.775145,0.7493055 -0.501259,0.3307281 -1.32808,0.3307281 -1.167883,0 -1.87068,-0.7596411 -0.69763,-0.7596415 -0.69763,-1.9430275 v -0.21704 q 0,-0.91467 0.346231,-1.555456 0.351399,-0.645954 0.909502,-0.981849 0.558104,-0.341064 1.188554,-0.341064 1.19889,0 1.746658,0.78548 0.552936,0.780311 0.552936,1.953363 v 0.428913 h -3.782703 q 0.02067,0.769976 0.454752,1.312577 0.439248,0.537433 1.204057,0.537433 0.506427,0 0.857826,-0.206705 0.351398,-0.206705 0.614947,-0.552936 z m -2.227248,-3.932564 q -0.568439,0 -0.961178,0.41341 -0.39274,0.41341 -0.490925,1.188554 h 2.795686 v -0.07235 q -0.03617,-0.558104 -0.32556,-1.04386 -0.28422,-0.485757 -1.018023,-0.485757 z"
         style="font-style:normal;font-variant:normal;font-weight:normal;font-stretch:normal;font-family:Roboto;-inkscape-font-specification:Roboto;fill:#4d4d4d;stroke-width:0.264583"
         id="path1075" />
      <path
         d="m 44.731745,-14.023248 q -0.935341,0 -1.276404,0.80615 v 3.9687371 H 42.49933 v -5.5913721 h 0.930173 l 0.02067,0.640786 q 0.459919,-0.744139 1.328081,-0.744139 0.268716,0 0.423745,0.07235 l -0.0052,0.888832 q -0.211872,-0.04134 -0.465086,-0.04134 z"
         style="font-style:normal;font-variant:normal;font-weight:normal;font-stretch:normal;font-family:Roboto;-inkscape-font-specification:Roboto;fill:#4d4d4d;stroke-width:0.264583"
         id="path1077" />
      <path
         d="m 49.351599,-10.73147 q 0,-0.30489 -0.227375,-0.547768 -0.222208,-0.248046 -1.033526,-0.41341 -0.93534,-0.191203 -1.488276,-0.552936 -0.552936,-0.366902 -0.552936,-1.064532 0,-0.661456 0.563271,-1.147213 0.568439,-0.485757 1.508947,-0.485757 1.00252,0 1.565791,0.511595 0.563271,0.511595 0.563271,1.235063 h -0.95601 q 0,-0.346231 -0.30489,-0.651121 -0.30489,-0.310057 -0.868162,-0.310057 -0.594277,0 -0.852658,0.258381 -0.258382,0.258381 -0.258382,0.563271 0,0.30489 0.237711,0.496092 0.242879,0.186035 1.02319,0.361734 1.028358,0.232544 1.529618,0.60978 0.506427,0.377237 0.506427,1.064531 0,0.738971 -0.594277,1.1988899 -0.589109,0.4599187 -1.565791,0.4599187 -1.111039,0 -1.700149,-0.5684389 -0.589109,-0.5684387 -0.589109,-1.2609007 h 0.961178 q 0.03101,0.594277 0.454751,0.821652 0.428913,0.2222084 0.873329,0.2222084 0.583942,0 0.894,-0.2273754 0.310057,-0.227376 0.310057,-0.573607 z"
         style="font-style:normal;font-variant:normal;font-weight:normal;font-stretch:normal;font-family:Roboto;-inkscape-font-specification:Roboto;fill:#4d4d4d;stroke-width:0.264583"
         id="path1079" />
      <path
         d="m 51.558178,-16.322842 q 0,-0.232543 0.139526,-0.39274 0.144694,-0.160196 0.423745,-0.160196 0.273885,0 0.418578,0.160196 0.149861,0.160197 0.149861,0.39274 0,0.222208 -0.149861,0.382404 -0.144693,0.155029 -0.418578,0.155029 -0.279051,0 -0.423745,-0.155029 -0.139526,-0.160196 -0.139526,-0.382404 z m 1.033526,1.483109 v 5.5913721 h -0.961179 v -5.5913721 z"
         style="font-style:normal;font-variant:normal;font-weight:normal;font-stretch:normal;font-family:Roboto;-inkscape-font-specification:Roboto;fill:#4d4d4d;stroke-width:0.264583"
         id="path1081" />
      <path
         d="m 53.883606,-12.100891 q 0,-1.214392 0.682126,-2.02571 0.682127,-0.816485 1.855178,-0.816485 1.173052,0 1.855178,0.800983 0.682127,0.795814 0.69763,1.989536 v 0.170532 q 0,1.214392 -0.687294,2.0257092 -0.682127,0.8113174 -1.855178,0.8113174 -1.178219,0 -1.865514,-0.8113174 -0.682126,-0.8113172 -0.682126,-2.0257092 z m 0.956011,0.118856 q 0,0.831987 0.392739,1.441767 0.397908,0.6097804 1.19889,0.6097804 0.780311,0 1.178219,-0.5994444 0.397907,-0.604613 0.403075,-1.436601 v -0.134358 q 0,-0.821653 -0.397908,-1.4366 -0.397907,-0.620115 -1.193722,-0.620115 -0.790646,0 -1.188554,0.620115 -0.392739,0.614947 -0.392739,1.4366 z"
         style="font-style:normal;font-variant:normal;font-weight:normal;font-stretch:normal;font-family:Roboto;-inkscape-font-specification:Roboto;fill:#4d4d4d;stroke-width:0.264583"
         id="path1083" />
      <path
         d="m 62.492873,-14.136936 q -0.459918,0 -0.811317,0.248046 -0.351399,0.248046 -0.552936,0.645954 v 3.9945751 h -0.956011 v -5.5913721 h 0.904335 l 0.03101,0.69763 q 0.635618,-0.800983 1.669144,-0.800983 0.821652,0 1.302242,0.459919 0.485757,0.459919 0.490924,1.545121 v 3.6896851 h -0.961178 v -3.6741831 q 0,-0.656288 -0.289387,-0.93534 -0.28422,-0.279052 -0.826821,-0.279052 z"
         style="font-style:normal;font-variant:normal;font-weight:normal;font-stretch:normal;font-family:Roboto;-inkscape-font-specification:Roboto;fill:#4d4d4d;stroke-width:0.264583"
         id="path1085" />
      <path
         d="m 66.890525,-10.385239 v 0.7699766 q 0,0.470254 -0.237711,0.9921843 -0.237711,0.527098 -0.666624,0.8784966 l -0.542601,-0.3772368 q 0.496092,-0.692462 0.511595,-1.4159297 v -0.847491 z"
         style="font-style:normal;font-variant:normal;font-weight:normal;font-stretch:normal;font-family:Roboto;-inkscape-font-specification:Roboto;fill:#4d4d4d;stroke-width:0.264583"
         id="path1087" />
      <path
         d="m 74.202716,-9.2483609 -0.02067,-0.5529361 q -0.547769,0.6562886 -1.63297,0.6562886 -0.821653,0 -1.32808,-0.4857569 -0.506428,-0.4857567 -0.506428,-1.6019647 v -3.607003 h 0.956011 v 3.617339 q 0,0.754473 0.315225,1.012855 0.320393,0.2532132 0.713133,0.2532132 1.080034,0 1.457271,-0.8113172 v -4.07209 h 0.961178 v 5.5913721 z"
         style="font-style:normal;font-variant:normal;font-weight:normal;font-stretch:normal;font-family:Roboto;-inkscape-font-specification:Roboto;fill:#4d4d4d;stroke-width:0.264583"
         id="path1089" />
      <path
         d="m 79.81993,-10.73147 q 0,-0.30489 -0.227376,-0.547768 -0.222208,-0.248046 -1.033525,-0.41341 -0.935341,-0.191203 -1.488277,-0.552936 -0.552936,-0.366902 -0.552936,-1.064532 0,-0.661456 0.563272,-1.147213 0.568439,-0.485757 1.508947,-0.485757 1.002519,0 1.565791,0.511595 0.563271,0.511595 0.563271,1.235063 h -0.956011 q 0,-0.346231 -0.30489,-0.651121 -0.30489,-0.310057 -0.868161,-0.310057 -0.594277,0 -0.852659,0.258381 -0.258381,0.258381 -0.258381,0.563271 0,0.30489 0.237711,0.496092 0.242878,0.186035 1.02319,0.361734 1.028358,0.232544 1.529617,0.60978 0.506428,0.377237 0.506428,1.064531 0,0.738971 -0.594277,1.1988899 -0.58911,0.4599187 -1.565791,0.4599187 -1.11104,0 -1.700149,-0.5684389 -0.58911,-0.5684387 -0.58911,-1.2609007 h 0.961179 q 0.03101,0.594277 0.454751,0.821652 0.428913,0.2222084 0.873329,0.2222084 0.583942,0 0.893999,-0.2273754 0.310058,-0.227376 0.310058,-0.573607 z"
         style="font-style:normal;font-variant:normal;font-weight:normal;font-stretch:normal;font-family:Roboto;-inkscape-font-specification:Roboto;fill:#4d4d4d;stroke-width:0.264583"
         id="path1091" />
      <path
         d="m 86.444822,-10.225042 q -0.273884,0.4134098 -0.775144,0.7493055 -0.50126,0.3307281 -1.32808,0.3307281 -1.167884,0 -1.870681,-0.7596411 -0.69763,-0.7596415 -0.69763,-1.9430275 v -0.21704 q 0,-0.91467 0.346231,-1.555456 0.351399,-0.645954 0.909503,-0.981849 0.558103,-0.341064 1.188554,-0.341064 1.198889,0 1.746658,0.78548 0.552936,0.780311 0.552936,1.953363 v 0.428913 h -3.782703 q 0.02067,0.769976 0.454751,1.312577 0.439248,0.537433 1.204057,0.537433 0.506427,0 0.857826,-0.206705 0.351399,-0.206705 0.614948,-0.552936 z m -2.227247,-3.932564 q -0.568439,0 -0.961179,0.41341 -0.39274,0.41341 -0.490924,1.188554 h 2.795686 v -0.07235 q -0.03617,-0.558104 -0.325561,-1.04386 -0.284219,-0.485757 -1.018022,-0.485757 z"
         style="font-style:normal;font-variant:normal;font-weight:normal;font-stretch:normal;font-family:Roboto;-inkscape-font-specification:Roboto;fill:#4d4d4d;stroke-width:0.264583"
         id="path1093" />
      <path
         d="m 92.501291,-14.023248 q -0.93534,0 -1.276403,0.80615 v 3.9687371 h -0.956011 v -5.5913721 h 0.930172 l 0.02067,0.640786 q 0.459919,-0.744139 1.32808,-0.744139 0.268717,0 0.423745,0.07235 l -0.0052,0.888832 q -0.211873,-0.04134 -0.465087,-0.04134 z"
         style="font-style:normal;font-variant:normal;font-weight:normal;font-stretch:normal;font-family:Roboto;-inkscape-font-specification:Roboto;fill:#4d4d4d;stroke-width:0.264583"
         id="path1095" />
      <path
         d="m 98.185667,-10.225042 q -0.273885,0.4134098 -0.775144,0.7493055 -0.50126,0.3307281 -1.328081,0.3307281 -1.167883,0 -1.87068,-0.7596411 -0.69763,-0.7596415 -0.69763,-1.9430275 v -0.21704 q 0,-0.91467 0.346231,-1.555456 0.351399,-0.645954 0.909502,-0.981849 0.558104,-0.341064 1.188554,-0.341064 1.19889,0 1.746658,0.78548 0.552936,0.780311 0.552936,1.953363 v 0.428913 h -3.782702 q 0.02067,0.769976 0.454751,1.312577 0.439248,0.537433 1.204057,0.537433 0.506427,0 0.857826,-0.206705 0.351398,-0.206705 0.614947,-0.552936 z m -2.227248,-3.932564 q -0.568439,0 -0.961178,0.41341 -0.39274,0.41341 -0.490925,1.188554 h 2.795686 v -0.07235 q -0.03617,-0.558104 -0.32556,-1.04386 -0.28422,-0.485757 -1.018023,-0.485757 z"
         style="font-style:normal;font-variant:normal;font-weight:normal;font-stretch:normal;font-family:Roboto;-inkscape-font-specification:Roboto;fill:#4d4d4d;stroke-width:0.264583"
         id="path1097" />
      <path
         d="m 100.42326,-17.185836 v 7.9374751 h -0.961177 v -7.9374751 z"
         style="font-style:normal;font-variant:normal;font-weight:normal;font-stretch:normal;font-family:Roboto;-inkscape-font-specification:Roboto;fill:#4d4d4d;stroke-width:0.264583"
         id="path1099" />
      <path
         d="m 106.39186,-10.225042 q -0.27389,0.4134098 -0.77515,0.7493055 -0.50126,0.3307281 -1.32808,0.3307281 -1.16788,0 -1.87068,-0.7596411 -0.69763,-0.7596415 -0.69763,-1.9430275 v -0.21704 q 0,-0.91467 0.34623,-1.555456 0.3514,-0.645954 0.90951,-0.981849 0.5581,-0.341064 1.18855,-0.341064 1.19889,0 1.74666,0.78548 0.55294,0.780311 0.55294,1.953363 v 0.428913 h -3.78271 q 0.0207,0.769976 0.45475,1.312577 0.43925,0.537433 1.20406,0.537433 0.50643,0 0.85783,-0.206705 0.3514,-0.206705 0.61494,-0.552936 z m -2.22725,-3.932564 q -0.56844,0 -0.96118,0.41341 -0.39274,0.41341 -0.49092,1.188554 h 2.79568 v -0.07235 q -0.0362,-0.558104 -0.32556,-1.04386 -0.28422,-0.485757 -1.01802,-0.485757 z"
         style="font-style:normal;font-variant:normal;font-weight:normal;font-stretch:normal;font-family:Roboto;-inkscape-font-specification:Roboto;fill:#4d4d4d;stroke-width:0.264583"
         id="path1101" />
      <path
         d="m 111.04274,-9.2483609 q -0.093,-0.2015374 -0.13436,-0.5891095 -0.26872,0.2842195 -0.67179,0.4909246 -0.40308,0.2015374 -0.91984,0.2015374 -0.85783,0 -1.37459,-0.4805893 -0.51676,-0.4805893 -0.51676,-1.1782193 0,-0.899167 0.68212,-1.364253 0.68213,-0.470254 1.83451,-0.470254 h 0.94568 v -0.444416 q 0,-0.496092 -0.29973,-0.790647 -0.29455,-0.299722 -0.87849,-0.299722 -0.5426,0 -0.8785,0.268716 -0.33073,0.263549 -0.33073,0.614948 h -0.95601 q 0,-0.599445 0.60461,-1.126543 0.60462,-0.527098 1.61747,-0.527098 0.9095,0 1.49345,0.465087 0.58394,0.465086 0.58394,1.405594 v 2.511467 q 0,0.7751439 0.19637,1.2298951 v 0.082682 z m -1.58647,-0.733803 q 0.51677,0 0.894,-0.2583811 0.38241,-0.258382 0.53744,-0.573607 v -1.152381 h -0.88884 q -1.61229,0.03101 -1.61229,1.033526 0,0.397907 0.26871,0.676959 0.26872,0.2738841 0.80098,0.2738841 z"
         style="font-style:normal;font-variant:normal;font-weight:normal;font-stretch:normal;font-family:Roboto;-inkscape-font-specification:Roboto;fill:#4d4d4d;stroke-width:0.264583"
         id="path1103" />
      <path
         d="m 116.61342,-10.73147 q 0,-0.30489 -0.22737,-0.547768 -0.22221,-0.248046 -1.03353,-0.41341 -0.93534,-0.191203 -1.48827,-0.552936 -0.55294,-0.366902 -0.55294,-1.064532 0,-0.661456 0.56327,-1.147213 0.56844,-0.485757 1.50895,-0.485757 1.00252,0 1.56579,0.511595 0.56327,0.511595 0.56327,1.235063 h -0.95601 q 0,-0.346231 -0.30489,-0.651121 -0.30489,-0.310057 -0.86816,-0.310057 -0.59428,0 -0.85266,0.258381 -0.25838,0.258381 -0.25838,0.563271 0,0.30489 0.23771,0.496092 0.24288,0.186035 1.02319,0.361734 1.02836,0.232544 1.52962,0.60978 0.50643,0.377237 0.50643,1.064531 0,0.738971 -0.59428,1.1988899 -0.58911,0.4599187 -1.56579,0.4599187 -1.11104,0 -1.70015,-0.5684389 -0.58911,-0.5684387 -0.58911,-1.2609007 h 0.96118 q 0.031,0.594277 0.45475,0.821652 0.42891,0.2222084 0.87333,0.2222084 0.58394,0 0.894,-0.2273754 0.31005,-0.227376 0.31005,-0.573607 z"
         style="font-style:normal;font-variant:normal;font-weight:normal;font-stretch:normal;font-family:Roboto;-inkscape-font-specification:Roboto;fill:#4d4d4d;stroke-width:0.264583"
         id="path1105" />
      <path
         d="m 123.23832,-10.225042 q -0.27388,0.4134098 -0.77514,0.7493055 -0.50126,0.3307281 -1.32808,0.3307281 -1.16788,0 -1.87068,-0.7596411 -0.69763,-0.7596415 -0.69763,-1.9430275 v -0.21704 q 0,-0.91467 0.34623,-1.555456 0.3514,-0.645954 0.9095,-0.981849 0.55811,-0.341064 1.18856,-0.341064 1.19889,0 1.74666,0.78548 0.55293,0.780311 0.55293,1.953363 v 0.428913 h -3.7827 q 0.0207,0.769976 0.45475,1.312577 0.43925,0.537433 1.20406,0.537433 0.50642,0 0.85782,-0.206705 0.3514,-0.206705 0.61495,-0.552936 z m -2.22724,-3.932564 q -0.56844,0 -0.96118,0.41341 -0.39274,0.41341 -0.49093,1.188554 h 2.79569 v -0.07235 q -0.0362,-0.558104 -0.32556,-1.04386 -0.28422,-0.485757 -1.01802,-0.485757 z"
         style="font-style:normal;font-variant:normal;font-weight:normal;font-stretch:normal;font-family:Roboto;-inkscape-font-specification:Roboto;fill:#4d4d4d;stroke-width:0.264583"
         id="path1107" />
      <path
         d="m 131.26881,-14.839733 -2.0102,5.5913721 h -0.72864 l -2.02571,-5.5913721 h 0.98185 l 1.4211,4.283963 1.38492,-4.283963 z"
         style="font-style:normal;font-variant:normal;font-weight:normal;font-stretch:normal;font-family:Roboto;-inkscape-font-specification:Roboto;fill:#4d4d4d;stroke-width:0.264583"
         id="path1109" />
      <path
         d="m 136.80852,-12.462625 q 0,1.850011 -0.64079,2.5838136 -0.63561,0.733803 -1.73115,0.733803 -1.06453,0 -1.71565,-0.7131325 -0.64596,-0.7131321 -0.66663,-2.4856281 v -1.266069 q 0,-1.844843 0.64596,-2.552808 0.64595,-0.713132 1.72598,-0.713132 1.08004,0 1.72082,0.692462 0.64079,0.687294 0.66146,2.454623 z m -0.96118,-1.307409 q 0,-1.271237 -0.36173,-1.798334 -0.36174,-0.527098 -1.05937,-0.527098 -0.67179,0 -1.03869,0.511595 -0.36173,0.511595 -0.37207,1.74149 v 1.534785 q 0,1.260901 0.3669,1.819005 0.37207,0.5581034 1.0542,0.5581034 0.69763,0 1.04903,-0.5477684 0.35656,-0.552936 0.36173,-1.787999 z"
         style="font-style:normal;font-variant:normal;font-weight:normal;font-stretch:normal;font-family:Roboto;-inkscape-font-specification:Roboto;fill:#4d4d4d;stroke-width:0.264583"
         id="path1111" />
      <path
         d="m 138.15727,-9.7547883 q 0,-0.2428785 0.14986,-0.4082427 0.15503,-0.170532 0.44442,-0.170532 0.28939,0 0.43925,0.170532 0.15503,0.1653642 0.15503,0.4082427 0,0.2377108 -0.15503,0.4030749 -0.14986,0.165364 -0.43925,0.165364 -0.28939,0 -0.44442,-0.165364 -0.14986,-0.1653641 -0.14986,-0.4030749 z"
         style="font-style:normal;font-variant:normal;font-weight:normal;font-stretch:normal;font-family:Roboto;-inkscape-font-specification:Roboto;fill:#4d4d4d;stroke-width:0.264583"
         id="path1113" />
      <path
         d="m 143.97085,-16.813767 v 7.5654061 h -0.95601 v -6.3716841 l -1.92753,0.702798 v -0.862994 l 2.73368,-1.033526 z"
         style="font-style:normal;font-variant:normal;font-weight:normal;font-stretch:normal;font-family:Roboto;-inkscape-font-specification:Roboto;fill:#4d4d4d;stroke-width:0.264583"
         id="path1115" />
      <path
         d="m 148.02227,-16.772425 -0.0672,5.400169 h -0.86299 l -0.0724,-5.400169 z m -1.03352,7.0434748 q 0,-0.2325432 0.13952,-0.3927398 0.14469,-0.160196 0.42375,-0.160196 0.27388,0 0.41857,0.160196 0.14987,0.1601966 0.14987,0.3927398 0,0.222208 -0.14987,0.3824044 -0.14469,0.1601964 -0.41857,0.1601964 -0.27906,0 -0.42375,-0.1601964 -0.13952,-0.1601964 -0.13952,-0.3824044 z"
         style="font-style:normal;font-variant:normal;font-weight:normal;font-stretch:normal;font-family:Roboto;-inkscape-font-specification:Roboto;fill:#4d4d4d;stroke-width:0.264583"
         id="path1117" />
    </g>
    <g
       aria-label="!"
       id="text847"
       style="font-style:normal;font-weight:normal;font-size:69.621px;line-height:1.25;font-family:sans-serif;fill:#ff5555;fill-opacity:1;stroke:none;stroke-width:1.74053">
      <path
         d="m -59.875031,-15.733306 h 6.90091 v 8.6346365 h -6.90091 z m 0,-42.119346 h 6.90091 v 22.266483 l -0.679893,12.136082 h -5.50713 l -0.713887,-12.136082 z"
         style="fill:#ff5555;stroke-width:1.74053"
         id="path1120" />
    </g>
  </g>
</svg>
