<?xml version="1.0" encoding="UTF-8" standalone="no"?>
<!DOCTYPE svg PUBLIC "-//W3C//DTD SVG 1.1//EN"
 "http://www.w3.org/Graphics/SVG/1.1/DTD/svg11.dtd">
<!-- Generated by graphviz version 2.42.3 (20191010.1750)
 -->
<!-- Title: LegendSpecs Pages: 1 -->
<svg width="631pt" height="142pt"
 viewBox="0.00 0.00 631.00 142.00" xmlns="http://www.w3.org/2000/svg" xmlns:xlink="http://www.w3.org/1999/xlink">
<g id="graph0" class="graph" transform="scale(1 1) rotate(0) translate(4 138)">
<title>LegendSpecs</title>
<polygon fill="white" stroke="transparent" points="-4,4 -4,-138 627,-138 627,4 -4,4"/>
<!-- Node1 -->
<g id="node1" class="node">
<title>Node1</title>
<g id="a_node1"><a xlink:title="The class used to specify options for legend.">
<polygon fill="#bfbfbf" stroke="black" points="547,-57.5 547,-76.5 623,-76.5 623,-57.5 547,-57.5"/>
<text text-anchor="middle" x="585" y="-64.5" font-family="Helvetica,sans-Serif" font-size="10.00">LegendSpecs</text>
</a>
</g>
</g>
<!-- Node2 -->
<g id="node2" class="node">
<title>Node2</title>
<g id="a_node2"><a xlink:href="classsciplot_1_1TextSpecsOf.html" target="_top" xlink:title=" ">
<polygon fill="white" stroke="black" points="356.5,-114.5 356.5,-133.5 508.5,-133.5 508.5,-114.5 356.5,-114.5"/>
<text text-anchor="middle" x="432.5" y="-121.5" font-family="Helvetica,sans-Serif" font-size="10.00">TextSpecsOf&lt; LegendSpecs &gt;</text>
</a>
</g>
</g>
<!-- Node2&#45;&gt;Node1 -->
<g id="edge1" class="edge">
<title>Node2&#45;&gt;Node1</title>
<path fill="none" stroke="midnightblue" d="M490.05,-111.82C497.18,-109.79 504.32,-107.52 511,-105 531.59,-97.24 553.83,-85.07 568.27,-76.6"/>
<polygon fill="midnightblue" stroke="midnightblue" points="489.1,-108.45 480.36,-114.43 490.93,-115.21 489.1,-108.45"/>
</g>
<!-- Node3 -->
<g id="node3" class="node">
<title>Node3</title>
<g id="a_node3"><a xlink:href="classsciplot_1_1FontSpecsOf.html" target="_top" xlink:title=" ">
<polygon fill="white" stroke="black" points="162,-114.5 162,-133.5 314,-133.5 314,-114.5 162,-114.5"/>
<text text-anchor="middle" x="238" y="-121.5" font-family="Helvetica,sans-Serif" font-size="10.00">FontSpecsOf&lt; LegendSpecs &gt;</text>
</a>
</g>
</g>
<!-- Node3&#45;&gt;Node2 -->
<g id="edge2" class="edge">
<title>Node3&#45;&gt;Node2</title>
<path fill="none" stroke="midnightblue" d="M324.38,-124C335.02,-124 345.83,-124 356.3,-124"/>
<polygon fill="midnightblue" stroke="midnightblue" points="324.25,-120.5 314.25,-124 324.25,-127.5 324.25,-120.5"/>
</g>
<!-- Node4 -->
<g id="node4" class="node">
<title>Node4</title>
<g id="a_node4"><a xlink:href="classsciplot_1_1Specs.html" target="_top" xlink:title=" ">
<polygon fill="white" stroke="black" points="0,-57.5 0,-76.5 122,-76.5 122,-57.5 0,-57.5"/>
<text text-anchor="middle" x="61" y="-64.5" font-family="Helvetica,sans-Serif" font-size="10.00">Specs&lt; LegendSpecs &gt;</text>
</a>
</g>
</g>
<!-- Node4&#45;&gt;Node3 -->
<g id="edge3" class="edge">
<title>Node4&#45;&gt;Node3</title>
<path fill="none" stroke="midnightblue" d="M98.31,-79.83C116.23,-86.07 138.19,-93.59 158,-100 173.27,-104.94 190.3,-110.16 204.63,-114.45"/>
<polygon fill="midnightblue" stroke="midnightblue" points="99.41,-76.5 88.81,-76.51 97.09,-83.11 99.41,-76.5"/>
</g>
<!-- Node5 -->
<g id="node5" class="node">
<title>Node5</title>
<g id="a_node5"><a xlink:href="classsciplot_1_1ShowSpecsOf.html" target="_top" xlink:title=" ">
<polygon fill="white" stroke="black" points="354,-76.5 354,-95.5 511,-95.5 511,-76.5 354,-76.5"/>
<text text-anchor="middle" x="432.5" y="-83.5" font-family="Helvetica,sans-Serif" font-size="10.00">ShowSpecsOf&lt; LegendSpecs &gt;</text>
</a>
</g>
</g>
<!-- Node4&#45;&gt;Node5 -->
<g id="edge5" class="edge">
<title>Node4&#45;&gt;Node5</title>
<path fill="none" stroke="midnightblue" d="M132.48,-70.62C195.8,-73.88 288.6,-78.65 353.99,-82.01"/>
<polygon fill="midnightblue" stroke="midnightblue" points="132.36,-67.11 122.19,-70.09 132,-74.1 132.36,-67.11"/>
</g>
<!-- Node6 -->
<g id="node6" class="node">
<title>Node6</title>
<g id="a_node6"><a xlink:href="classsciplot_1_1TitleSpecsOf.html" target="_top" xlink:title=" ">
<polygon fill="white" stroke="black" points="357,-38.5 357,-57.5 508,-57.5 508,-38.5 357,-38.5"/>
<text text-anchor="middle" x="432.5" y="-45.5" font-family="Helvetica,sans-Serif" font-size="10.00">TitleSpecsOf&lt; LegendSpecs &gt;</text>
</a>
</g>
</g>
<!-- Node4&#45;&gt;Node6 -->
<g id="edge7" class="edge">
<title>Node4&#45;&gt;Node6</title>
<path fill="none" stroke="midnightblue" d="M132.24,-63.39C196.53,-60.08 291.37,-55.21 356.98,-51.83"/>
<polygon fill="midnightblue" stroke="midnightblue" points="132,-59.9 122.19,-63.91 132.36,-66.89 132,-59.9"/>
</g>
<!-- Node7 -->
<g id="node7" class="node">
<title>Node7</title>
<g id="a_node7"><a xlink:href="classsciplot_1_1FrameSpecsOf.html" target="_top" xlink:title=" ">
<polygon fill="white" stroke="black" points="158,-0.5 158,-19.5 318,-19.5 318,-0.5 158,-0.5"/>
<text text-anchor="middle" x="238" y="-7.5" font-family="Helvetica,sans-Serif" font-size="10.00">FrameSpecsOf&lt; LegendSpecs &gt;</text>
</a>
</g>
</g>
<!-- Node4&#45;&gt;Node7 -->
<g id="edge9" class="edge">
<title>Node4&#45;&gt;Node7</title>
<path fill="none" stroke="midnightblue" d="M98.31,-54.17C116.23,-47.93 138.19,-40.41 158,-34 173.27,-29.06 190.3,-23.84 204.63,-19.55"/>
<polygon fill="midnightblue" stroke="midnightblue" points="97.09,-50.89 88.81,-57.49 99.41,-57.5 97.09,-50.89"/>
</g>
<!-- Node5&#45;&gt;Node1 -->
<g id="edge4" class="edge">
<title>Node5&#45;&gt;Node1</title>
<path fill="none" stroke="midnightblue" d="M519.24,-75.18C528.82,-73.97 538.18,-72.78 546.66,-71.71"/>
<polygon fill="midnightblue" stroke="midnightblue" points="518.67,-71.72 509.19,-76.44 519.55,-78.66 518.67,-71.72"/>
</g>
<!-- Node6&#45;&gt;Node1 -->
<g id="edge6" class="edge">
<title>Node6&#45;&gt;Node1</title>
<path fill="none" stroke="midnightblue" d="M518.36,-58.71C528.35,-59.97 538.12,-61.21 546.94,-62.32"/>
<polygon fill="midnightblue" stroke="midnightblue" points="518.67,-55.22 508.31,-57.44 517.79,-62.17 518.67,-55.22"/>
</g>
<!-- Node7&#45;&gt;Node1 -->
<g id="edge8" class="edge">
<title>Node7&#45;&gt;Node1</title>
<path fill="none" stroke="midnightblue" d="M328.34,-7.14C382.18,-7.64 451.61,-12.25 511,-29 532.87,-35.17 555.73,-48.33 569.92,-57.42"/>
<polygon fill="midnightblue" stroke="midnightblue" points="328.14,-3.63 318.13,-7.09 328.11,-10.63 328.14,-3.63"/>
</g>
</g>
</svg>
