<?xml version="1.0" encoding="UTF-8" standalone="no"?>
<!DOCTYPE svg PUBLIC "-//W3C//DTD SVG 1.1//EN"
 "http://www.w3.org/Graphics/SVG/1.1/DTD/svg11.dtd">
<!-- Generated by graphviz version 2.42.3 (20191010.1750)
 -->
<!-- Title: DepthSpecs Pages: 1 -->
<svg width="161pt" height="140pt"
 viewBox="0.00 0.00 161.00 140.00" xmlns="http://www.w3.org/2000/svg" xmlns:xlink="http://www.w3.org/1999/xlink">
<g id="graph0" class="graph" transform="scale(1 1) rotate(0) translate(4 136)">
<title>DepthSpecs</title>
<polygon fill="white" stroke="transparent" points="-4,4 -4,-136 157,-136 157,4 -4,4"/>
<!-- Node1 -->
<g id="node1" class="node">
<title>Node1</title>
<g id="a_node1"><a xlink:title="The class used to specify depth options.">
<polygon fill="#bfbfbf" stroke="black" points="41,-0.5 41,-19.5 112,-19.5 112,-0.5 41,-0.5"/>
<text text-anchor="middle" x="76.5" y="-7.5" font-family="Helvetica,sans-Serif" font-size="10.00">DepthSpecs</text>
</a>
</g>
</g>
<!-- Node2 -->
<g id="node2" class="node">
<title>Node2</title>
<g id="a_node2"><a xlink:href="classsciplot_1_1DepthSpecsOf.html" target="_top" xlink:title=" ">
<polygon fill="white" stroke="black" points="0,-56.5 0,-75.5 153,-75.5 153,-56.5 0,-56.5"/>
<text text-anchor="middle" x="76.5" y="-63.5" font-family="Helvetica,sans-Serif" font-size="10.00">DepthSpecsOf&lt; DepthSpecs &gt;</text>
</a>
</g>
</g>
<!-- Node2&#45;&gt;Node1 -->
<g id="edge1" class="edge">
<title>Node2&#45;&gt;Node1</title>
<path fill="none" stroke="midnightblue" d="M76.5,-45.8C76.5,-36.91 76.5,-26.78 76.5,-19.75"/>
<polygon fill="midnightblue" stroke="midnightblue" points="73,-46.08 76.5,-56.08 80,-46.08 73,-46.08"/>
</g>
<!-- Node3 -->
<g id="node3" class="node">
<title>Node3</title>
<g id="a_node3"><a xlink:href="classsciplot_1_1Specs.html" target="_top" xlink:title=" ">
<polygon fill="white" stroke="black" points="18.5,-112.5 18.5,-131.5 134.5,-131.5 134.5,-112.5 18.5,-112.5"/>
<text text-anchor="middle" x="76.5" y="-119.5" font-family="Helvetica,sans-Serif" font-size="10.00">Specs&lt; DepthSpecs &gt;</text>
</a>
</g>
</g>
<!-- Node3&#45;&gt;Node2 -->
<g id="edge2" class="edge">
<title>Node3&#45;&gt;Node2</title>
<path fill="none" stroke="midnightblue" d="M76.5,-101.8C76.5,-92.91 76.5,-82.78 76.5,-75.75"/>
<polygon fill="midnightblue" stroke="midnightblue" points="73,-102.08 76.5,-112.08 80,-102.08 73,-102.08"/>
</g>
</g>
</svg>
