<?xml version="1.0" encoding="UTF-8" standalone="no"?>
<!DOCTYPE svg PUBLIC "-//W3C//DTD SVG 1.1//EN"
 "http://www.w3.org/Graphics/SVG/1.1/DTD/svg11.dtd">
<!-- Generated by graphviz version 2.42.3 (20191010.1750)
 -->
<!-- Title: TicsSpecsMajor Pages: 1 -->
<svg width="855pt" height="113pt"
 viewBox="0.00 0.00 855.00 113.00" xmlns="http://www.w3.org/2000/svg" xmlns:xlink="http://www.w3.org/1999/xlink">
<g id="graph0" class="graph" transform="scale(1 1) rotate(0) translate(4 109)">
<title>TicsSpecsMajor</title>
<polygon fill="white" stroke="transparent" points="-4,4 -4,-109 851,-109 851,4 -4,4"/>
<!-- Node1 -->
<g id="node1" class="node">
<title>Node1</title>
<g id="a_node1"><a xlink:title="The class used to specify options for major tics of a specific axis.">
<polygon fill="#bfbfbf" stroke="black" points="760,-41.5 760,-60.5 847,-60.5 847,-41.5 760,-41.5"/>
<text text-anchor="middle" x="803.5" y="-48.5" font-family="Helvetica,sans-Serif" font-size="10.00">TicsSpecsMajor</text>
</a>
</g>
</g>
<!-- Node2 -->
<g id="node2" class="node">
<title>Node2</title>
<g id="a_node2"><a xlink:href="classsciplot_1_1TicsSpecsBaseOf.html" target="_top" xlink:title=" ">
<polygon fill="white" stroke="black" points="572,-36 572,-66 724,-66 724,-36 572,-36"/>
<text text-anchor="start" x="580" y="-54" font-family="Helvetica,sans-Serif" font-size="10.00">TicsSpecsBaseOf&lt; TicsSpecs</text>
<text text-anchor="middle" x="648" y="-43" font-family="Helvetica,sans-Serif" font-size="10.00">Major &gt;</text>
</a>
</g>
</g>
<!-- Node2&#45;&gt;Node1 -->
<g id="edge1" class="edge">
<title>Node2&#45;&gt;Node1</title>
<path fill="none" stroke="midnightblue" d="M734.62,-51C743.29,-51 751.8,-51 759.72,-51"/>
<polygon fill="midnightblue" stroke="midnightblue" points="734.4,-47.5 724.4,-51 734.4,-54.5 734.4,-47.5"/>
</g>
<!-- Node3 -->
<g id="node3" class="node">
<title>Node3</title>
<g id="a_node3"><a xlink:href="classsciplot_1_1TextSpecsOf.html" target="_top" xlink:title=" ">
<polygon fill="white" stroke="black" points="373,-85.5 373,-104.5 536,-104.5 536,-85.5 373,-85.5"/>
<text text-anchor="middle" x="454.5" y="-92.5" font-family="Helvetica,sans-Serif" font-size="10.00">TextSpecsOf&lt; TicsSpecsMajor &gt;</text>
</a>
</g>
</g>
<!-- Node3&#45;&gt;Node2 -->
<g id="edge2" class="edge">
<title>Node3&#45;&gt;Node2</title>
<path fill="none" stroke="midnightblue" d="M506.91,-83.19C529.82,-77.92 557.08,-71.66 581.43,-66.07"/>
<polygon fill="midnightblue" stroke="midnightblue" points="506.01,-79.8 497.05,-85.45 507.58,-86.62 506.01,-79.8"/>
</g>
<!-- Node4 -->
<g id="node4" class="node">
<title>Node4</title>
<g id="a_node4"><a xlink:href="classsciplot_1_1FontSpecsOf.html" target="_top" xlink:title=" ">
<polygon fill="white" stroke="black" points="171.5,-82.5 171.5,-101.5 334.5,-101.5 334.5,-82.5 171.5,-82.5"/>
<text text-anchor="middle" x="253" y="-89.5" font-family="Helvetica,sans-Serif" font-size="10.00">FontSpecsOf&lt; TicsSpecsMajor &gt;</text>
</a>
</g>
</g>
<!-- Node4&#45;&gt;Node3 -->
<g id="edge3" class="edge">
<title>Node4&#45;&gt;Node3</title>
<path fill="none" stroke="midnightblue" d="M344.73,-93.36C354.14,-93.51 363.66,-93.65 372.95,-93.79"/>
<polygon fill="midnightblue" stroke="midnightblue" points="344.62,-89.86 334.57,-93.21 344.52,-96.86 344.62,-89.86"/>
</g>
<!-- Node5 -->
<g id="node5" class="node">
<title>Node5</title>
<g id="a_node5"><a xlink:href="classsciplot_1_1Specs.html" target="_top" xlink:title=" ">
<polygon fill="white" stroke="black" points="0,-41.5 0,-60.5 133,-60.5 133,-41.5 0,-41.5"/>
<text text-anchor="middle" x="66.5" y="-48.5" font-family="Helvetica,sans-Serif" font-size="10.00">Specs&lt; TicsSpecsMajor &gt;</text>
</a>
</g>
</g>
<!-- Node5&#45;&gt;Node4 -->
<g id="edge4" class="edge">
<title>Node5&#45;&gt;Node4</title>
<path fill="none" stroke="midnightblue" d="M120.36,-62.75C148.5,-69 182.65,-76.59 209.12,-82.47"/>
<polygon fill="midnightblue" stroke="midnightblue" points="120.81,-59.26 110.29,-60.51 119.29,-66.1 120.81,-59.26"/>
</g>
<!-- Node6 -->
<g id="node6" class="node">
<title>Node6</title>
<g id="a_node6"><a xlink:href="classsciplot_1_1OffsetSpecsOf.html" target="_top" xlink:title=" ">
<polygon fill="white" stroke="black" points="386,-36 386,-66 523,-66 523,-36 386,-36"/>
<text text-anchor="start" x="394" y="-54" font-family="Helvetica,sans-Serif" font-size="10.00">OffsetSpecsOf&lt; TicsSpecs</text>
<text text-anchor="middle" x="454.5" y="-43" font-family="Helvetica,sans-Serif" font-size="10.00">Major &gt;</text>
</a>
</g>
</g>
<!-- Node5&#45;&gt;Node6 -->
<g id="edge6" class="edge">
<title>Node5&#45;&gt;Node6</title>
<path fill="none" stroke="midnightblue" d="M143.58,-51C214.15,-51 318.19,-51 385.91,-51"/>
<polygon fill="midnightblue" stroke="midnightblue" points="143.42,-47.5 133.42,-51 143.42,-54.5 143.42,-47.5"/>
</g>
<!-- Node7 -->
<g id="node7" class="node">
<title>Node7</title>
<g id="a_node7"><a xlink:href="classsciplot_1_1ShowSpecsOf.html" target="_top" xlink:title=" ">
<polygon fill="white" stroke="black" points="169,-0.5 169,-19.5 337,-19.5 337,-0.5 169,-0.5"/>
<text text-anchor="middle" x="253" y="-7.5" font-family="Helvetica,sans-Serif" font-size="10.00">ShowSpecsOf&lt; TicsSpecsMajor &gt;</text>
</a>
</g>
</g>
<!-- Node5&#45;&gt;Node7 -->
<g id="edge8" class="edge">
<title>Node5&#45;&gt;Node7</title>
<path fill="none" stroke="midnightblue" d="M120.36,-39.25C148.5,-33 182.65,-25.41 209.12,-19.53"/>
<polygon fill="midnightblue" stroke="midnightblue" points="119.29,-35.9 110.29,-41.49 120.81,-42.74 119.29,-35.9"/>
</g>
<!-- Node6&#45;&gt;Node2 -->
<g id="edge5" class="edge">
<title>Node6&#45;&gt;Node2</title>
<path fill="none" stroke="midnightblue" d="M533.17,-51C545.96,-51 559.21,-51 571.94,-51"/>
<polygon fill="midnightblue" stroke="midnightblue" points="533.02,-47.5 523.02,-51 533.02,-54.5 533.02,-47.5"/>
</g>
<!-- Node7&#45;&gt;Node2 -->
<g id="edge7" class="edge">
<title>Node7&#45;&gt;Node2</title>
<path fill="none" stroke="midnightblue" d="M347.13,-11.43C402.27,-13.24 473.37,-17.23 536,-26 553.22,-28.41 571.71,-32.12 588.57,-35.95"/>
<polygon fill="midnightblue" stroke="midnightblue" points="347.13,-7.93 337.02,-11.12 346.91,-14.93 347.13,-7.93"/>
</g>
</g>
</svg>
