<?xml version="1.0" encoding="UTF-8" standalone="no"?>
<!DOCTYPE svg PUBLIC "-//W3C//DTD SVG 1.1//EN"
 "http://www.w3.org/Graphics/SVG/1.1/DTD/svg11.dtd">
<!-- Generated by graphviz version 2.42.3 (20191010.1750)
 -->
<!-- Title: Specs&lt; DerivedSpecs &gt; Pages: 1 -->
<svg width="702pt" height="332pt"
 viewBox="0.00 0.00 702.00 332.00" xmlns="http://www.w3.org/2000/svg" xmlns:xlink="http://www.w3.org/1999/xlink">
<g id="graph0" class="graph" transform="scale(1 1) rotate(0) translate(4 328)">
<title>Specs&lt; DerivedSpecs &gt;</title>
<polygon fill="white" stroke="transparent" points="-4,4 -4,-328 698,-328 698,4 -4,4"/>
<!-- Node1 -->
<g id="node1" class="node">
<title>Node1</title>
<g id="a_node1"><a xlink:title="The base class for other specs classes (e.g., LineSpecsOf, DrawSpecs, BorderSpecs,...">
<polygon fill="#bfbfbf" stroke="black" points="0,-152.5 0,-171.5 124,-171.5 124,-152.5 0,-152.5"/>
<text text-anchor="middle" x="62" y="-159.5" font-family="Helvetica,sans-Serif" font-size="10.00">Specs&lt; DerivedSpecs &gt;</text>
</a>
</g>
</g>
<!-- Node2 -->
<g id="node2" class="node">
<title>Node2</title>
<g id="a_node2"><a xlink:href="classsciplot_1_1DepthSpecsOf.html" target="_top" xlink:title="The class used to attach depth options to a type.">
<polygon fill="white" stroke="black" points="160.5,-304.5 160.5,-323.5 321.5,-323.5 321.5,-304.5 160.5,-304.5"/>
<text text-anchor="middle" x="241" y="-311.5" font-family="Helvetica,sans-Serif" font-size="10.00">DepthSpecsOf&lt; DerivedSpecs &gt;</text>
</a>
</g>
</g>
<!-- Node1&#45;&gt;Node2 -->
<g id="edge1" class="edge">
<title>Node1&#45;&gt;Node2</title>
<path fill="none" stroke="midnightblue" d="M71.25,-180.6C85.17,-209.74 116.15,-265.84 160,-295 165.82,-298.87 172.35,-301.96 179.09,-304.42"/>
<polygon fill="midnightblue" stroke="midnightblue" points="74.42,-179.12 67.05,-171.51 68.06,-182.05 74.42,-179.12"/>
</g>
<!-- Node3 -->
<g id="node3" class="node">
<title>Node3</title>
<g id="a_node3"><a xlink:href="classsciplot_1_1FillSpecsOf.html" target="_top" xlink:title="The class used to attach color or pattern fill options to a type.">
<polygon fill="white" stroke="black" points="167.5,-266.5 167.5,-285.5 314.5,-285.5 314.5,-266.5 167.5,-266.5"/>
<text text-anchor="middle" x="241" y="-273.5" font-family="Helvetica,sans-Serif" font-size="10.00">FillSpecsOf&lt; DerivedSpecs &gt;</text>
</a>
</g>
</g>
<!-- Node1&#45;&gt;Node3 -->
<g id="edge2" class="edge">
<title>Node1&#45;&gt;Node3</title>
<path fill="none" stroke="midnightblue" d="M75.93,-179.55C92.82,-201.15 124.44,-237.39 160,-257 167,-260.86 174.77,-263.94 182.63,-266.4"/>
<polygon fill="midnightblue" stroke="midnightblue" points="78.67,-177.36 69.82,-171.53 73.1,-181.61 78.67,-177.36"/>
</g>
<!-- Node4 -->
<g id="node4" class="node">
<title>Node4</title>
<g id="a_node4"><a xlink:href="classsciplot_1_1FontSpecsOf.html" target="_top" xlink:title="The class used to attach font options to a type.">
<polygon fill="white" stroke="black" points="164,-228.5 164,-247.5 318,-247.5 318,-228.5 164,-228.5"/>
<text text-anchor="middle" x="241" y="-235.5" font-family="Helvetica,sans-Serif" font-size="10.00">FontSpecsOf&lt; DerivedSpecs &gt;</text>
</a>
</g>
</g>
<!-- Node1&#45;&gt;Node4 -->
<g id="edge3" class="edge">
<title>Node1&#45;&gt;Node4</title>
<path fill="none" stroke="midnightblue" d="M84.73,-177.33C103.78,-190.13 132.62,-207.99 160,-219 169.4,-222.78 179.75,-225.93 189.78,-228.5"/>
<polygon fill="midnightblue" stroke="midnightblue" points="86.69,-174.43 76.46,-171.68 82.74,-180.21 86.69,-174.43"/>
</g>
<!-- Node7 -->
<g id="node7" class="node">
<title>Node7</title>
<g id="a_node7"><a xlink:href="classsciplot_1_1FrameSpecsOf.html" target="_top" xlink:title="The class used to attach frame options to a type.">
<polygon fill="white" stroke="black" points="160,-190.5 160,-209.5 322,-209.5 322,-190.5 160,-190.5"/>
<text text-anchor="middle" x="241" y="-197.5" font-family="Helvetica,sans-Serif" font-size="10.00">FrameSpecsOf&lt; DerivedSpecs &gt;</text>
</a>
</g>
</g>
<!-- Node1&#45;&gt;Node7 -->
<g id="edge6" class="edge">
<title>Node1&#45;&gt;Node7</title>
<path fill="none" stroke="midnightblue" d="M117.74,-173.75C142.77,-179.13 172.03,-185.41 195.66,-190.48"/>
<polygon fill="midnightblue" stroke="midnightblue" points="118.18,-170.27 107.66,-171.59 116.71,-177.11 118.18,-170.27"/>
</g>
<!-- Node8 -->
<g id="node8" class="node">
<title>Node8</title>
<g id="a_node8"><a xlink:href="classsciplot_1_1LineSpecsOf.html" target="_top" xlink:title="The class used to attach line options to a type.">
<polygon fill="white" stroke="black" points="165,-152.5 165,-171.5 317,-171.5 317,-152.5 165,-152.5"/>
<text text-anchor="middle" x="241" y="-159.5" font-family="Helvetica,sans-Serif" font-size="10.00">LineSpecsOf&lt; DerivedSpecs &gt;</text>
</a>
</g>
</g>
<!-- Node1&#45;&gt;Node8 -->
<g id="edge7" class="edge">
<title>Node1&#45;&gt;Node8</title>
<path fill="none" stroke="midnightblue" d="M134.68,-162C144.66,-162 154.93,-162 164.97,-162"/>
<polygon fill="midnightblue" stroke="midnightblue" points="134.41,-158.5 124.41,-162 134.41,-165.5 134.41,-158.5"/>
</g>
<!-- Node9 -->
<g id="node9" class="node">
<title>Node9</title>
<g id="a_node9"><a xlink:href="classsciplot_1_1OffsetSpecsOf.html" target="_top" xlink:title="The class used to attach offset options to a type.">
<polygon fill="white" stroke="black" points="358,-114.5 358,-133.5 519,-133.5 519,-114.5 358,-114.5"/>
<text text-anchor="middle" x="438.5" y="-121.5" font-family="Helvetica,sans-Serif" font-size="10.00">OffsetSpecsOf&lt; DerivedSpecs &gt;</text>
</a>
</g>
</g>
<!-- Node1&#45;&gt;Node9 -->
<g id="edge8" class="edge">
<title>Node1&#45;&gt;Node9</title>
<path fill="none" stroke="midnightblue" d="M115.92,-150.39C130.17,-147.61 145.62,-144.89 160,-143 226.43,-134.25 302.37,-129.41 357.99,-126.8"/>
<polygon fill="midnightblue" stroke="midnightblue" points="114.9,-147.03 105.79,-152.42 116.28,-153.89 114.9,-147.03"/>
</g>
<!-- Node10 -->
<g id="node10" class="node">
<title>Node10</title>
<g id="a_node10"><a xlink:href="classsciplot_1_1PointSpecsOf.html" target="_top" xlink:title="The class used to attach point options to a type.">
<polygon fill="white" stroke="black" points="162.5,-76.5 162.5,-95.5 319.5,-95.5 319.5,-76.5 162.5,-76.5"/>
<text text-anchor="middle" x="241" y="-83.5" font-family="Helvetica,sans-Serif" font-size="10.00">PointSpecsOf&lt; DerivedSpecs &gt;</text>
</a>
</g>
</g>
<!-- Node1&#45;&gt;Node10 -->
<g id="edge10" class="edge">
<title>Node1&#45;&gt;Node10</title>
<path fill="none" stroke="midnightblue" d="M87.36,-147.17C106.59,-135.91 134.35,-120.6 160,-110 173.54,-104.41 188.84,-99.49 202.42,-95.59"/>
<polygon fill="midnightblue" stroke="midnightblue" points="85.47,-144.22 78.65,-152.34 89.04,-150.24 85.47,-144.22"/>
</g>
<!-- Node11 -->
<g id="node11" class="node">
<title>Node11</title>
<g id="a_node11"><a xlink:href="classsciplot_1_1ShowSpecsOf.html" target="_top" xlink:title="The class used to attach visibility options to a type.">
<polygon fill="white" stroke="black" points="359,-57.5 359,-76.5 518,-76.5 518,-57.5 359,-57.5"/>
<text text-anchor="middle" x="438.5" y="-64.5" font-family="Helvetica,sans-Serif" font-size="10.00">ShowSpecsOf&lt; DerivedSpecs &gt;</text>
</a>
</g>
</g>
<!-- Node1&#45;&gt;Node11 -->
<g id="edge11" class="edge">
<title>Node1&#45;&gt;Node11</title>
<path fill="none" stroke="midnightblue" d="M74.79,-143.78C90.85,-120.83 122.02,-82.5 160,-67 238.06,-35.14 339.07,-46.84 395.18,-57.43"/>
<polygon fill="midnightblue" stroke="midnightblue" points="71.73,-142.05 69.03,-152.3 77.53,-145.97 71.73,-142.05"/>
</g>
<!-- Node12 -->
<g id="node12" class="node">
<title>Node12</title>
<g id="a_node12"><a xlink:href="classsciplot_1_1TitleSpecsOf.html" target="_top" xlink:title="The class used to attach title options to a type.">
<polygon fill="white" stroke="black" points="164.5,-0.5 164.5,-19.5 317.5,-19.5 317.5,-0.5 164.5,-0.5"/>
<text text-anchor="middle" x="241" y="-7.5" font-family="Helvetica,sans-Serif" font-size="10.00">TitleSpecsOf&lt; DerivedSpecs &gt;</text>
</a>
</g>
</g>
<!-- Node1&#45;&gt;Node12 -->
<g id="edge13" class="edge">
<title>Node1&#45;&gt;Node12</title>
<path fill="none" stroke="midnightblue" d="M72.26,-143.21C86.98,-115.25 118.39,-62.89 160,-34 169.05,-27.71 179.78,-23.05 190.39,-19.59"/>
<polygon fill="midnightblue" stroke="midnightblue" points="69.03,-141.82 67.6,-152.32 75.27,-145.01 69.03,-141.82"/>
</g>
<!-- Node5 -->
<g id="node5" class="node">
<title>Node5</title>
<g id="a_node5"><a xlink:href="classsciplot_1_1TextSpecsOf.html" target="_top" xlink:title="The class used to attach text options to a type.">
<polygon fill="white" stroke="black" points="361.5,-190.5 361.5,-209.5 515.5,-209.5 515.5,-190.5 361.5,-190.5"/>
<text text-anchor="middle" x="438.5" y="-197.5" font-family="Helvetica,sans-Serif" font-size="10.00">TextSpecsOf&lt; DerivedSpecs &gt;</text>
</a>
</g>
</g>
<!-- Node4&#45;&gt;Node5 -->
<g id="edge4" class="edge">
<title>Node4&#45;&gt;Node5</title>
<path fill="none" stroke="midnightblue" d="M301.11,-226.51C329,-221.09 361.9,-214.69 388.4,-209.54"/>
<polygon fill="midnightblue" stroke="midnightblue" points="300.23,-223.12 291.08,-228.46 301.56,-229.99 300.23,-223.12"/>
</g>
<!-- Node6 -->
<g id="node6" class="node">
<title>Node6</title>
<g id="a_node6"><a xlink:href="classsciplot_1_1TicsSpecsBaseOf.html" target="_top" xlink:title="The class used to attach common tic options to a type that also specifies tic options.">
<polygon fill="white" stroke="black" points="555,-109 555,-139 694,-139 694,-109 555,-109"/>
<text text-anchor="start" x="563" y="-127" font-family="Helvetica,sans-Serif" font-size="10.00">TicsSpecsBaseOf&lt; Derived</text>
<text text-anchor="middle" x="624.5" y="-116" font-family="Helvetica,sans-Serif" font-size="10.00">Specs &gt;</text>
</a>
</g>
</g>
<!-- Node5&#45;&gt;Node6 -->
<g id="edge5" class="edge">
<title>Node5&#45;&gt;Node6</title>
<path fill="none" stroke="midnightblue" d="M472.23,-186.48C504.47,-173.16 553.63,-152.86 587.09,-139.04"/>
<polygon fill="midnightblue" stroke="midnightblue" points="470.71,-183.32 462.8,-190.37 473.38,-189.79 470.71,-183.32"/>
</g>
<!-- Node9&#45;&gt;Node6 -->
<g id="edge9" class="edge">
<title>Node9&#45;&gt;Node6</title>
<path fill="none" stroke="midnightblue" d="M529.26,-124C537.92,-124 546.6,-124 555,-124"/>
<polygon fill="midnightblue" stroke="midnightblue" points="529.13,-120.5 519.13,-124 529.13,-127.5 529.13,-120.5"/>
</g>
<!-- Node11&#45;&gt;Node6 -->
<g id="edge12" class="edge">
<title>Node11&#45;&gt;Node6</title>
<path fill="none" stroke="midnightblue" d="M480.15,-79.59C508.11,-88.26 545.39,-99.8 574.93,-108.95"/>
<polygon fill="midnightblue" stroke="midnightblue" points="480.89,-76.16 470.3,-76.54 478.81,-82.84 480.89,-76.16"/>
</g>
</g>
</svg>
