<?xml version="1.0" encoding="UTF-8" standalone="no"?>
<!DOCTYPE svg PUBLIC "-//W3C//DTD SVG 1.1//EN"
 "http://www.w3.org/Graphics/SVG/1.1/DTD/svg11.dtd">
<!-- Generated by graphviz version 2.42.3 (20191010.1750)
 -->
<!-- Title: TicsSpecsMajor Pages: 1 -->
<!--zoomable 113 -->
<svg id="main" version="1.1" xmlns="http://www.w3.org/2000/svg" xmlns:xlink="http://www.w3.org/1999/xlink" xml:space="preserve" onload="init(evt)">
<style type="text/css"><![CDATA[
.edge:hover path { stroke: red; }
.edge:hover polygon { stroke: red; fill: red; }
]]></style>
<script type="text/javascript"><![CDATA[
var edges = document.getElementsByTagName('g');
if (edges && edges.length) {
  for (var i=0;i<edges.length;i++) {
    if (edges[i].id.substr(0,4)=='edge') {
      edges[i].setAttribute('class','edge');
    }
  }
}
]]></script>
        <defs>
                <circle id="rim" cx="0" cy="0" r="7"/>
                <circle id="rim2" cx="0" cy="0" r="3.5"/>
                <g id="zoomPlus">
                        <use xlink:href="#rim" fill="#404040">
                                <set attributeName="fill" to="#808080" begin="zoomplus.mouseover" end="zoomplus.mouseout"/>
                        </use>
                        <path d="M-4,0h8M0,-4v8" fill="none" stroke="white" stroke-width="1.5" pointer-events="none"/>
                </g>
                <g id="zoomMin">
                        <use xlink:href="#rim" fill="#404040">
                                <set attributeName="fill" to="#808080" begin="zoomminus.mouseover" end="zoomminus.mouseout"/>
                        </use>
                        <path d="M-4,0h8" fill="none" stroke="white" stroke-width="1.5" pointer-events="none"/>
                </g>
                <g id="dirArrow">
                        <path fill="none" stroke="white" stroke-width="1.5" d="M0,-3.0v7 M-2.5,-0.5L0,-3.0L2.5,-0.5"/>
                </g>
               <g id="resetDef">
                       <use xlink:href="#rim2" fill="#404040">
                               <set attributeName="fill" to="#808080" begin="reset.mouseover" end="reset.mouseout"/>
                       </use>
               </g>
        </defs>

<script type="text/javascript">
var viewWidth = 855;
var viewHeight = 113;
var sectionId = 'dynsection-1';
</script>
<script xlink:href="svgpan.js"/>
<svg id="graph" class="graph">
<g id="viewport">
<title>TicsSpecsMajor</title>
<polygon fill="white" stroke="transparent" points="-4,4 -4,-109 851,-109 851,4 -4,4"/>
<!-- Node1 -->
<g id="node1" class="node">
<title>Node1</title>
<g id="a_node1"><a xlink:title="The class used to specify options for major tics of a specific axis.">
<polygon fill="#bfbfbf" stroke="black" points="760,-41.5 760,-60.5 847,-60.5 847,-41.5 760,-41.5"/>
<text text-anchor="middle" x="803.5" y="-48.5" font-family="Helvetica,sans-Serif" font-size="10.00">TicsSpecsMajor</text>
</a>
</g>
</g>
<!-- Node2 -->
<g id="node2" class="node">
<title>Node2</title>
<g id="a_node2"><a xlink:href="classsciplot_1_1TicsSpecsBaseOf.html" target="_top" xlink:title=" ">
<polygon fill="white" stroke="black" points="572,-36 572,-66 724,-66 724,-36 572,-36"/>
<text text-anchor="start" x="580" y="-54" font-family="Helvetica,sans-Serif" font-size="10.00">TicsSpecsBaseOf&lt; TicsSpecs</text>
<text text-anchor="middle" x="648" y="-43" font-family="Helvetica,sans-Serif" font-size="10.00">Major &gt;</text>
</a>
</g>
</g>
<!-- Node2&#45;&gt;Node1 -->
<g id="edge1" class="edge">
<title>Node2&#45;&gt;Node1</title>
<path fill="none" stroke="midnightblue" d="M734.62,-51C743.29,-51 751.8,-51 759.72,-51"/>
<polygon fill="midnightblue" stroke="midnightblue" points="734.4,-47.5 724.4,-51 734.4,-54.5 734.4,-47.5"/>
</g>
<!-- Node3 -->
<g id="node3" class="node">
<title>Node3</title>
<g id="a_node3"><a xlink:href="classsciplot_1_1TextSpecsOf.html" target="_top" xlink:title=" ">
<polygon fill="white" stroke="black" points="373,-85.5 373,-104.5 536,-104.5 536,-85.5 373,-85.5"/>
<text text-anchor="middle" x="454.5" y="-92.5" font-family="Helvetica,sans-Serif" font-size="10.00">TextSpecsOf&lt; TicsSpecsMajor &gt;</text>
</a>
</g>
</g>
<!-- Node3&#45;&gt;Node2 -->
<g id="edge2" class="edge">
<title>Node3&#45;&gt;Node2</title>
<path fill="none" stroke="midnightblue" d="M506.91,-83.19C529.82,-77.92 557.08,-71.66 581.43,-66.07"/>
<polygon fill="midnightblue" stroke="midnightblue" points="506.01,-79.8 497.05,-85.45 507.58,-86.62 506.01,-79.8"/>
</g>
<!-- Node4 -->
<g id="node4" class="node">
<title>Node4</title>
<g id="a_node4"><a xlink:href="classsciplot_1_1FontSpecsOf.html" target="_top" xlink:title=" ">
<polygon fill="white" stroke="black" points="171.5,-82.5 171.5,-101.5 334.5,-101.5 334.5,-82.5 171.5,-82.5"/>
<text text-anchor="middle" x="253" y="-89.5" font-family="Helvetica,sans-Serif" font-size="10.00">FontSpecsOf&lt; TicsSpecsMajor &gt;</text>
</a>
</g>
</g>
<!-- Node4&#45;&gt;Node3 -->
<g id="edge3" class="edge">
<title>Node4&#45;&gt;Node3</title>
<path fill="none" stroke="midnightblue" d="M344.73,-93.36C354.14,-93.51 363.66,-93.65 372.95,-93.79"/>
<polygon fill="midnightblue" stroke="midnightblue" points="344.62,-89.86 334.57,-93.21 344.52,-96.86 344.62,-89.86"/>
</g>
<!-- Node5 -->
<g id="node5" class="node">
<title>Node5</title>
<g id="a_node5"><a xlink:href="classsciplot_1_1Specs.html" target="_top" xlink:title=" ">
<polygon fill="white" stroke="black" points="0,-41.5 0,-60.5 133,-60.5 133,-41.5 0,-41.5"/>
<text text-anchor="middle" x="66.5" y="-48.5" font-family="Helvetica,sans-Serif" font-size="10.00">Specs&lt; TicsSpecsMajor &gt;</text>
</a>
</g>
</g>
<!-- Node5&#45;&gt;Node4 -->
<g id="edge4" class="edge">
<title>Node5&#45;&gt;Node4</title>
<path fill="none" stroke="midnightblue" d="M120.36,-62.75C148.5,-69 182.65,-76.59 209.12,-82.47"/>
<polygon fill="midnightblue" stroke="midnightblue" points="120.81,-59.26 110.29,-60.51 119.29,-66.1 120.81,-59.26"/>
</g>
<!-- Node6 -->
<g id="node6" class="node">
<title>Node6</title>
<g id="a_node6"><a xlink:href="classsciplot_1_1OffsetSpecsOf.html" target="_top" xlink:title=" ">
<polygon fill="white" stroke="black" points="386,-36 386,-66 523,-66 523,-36 386,-36"/>
<text text-anchor="start" x="394" y="-54" font-family="Helvetica,sans-Serif" font-size="10.00">OffsetSpecsOf&lt; TicsSpecs</text>
<text text-anchor="middle" x="454.5" y="-43" font-family="Helvetica,sans-Serif" font-size="10.00">Major &gt;</text>
</a>
</g>
</g>
<!-- Node5&#45;&gt;Node6 -->
<g id="edge6" class="edge">
<title>Node5&#45;&gt;Node6</title>
<path fill="none" stroke="midnightblue" d="M143.58,-51C214.15,-51 318.19,-51 385.91,-51"/>
<polygon fill="midnightblue" stroke="midnightblue" points="143.42,-47.5 133.42,-51 143.42,-54.5 143.42,-47.5"/>
</g>
<!-- Node7 -->
<g id="node7" class="node">
<title>Node7</title>
<g id="a_node7"><a xlink:href="classsciplot_1_1ShowSpecsOf.html" target="_top" xlink:title=" ">
<polygon fill="white" stroke="black" points="169,-0.5 169,-19.5 337,-19.5 337,-0.5 169,-0.5"/>
<text text-anchor="middle" x="253" y="-7.5" font-family="Helvetica,sans-Serif" font-size="10.00">ShowSpecsOf&lt; TicsSpecsMajor &gt;</text>
</a>
</g>
</g>
<!-- Node5&#45;&gt;Node7 -->
<g id="edge8" class="edge">
<title>Node5&#45;&gt;Node7</title>
<path fill="none" stroke="midnightblue" d="M120.36,-39.25C148.5,-33 182.65,-25.41 209.12,-19.53"/>
<polygon fill="midnightblue" stroke="midnightblue" points="119.29,-35.9 110.29,-41.49 120.81,-42.74 119.29,-35.9"/>
</g>
<!-- Node6&#45;&gt;Node2 -->
<g id="edge5" class="edge">
<title>Node6&#45;&gt;Node2</title>
<path fill="none" stroke="midnightblue" d="M533.17,-51C545.96,-51 559.21,-51 571.94,-51"/>
<polygon fill="midnightblue" stroke="midnightblue" points="533.02,-47.5 523.02,-51 533.02,-54.5 533.02,-47.5"/>
</g>
<!-- Node7&#45;&gt;Node2 -->
<g id="edge7" class="edge">
<title>Node7&#45;&gt;Node2</title>
<path fill="none" stroke="midnightblue" d="M347.13,-11.43C402.27,-13.24 473.37,-17.23 536,-26 553.22,-28.41 571.71,-32.12 588.57,-35.95"/>
<polygon fill="midnightblue" stroke="midnightblue" points="347.13,-7.93 337.02,-11.12 346.91,-14.93 347.13,-7.93"/>
</g>
</g>
</svg>
        <g id="navigator" transform="translate(0 0)" fill="#404254">
                <rect fill="#f2f5e9" fill-opacity="0.5" stroke="#606060" stroke-width=".5" x="0" y="0" width="60" height="60"/>
                <use id="zoomplus" xlink:href="#zoomPlus" x="17" y="9" onmousedown="handleZoom(evt,'in')"/>
                <use id="zoomminus" xlink:href="#zoomMin" x="42" y="9" onmousedown="handleZoom(evt,'out')"/>
                <use id="reset" xlink:href="#resetDef" x="30" y="36" onmousedown="handleReset()"/>
                <g id="arrowUp" xlink:href="#dirArrow" transform="translate(30 24)" onmousedown="handlePan(0,-1)">
                  <use xlink:href="#rim" fill="#404040">
                        <set attributeName="fill" to="#808080" begin="arrowUp.mouseover" end="arrowUp.mouseout"/>
                  </use>
                  <path fill="none" stroke="white" stroke-width="1.5" d="M0,-3.0v7 M-2.5,-0.5L0,-3.0L2.5,-0.5"/>
                </g>
                <g id="arrowRight" xlink:href="#dirArrow" transform="rotate(90) translate(36 -43)" onmousedown="handlePan(1,0)">
                  <use xlink:href="#rim" fill="#404040">
                        <set attributeName="fill" to="#808080" begin="arrowRight.mouseover" end="arrowRight.mouseout"/>
                  </use>
                  <path fill="none" stroke="white" stroke-width="1.5" d="M0,-3.0v7 M-2.5,-0.5L0,-3.0L2.5,-0.5"/>
                </g>
                <g id="arrowDown" xlink:href="#dirArrow" transform="rotate(180) translate(-30 -48)" onmousedown="handlePan(0,1)">
                  <use xlink:href="#rim" fill="#404040">
                        <set attributeName="fill" to="#808080" begin="arrowDown.mouseover" end="arrowDown.mouseout"/>
                  </use>
                  <path fill="none" stroke="white" stroke-width="1.5" d="M0,-3.0v7 M-2.5,-0.5L0,-3.0L2.5,-0.5"/>
                </g>
                <g id="arrowLeft" xlink:href="#dirArrow" transform="rotate(270) translate(-36 17)" onmousedown="handlePan(-1,0)">
                  <use xlink:href="#rim" fill="#404040">
                        <set attributeName="fill" to="#808080" begin="arrowLeft.mouseover" end="arrowLeft.mouseout"/>
                  </use>
                  <path fill="none" stroke="white" stroke-width="1.5" d="M0,-3.0v7 M-2.5,-0.5L0,-3.0L2.5,-0.5"/>
                </g>
        </g>
        <svg viewBox="0 0 15 15" width="100%" height="30px" preserveAspectRatio="xMaxYMin meet">
         <g id="arrow_out" transform="scale(0.3 0.3)">
          <a xlink:href="classsciplot_1_1TicsSpecsMajor__coll__graph_org.svg" target="_base">
           <rect id="button" ry="5" rx="5" y="6" x="6" height="38" width="38"
                fill="#f2f5e9" fill-opacity="0.5" stroke="#606060" stroke-width="1.0"/>
           <path id="arrow"
             d="M 11.500037,31.436501 C 11.940474,20.09759 22.043105,11.32322 32.158766,21.979434 L 37.068811,17.246167 C 37.068811,17.246167 37.088388,32 37.088388,32 L 22.160133,31.978069 C 22.160133,31.978069 26.997745,27.140456 26.997745,27.140456 C 18.528582,18.264221 13.291696,25.230495 11.500037,31.436501 z"
             style="fill:#404040;"/>
          </a>
         </g>
        </svg>
</svg>
