<?xml version="1.0" encoding="UTF-8" standalone="no"?>
<!DOCTYPE svg PUBLIC "-//W3C//DTD SVG 1.1//EN"
 "http://www.w3.org/Graphics/SVG/1.1/DTD/svg11.dtd">
<!-- Generated by graphviz version 2.42.3 (20191010.1750)
 -->
<!-- Title: DrawSpecs Pages: 1 -->
<svg width="470pt" height="140pt"
 viewBox="0.00 0.00 469.50 140.00" xmlns="http://www.w3.org/2000/svg" xmlns:xlink="http://www.w3.org/1999/xlink">
<g id="graph0" class="graph" transform="scale(1 1) rotate(0) translate(4 136)">
<title>DrawSpecs</title>
<polygon fill="white" stroke="transparent" points="-4,4 -4,-136 465.5,-136 465.5,4 -4,4"/>
<!-- Node1 -->
<g id="node1" class="node">
<title>Node1</title>
<g id="a_node1"><a xlink:title="The class where options for the plotted element can be specified.">
<polygon fill="#bfbfbf" stroke="black" points="199,-0.5 199,-19.5 267,-19.5 267,-0.5 199,-0.5"/>
<text text-anchor="middle" x="233" y="-7.5" font-family="Helvetica,sans-Serif" font-size="10.00">DrawSpecs</text>
</a>
</g>
</g>
<!-- Node2 -->
<g id="node2" class="node">
<title>Node2</title>
<g id="a_node2"><a xlink:href="classsciplot_1_1LineSpecsOf.html" target="_top" xlink:title=" ">
<polygon fill="white" stroke="black" points="0,-56.5 0,-75.5 142,-75.5 142,-56.5 0,-56.5"/>
<text text-anchor="middle" x="71" y="-63.5" font-family="Helvetica,sans-Serif" font-size="10.00">LineSpecsOf&lt; DrawSpecs &gt;</text>
</a>
</g>
</g>
<!-- Node2&#45;&gt;Node1 -->
<g id="edge1" class="edge">
<title>Node2&#45;&gt;Node1</title>
<path fill="none" stroke="midnightblue" d="M106.48,-53.17C136.99,-43 180.24,-28.59 207.45,-19.52"/>
<polygon fill="midnightblue" stroke="midnightblue" points="105.05,-49.96 96.67,-56.44 107.26,-56.6 105.05,-49.96"/>
</g>
<!-- Node3 -->
<g id="node3" class="node">
<title>Node3</title>
<g id="a_node3"><a xlink:href="classsciplot_1_1Specs.html" target="_top" xlink:title=" ">
<polygon fill="white" stroke="black" points="176.5,-112.5 176.5,-131.5 289.5,-131.5 289.5,-112.5 176.5,-112.5"/>
<text text-anchor="middle" x="233" y="-119.5" font-family="Helvetica,sans-Serif" font-size="10.00">Specs&lt; DrawSpecs &gt;</text>
</a>
</g>
</g>
<!-- Node3&#45;&gt;Node2 -->
<g id="edge2" class="edge">
<title>Node3&#45;&gt;Node2</title>
<path fill="none" stroke="midnightblue" d="M197.52,-109.17C167.01,-99 123.76,-84.59 96.55,-75.52"/>
<polygon fill="midnightblue" stroke="midnightblue" points="196.74,-112.6 207.33,-112.44 198.95,-105.96 196.74,-112.6"/>
</g>
<!-- Node4 -->
<g id="node4" class="node">
<title>Node4</title>
<g id="a_node4"><a xlink:href="classsciplot_1_1PointSpecsOf.html" target="_top" xlink:title=" ">
<polygon fill="white" stroke="black" points="160,-56.5 160,-75.5 306,-75.5 306,-56.5 160,-56.5"/>
<text text-anchor="middle" x="233" y="-63.5" font-family="Helvetica,sans-Serif" font-size="10.00">PointSpecsOf&lt; DrawSpecs &gt;</text>
</a>
</g>
</g>
<!-- Node3&#45;&gt;Node4 -->
<g id="edge4" class="edge">
<title>Node3&#45;&gt;Node4</title>
<path fill="none" stroke="midnightblue" d="M233,-101.8C233,-92.91 233,-82.78 233,-75.75"/>
<polygon fill="midnightblue" stroke="midnightblue" points="229.5,-102.08 233,-112.08 236.5,-102.08 229.5,-102.08"/>
</g>
<!-- Node5 -->
<g id="node5" class="node">
<title>Node5</title>
<g id="a_node5"><a xlink:href="classsciplot_1_1FillSpecsOf.html" target="_top" xlink:title=" ">
<polygon fill="white" stroke="black" points="324.5,-56.5 324.5,-75.5 461.5,-75.5 461.5,-56.5 324.5,-56.5"/>
<text text-anchor="middle" x="393" y="-63.5" font-family="Helvetica,sans-Serif" font-size="10.00">FillSpecsOf&lt; DrawSpecs &gt;</text>
</a>
</g>
</g>
<!-- Node3&#45;&gt;Node5 -->
<g id="edge6" class="edge">
<title>Node3&#45;&gt;Node5</title>
<path fill="none" stroke="midnightblue" d="M268.05,-109.17C298.17,-99 340.9,-84.59 367.77,-75.52"/>
<polygon fill="midnightblue" stroke="midnightblue" points="266.71,-105.93 258.35,-112.44 268.95,-112.56 266.71,-105.93"/>
</g>
<!-- Node4&#45;&gt;Node1 -->
<g id="edge3" class="edge">
<title>Node4&#45;&gt;Node1</title>
<path fill="none" stroke="midnightblue" d="M233,-45.8C233,-36.91 233,-26.78 233,-19.75"/>
<polygon fill="midnightblue" stroke="midnightblue" points="229.5,-46.08 233,-56.08 236.5,-46.08 229.5,-46.08"/>
</g>
<!-- Node5&#45;&gt;Node1 -->
<g id="edge5" class="edge">
<title>Node5&#45;&gt;Node1</title>
<path fill="none" stroke="midnightblue" d="M357.95,-53.17C327.83,-43 285.1,-28.59 258.23,-19.52"/>
<polygon fill="midnightblue" stroke="midnightblue" points="357.05,-56.56 367.65,-56.44 359.29,-49.93 357.05,-56.56"/>
</g>
</g>
</svg>
