<?xml version="1.0" encoding="UTF-8" standalone="no"?>
<!DOCTYPE svg PUBLIC "-//W3C//DTD SVG 1.1//EN"
 "http://www.w3.org/Graphics/SVG/1.1/DTD/svg11.dtd">
<!-- Generated by graphviz version 2.42.3 (20191010.1750)
 -->
<!-- Title: Graph Legend Pages: 1 -->
<svg width="512pt" height="159pt"
 viewBox="0.00 0.00 512.00 159.00" xmlns="http://www.w3.org/2000/svg" xmlns:xlink="http://www.w3.org/1999/xlink">
<g id="graph0" class="graph" transform="scale(1 1) rotate(0) translate(4 155)">
<title>Graph Legend</title>
<polygon fill="white" stroke="transparent" points="-4,4 -4,-155 508,-155 508,4 -4,4"/>
<!-- Node9 -->
<g id="node1" class="node">
<title>Node9</title>
<polygon fill="#bfbfbf" stroke="black" points="293,-19 239,-19 239,0 293,0 293,-19"/>
<text text-anchor="middle" x="266" y="-7" font-family="Helvetica,sans-Serif" font-size="10.00">Inherited</text>
</g>
<!-- Node10 -->
<g id="node2" class="node">
<title>Node10</title>
<polygon fill="none" stroke="black" points="66,-85 0,-85 0,-66 66,-66 66,-85"/>
<text text-anchor="middle" x="33" y="-73" font-family="Helvetica,sans-Serif" font-size="10.00">PublicBase</text>
</g>
<!-- Node10&#45;&gt;Node9 -->
<g id="edge1" class="edge">
<title>Node10&#45;&gt;Node9</title>
<path fill="none" stroke="midnightblue" d="M74.07,-63.22C121.46,-50.2 198.08,-29.16 238.69,-18"/>
<polygon fill="midnightblue" stroke="midnightblue" points="73.14,-59.84 64.42,-65.87 74.99,-66.59 73.14,-59.84"/>
</g>
<!-- Node11 -->
<g id="node3" class="node">
<title>Node11</title>
<polygon fill="none" stroke="red" points="63,-151 3,-151 3,-132 63,-132 63,-151"/>
<text text-anchor="middle" x="33" y="-139" font-family="Helvetica,sans-Serif" font-size="10.00">Truncated</text>
</g>
<!-- Node11&#45;&gt;Node10 -->
<g id="edge2" class="edge">
<title>Node11&#45;&gt;Node10</title>
<path fill="none" stroke="midnightblue" d="M33,-121.58C33,-109.63 33,-94.72 33,-85.41"/>
<polygon fill="midnightblue" stroke="midnightblue" points="29.5,-121.87 33,-131.87 36.5,-121.87 29.5,-121.87"/>
</g>
<!-- Node13 -->
<g id="node4" class="node">
<title>Node13</title>
<polygon fill="none" stroke="black" points="165.5,-85 84.5,-85 84.5,-66 165.5,-66 165.5,-85"/>
<text text-anchor="middle" x="125" y="-73" font-family="Helvetica,sans-Serif" font-size="10.00">ProtectedBase</text>
</g>
<!-- Node13&#45;&gt;Node9 -->
<g id="edge3" class="edge">
<title>Node13&#45;&gt;Node9</title>
<path fill="none" stroke="darkgreen" d="M153.21,-61.69C181,-49.08 222.69,-30.16 246.84,-19.2"/>
<polygon fill="darkgreen" stroke="darkgreen" points="151.68,-58.55 144.02,-65.87 154.57,-64.92 151.68,-58.55"/>
</g>
<!-- Node14 -->
<g id="node5" class="node">
<title>Node14</title>
<polygon fill="none" stroke="black" points="254,-85 184,-85 184,-66 254,-66 254,-85"/>
<text text-anchor="middle" x="219" y="-73" font-family="Helvetica,sans-Serif" font-size="10.00">PrivateBase</text>
</g>
<!-- Node14&#45;&gt;Node9 -->
<g id="edge4" class="edge">
<title>Node14&#45;&gt;Node9</title>
<path fill="none" stroke="#8b1a1a" d="M231.29,-57.77C240.3,-45.49 252.2,-29.3 259.46,-19.41"/>
<polygon fill="#8b1a1a" stroke="#8b1a1a" points="228.44,-55.74 225.34,-65.87 234.08,-59.88 228.44,-55.74"/>
</g>
<!-- Node15 -->
<g id="node6" class="node">
<title>Node15</title>
<polygon fill="none" stroke="#bfbfbf" points="355.5,-85 272.5,-85 272.5,-66 355.5,-66 355.5,-85"/>
<text text-anchor="middle" x="314" y="-73" font-family="Helvetica,sans-Serif" font-size="10.00">Undocumented</text>
</g>
<!-- Node15&#45;&gt;Node9 -->
<g id="edge5" class="edge">
<title>Node15&#45;&gt;Node9</title>
<path fill="none" stroke="midnightblue" d="M301.45,-57.77C292.24,-45.49 280.1,-29.3 272.68,-19.41"/>
<polygon fill="midnightblue" stroke="midnightblue" points="298.73,-59.97 307.53,-65.87 304.33,-55.77 298.73,-59.97"/>
</g>
<!-- Node16 -->
<g id="node7" class="node">
<title>Node16</title>
<polygon fill="none" stroke="black" points="446,-85 374,-85 374,-66 446,-66 446,-85"/>
<text text-anchor="middle" x="410" y="-73" font-family="Helvetica,sans-Serif" font-size="10.00">Templ&lt; int &gt;</text>
</g>
<!-- Node16&#45;&gt;Node9 -->
<g id="edge6" class="edge">
<title>Node16&#45;&gt;Node9</title>
<path fill="none" stroke="midnightblue" d="M381.19,-61.69C352.81,-49.08 310.23,-30.16 285.57,-19.2"/>
<polygon fill="midnightblue" stroke="midnightblue" points="380.02,-65.01 390.58,-65.87 382.86,-58.61 380.02,-65.01"/>
</g>
<!-- Node17 -->
<g id="node8" class="node">
<title>Node17</title>
<polygon fill="none" stroke="black" points="444,-151 376,-151 376,-132 444,-132 444,-151"/>
<text text-anchor="middle" x="410" y="-139" font-family="Helvetica,sans-Serif" font-size="10.00">Templ&lt; T &gt;</text>
</g>
<!-- Node17&#45;&gt;Node16 -->
<g id="edge7" class="edge">
<title>Node17&#45;&gt;Node16</title>
<path fill="none" stroke="orange" stroke-dasharray="5,2" d="M410,-121.58C410,-109.63 410,-94.72 410,-85.41"/>
<polygon fill="orange" stroke="orange" points="406.5,-121.87 410,-131.87 413.5,-121.87 406.5,-121.87"/>
<text text-anchor="middle" x="424.5" y="-106" font-family="Helvetica,sans-Serif" font-size="10.00">&lt; int &gt;</text>
</g>
<!-- Node18 -->
<g id="node9" class="node">
<title>Node18</title>
<polygon fill="none" stroke="black" points="504,-85 464,-85 464,-66 504,-66 504,-85"/>
<text text-anchor="middle" x="484" y="-73" font-family="Helvetica,sans-Serif" font-size="10.00">Used</text>
</g>
<!-- Node18&#45;&gt;Node9 -->
<g id="edge8" class="edge">
<title>Node18&#45;&gt;Node9</title>
<path fill="none" stroke="#9a32cd" stroke-dasharray="5,2" d="M454.11,-65.72C411.55,-53.23 334.13,-30.5 293.14,-18.47"/>
<polygon fill="#9a32cd" stroke="#9a32cd" points="453.3,-69.14 463.88,-68.59 455.27,-62.42 453.3,-69.14"/>
<text text-anchor="middle" x="418.5" y="-40" font-family="Helvetica,sans-Serif" font-size="10.00">m_usedClass</text>
</g>
</g>
</svg>
